<svg width="170" height="60" viewBox="0 0 170 60" fill="none" xmlns="http://www.w3.org/2000/svg">
<path d="M132.194 30.4352C131.617 30.442 131.059 30.2721 130.59 29.9391L129.714 30.7682C130.04 31.1828 130.223 31.6858 130.237 32.2091C130.237 33.6567 129.061 34.8325 127.614 34.8325C126.166 34.8325 124.99 33.6567 124.99 32.2091C124.983 31.6926 125.153 31.1828 125.459 30.7682L124.582 29.9391C124.127 30.2381 123.604 30.4148 123.06 30.4352C122.367 30.4488 121.701 30.1906 121.205 29.708C120.715 29.2051 120.437 28.5254 120.437 27.8254C120.437 26.3778 121.612 25.202 123.06 25.202C123.631 25.2156 124.188 25.4127 124.637 25.7661L125.513 24.9234C125.201 24.4612 125.038 23.9107 125.045 23.3534C125.045 21.9058 126.22 20.73 127.668 20.73C128.368 20.7232 129.041 21.0018 129.537 21.498C130.019 21.9873 130.291 22.6534 130.285 23.3466C130.271 23.9107 130.087 24.4612 129.761 24.9166L130.638 25.7593C131.086 25.3787 131.657 25.1816 132.242 25.2088C133.683 25.0661 134.967 26.1127 135.117 27.5604C135.266 29.008 134.213 30.2857 132.765 30.4352C132.588 30.4556 132.419 30.4556 132.242 30.4352H132.194ZM167.23 24.6107H139.881C139.453 23.7952 138.875 23.0747 138.168 22.4835C137.108 21.5659 135.694 21.1786 134.322 21.4232L134.084 21.4776L134.111 21.2261C134.274 19.7989 133.798 18.3717 132.799 17.3318C130.278 14.4773 125.921 14.2055 123.067 16.7269C122.856 16.9172 122.652 17.1143 122.462 17.3318C121.51 18.392 121.048 19.8057 121.177 21.2261L121.218 21.4776L120.973 21.4232C119.567 21.1854 118.133 21.5727 117.038 22.4835C114.143 24.8962 113.749 29.2051 116.162 32.1003C116.427 32.4198 116.719 32.712 117.038 32.9771C118.133 33.8946 119.567 34.282 120.973 34.0373L121.218 33.9897L121.184 34.2412C121.055 35.6616 121.517 37.0685 122.469 38.1355C124.99 40.99 129.353 41.2551 132.208 38.7336C132.419 38.5501 132.616 38.3462 132.806 38.1355C133.805 37.1025 134.281 35.6752 134.118 34.2412L134.084 33.9897L134.328 34.0373C135.701 34.282 137.115 33.8878 138.175 32.9771C139.025 32.1887 139.67 31.21 140.058 30.1158H153.997C154.785 30.075 155.465 30.6799 155.506 31.4683V31.5294C155.506 32.3518 154.833 33.011 154.017 33.011H152.726V40.4463H158.272V34.5131C158.272 33.6975 158.931 33.0382 159.747 33.0314H159.781C160.63 33.0043 161.351 33.6567 161.405 34.5063V40.4735H166.89V33.045H165.666C164.851 33.0654 164.178 32.4266 164.151 31.611V31.577C164.158 30.7818 164.81 30.1362 165.605 30.143H167.182C168.691 30.1498 169.928 28.9332 169.935 27.4176V27.404C169.935 25.8816 168.704 24.6447 167.182 24.6379" fill="#CC0000"/>
<path d="M11.2394 21.3555L4.97315 28.648V21.3555H0.0253906V40.3649H4.97315V34.5065L6.99848 32.3792L12.1094 40.3649H18.2601L10.3559 28.8383L17.3833 21.3555H11.2394ZM26.5652 32.0326C26.4837 30.4898 25.3895 29.2053 23.8739 29.2053C22.2767 29.2053 21.2097 30.3539 20.9446 32.0258L26.5652 32.0326ZM20.9514 34.5608C21.033 36.457 22.1204 37.7008 24.0438 37.7008C25.1312 37.7619 26.1507 37.1638 26.6264 36.1852H30.8606C30.0382 39.3999 27.0818 40.7659 23.9962 40.7659C19.497 40.7659 16.4386 38.0474 16.4386 33.419C16.4386 29.1849 19.8164 26.1537 23.8943 26.1537C28.8488 26.1537 31.3295 29.8781 31.112 34.5676L20.9514 34.5608ZM33.8374 45.0001H31.7101V41.33H33.2597C34.2927 41.33 35.0675 40.7455 35.0675 39.7872C35.0675 39.0464 34.1908 36.9124 33.9189 36.1648L30.3508 26.5479H35.1627L37.7861 35.5463H37.8404L40.4638 26.5479H45.065L39.6143 41.5883C38.5133 44.6467 36.9025 45.0001 33.8374 45.0001ZM59.0927 29.9597C60.6015 29.2732 61.5802 27.778 61.6006 26.1265C61.6006 22.1574 58.0053 21.3079 54.7294 21.3623H45.833V40.3785H54.9605C59.0383 40.3785 62.3618 38.9921 62.3618 34.4657C62.4433 32.386 61.0909 30.5238 59.0927 29.9597ZM50.7875 25.1886H54.6207C55.6605 25.1886 56.646 25.6508 56.646 27.0236C56.646 28.3965 55.477 28.8315 54.6207 28.8315H50.7875V25.1886ZM54.7566 36.3959H50.7875V32.0326H54.7566C56.245 32.0326 57.4208 32.5899 57.4208 34.2686C57.4208 35.8385 56.3266 36.3959 54.7566 36.3959ZM72.7262 39.06C72.7602 39.5086 72.8486 39.9504 72.9913 40.3717H77.5109C76.9808 39.2775 76.9808 37.9998 76.9808 36.8308V30.7752C76.9808 26.8605 73.8137 26.1469 70.5378 26.1469C69.0222 26.0993 67.5202 26.4256 66.1677 27.1052C64.8357 27.8596 64.0133 29.2732 64.0133 30.8024L64.0201 30.8092H68.2542C68.4717 29.6199 69.2669 29.0626 70.5174 29.0626C71.4553 29.0626 72.7059 29.4635 72.7059 30.5034C72.7059 31.3461 72.2845 31.618 71.5097 31.7811C68.363 32.4404 63.4696 32.0937 63.4696 36.5929C63.4696 39.461 65.5629 40.7727 68.1863 40.7727C69.831 40.7591 71.5573 40.2834 72.7262 39.06ZM69.8446 34.6424C70.8301 34.3773 72.0058 34.2958 72.6447 33.9016C72.7534 36.7493 72.033 37.9794 69.8786 37.9794L69.8718 37.9658C68.8591 37.9658 67.9824 37.4833 67.9824 36.3959C67.9824 35.3084 68.8591 34.9074 69.8446 34.6424ZM92.9795 31.5025V40.3717H88.4735V33.6841C88.4735 31.7879 88.6841 29.8781 86.2103 29.8781C84.5044 29.8781 83.7636 31.319 83.7636 32.8346V40.3717H79.2372V26.5479H83.6073V28.4441H83.6616C84.4908 27.0304 86.353 26.1537 87.9977 26.1537C92.6057 26.1469 92.9795 29.5043 92.9795 31.5025ZM99.7555 40.3649H95.2291V21.3555H99.7555V31.1558L103.881 26.5479H109.121L104.064 31.7675L109.767 40.3649H104.302L100.924 34.8055L99.7555 35.9473V40.3649Z" fill="black"/>
</svg>
