<svg width="177" height="60" viewBox="0 0 177 60" fill="none" xmlns="http://www.w3.org/2000/svg">
<g clip-path="url(#clip0_178_12321)">
<path d="M152.686 20.6616H165.045L169.019 33.8295H169.084V20.6616H176.171V39.3442H164.029L159.836 25.7999H159.774V39.3442H152.686V20.6616H152.686Z" fill="#ED1B2F"/>
<path d="M132.98 39.3282L135.981 32.2504V25.1169H139.586V32.2504L142.837 39.3282H151.379L143.705 20.6572H132.333L124.785 39.3282H132.981H132.98Z" fill="#ED1B2F"/>
<path d="M92.6094 20.6616H104.814L107.62 30.8858H107.682L110.456 20.6616H122.628V39.3442H115.17V24.6754H115.046L110.825 39.3442H103.951L99.7443 24.6754H99.7297L99.7443 39.3442H92.6094V20.6616H92.6094Z" fill="#ED1B2F"/>
<path d="M91.0959 26.1725H83.9963V39.3422H75.7361V26.1725H68.6353V20.6592H91.0958V26.1725H91.0959Z" fill="#ED1B2F"/>
<path d="M67.0634 25.7746C65.2151 25.2131 63.0261 24.8384 60.6841 24.8384C59.3889 24.8384 57.1391 24.865 57.1391 26.0694C57.1391 28.5046 68.451 26.204 68.451 33.4018C68.451 38.4081 62.7485 39.6658 57.9726 39.6658C54.7975 39.6658 52.1779 39.3977 49.0962 38.7816V33.9378C51.3143 34.7407 54.0274 35.17 56.493 35.17C58.4346 35.17 60.1907 34.8207 60.1907 33.8856C60.1907 31.3679 48.8799 33.6443 48.8799 26.3907C48.8799 21.2522 55.0432 20.3413 59.9443 20.3413C62.2558 20.3413 64.8136 20.5827 67.0632 20.9841V25.7746L67.0634 25.7746Z" fill="#ED1B2F"/>
<path d="M1.16602 20.6616H19.8117V25.1586H9.24116V27.8073H19.3508V32.3043H9.24116V34.8462H20.0291V39.3444H1.16696V20.6618L1.16602 20.6616Z" fill="#ED1B2F"/>
<path d="M29.642 39.3672L32.6449 32.2895V25.1547H36.2481V32.2895L39.4983 39.3672H48.0423L40.369 20.6953H28.9961L21.4453 39.3672H29.6425H29.642Z" fill="#ED1B2F"/>
</g>
<defs>
<clipPath id="clip0_178_12321">
<rect width="175.625" height="20" fill="white" transform="translate(0.854492 20)"/>
</clipPath>
</defs>
</svg>
