<svg width="191" height="60" viewBox="0 0 191 60" fill="none" xmlns="http://www.w3.org/2000/svg">
<g clip-path="url(#clip0_178_12294)">
<path d="M0.792969 15V45H173.7L190.953 15H0.792969Z" fill="#FFD20B"/>
<path d="M33.6685 25.8299C32.9975 25.2548 32.1349 25.0631 31.1765 25.0631C30.218 25.0631 29.3554 25.7341 29.3554 26.5008C29.3554 26.9801 29.6429 27.2676 30.4097 27.5551L31.6557 27.9385C33.0934 28.4178 33.8602 29.1845 33.8602 30.4305C33.8602 32.8267 31.8474 34.8395 28.4928 34.8395C26.9592 34.8395 25.8091 34.4561 24.8506 33.881L26.0007 32.1558C26.9592 32.7309 27.726 33.0184 28.8761 33.0184C30.3138 33.0184 31.1765 32.2516 31.1765 31.1973C31.1765 30.6222 30.7931 30.2388 30.0263 30.0472L28.8761 29.6638C27.6301 29.2804 26.8634 28.6095 26.8634 27.3634C26.8634 25.159 28.972 23.3379 31.5598 23.3379C32.9017 23.3379 34.2436 23.7213 35.0103 24.4881L33.6685 25.8299Z" fill="black"/>
<path d="M39.611 27.9391H38.1733L37.3107 32.0605C37.2149 32.3481 37.2149 32.5398 37.2149 32.7315C37.2149 33.2107 37.4066 33.3065 37.8858 33.3065C38.0775 33.3065 38.4609 33.2107 38.6526 33.1149V34.3609C38.0775 34.5526 37.4066 34.7442 36.8315 34.7442C35.5855 34.7442 34.9146 34.1692 34.9146 33.3065C34.9146 33.019 34.9146 32.6356 35.0104 32.2522L35.9689 27.8433H35.2979L35.5855 26.4056H36.3523C36.5439 25.6388 36.6398 25.0637 36.8315 24.4887L39.036 23.9136C38.8443 24.6803 38.5567 25.543 38.365 26.4056H40.282L39.611 27.9391Z" fill="black"/>
<path d="M47.2787 28.8968L46.6078 31.9639C46.4161 32.6348 46.5119 33.114 46.8953 33.5933L45.1701 34.9351C44.7867 34.6476 44.595 34.2642 44.595 33.9767C44.0199 34.6476 43.349 34.9351 42.3905 34.9351C40.9528 34.9351 40.186 34.0725 40.186 32.3473C40.186 30.4303 40.9528 28.7051 41.9113 27.6508C42.7739 26.7882 43.8282 26.4048 45.1701 26.4048C46.1285 26.4048 47.1828 26.5965 47.8538 26.9799C47.6621 27.3633 47.3745 28.2259 47.2787 28.8968ZM44.7867 27.9383C44.3074 27.9383 43.8282 27.9383 43.2531 28.6093C42.5822 29.376 42.2947 31.0054 42.2947 32.0597C42.2947 32.8265 42.4864 33.114 42.9656 33.114C43.6365 33.114 44.3074 32.4431 44.4991 31.868L45.3618 28.0342C45.2659 28.0342 44.9784 27.9383 44.7867 27.9383Z" fill="black"/>
<path d="M51.4959 26.2134C51.5918 26.5009 51.6876 27.1718 51.6876 27.5552C52.3586 26.7885 53.2212 26.3092 54.4672 26.3092C55.5215 26.3092 56.0966 26.8843 56.0966 27.9386C56.0966 28.322 56.0966 28.7054 56.0007 29.0888L54.8506 34.6479H52.742L53.8921 29.3763C53.988 29.0888 53.988 28.8012 53.988 28.6095C53.988 28.2262 53.7963 28.1303 53.4129 28.1303C52.9336 28.1303 52.2627 28.4179 51.5918 29.3763L50.4416 34.6479H48.333L49.4832 29.1846C49.6749 28.322 49.6749 27.5552 49.4832 27.076L51.4959 26.2134Z" fill="black"/>
<path d="M60.793 25.2552L59.547 31.2935C59.3553 32.252 59.2594 32.6354 59.2594 32.8271C59.2594 33.1146 59.3553 33.3063 59.6428 33.3063C59.7387 33.3063 59.8345 33.3063 59.8345 33.3063L59.9304 34.5523C59.547 34.6482 59.0678 34.744 58.5885 34.744C57.4384 34.744 56.8633 34.1689 56.8633 33.3063C56.8633 33.0188 56.9591 32.4437 57.055 31.8686L58.301 25.8303C58.4927 24.776 58.6844 24.0092 58.4927 23.4341L60.793 22.7632C61.0805 23.1466 61.0805 24.2967 60.793 25.2552Z" fill="black"/>
<path d="M67.6942 33.6898C66.6399 34.4565 65.4897 34.8399 64.3396 34.8399C62.4226 34.8399 61.2725 33.7856 61.2725 31.8687C61.2725 30.1434 62.0392 28.4182 63.0935 27.3639C63.8603 26.5971 64.8188 26.3096 65.8731 26.3096C67.5025 26.3096 68.6527 26.9805 68.6527 28.514C68.6527 30.0476 67.215 31.2936 64.5312 31.2936C63.9562 31.2936 63.5728 31.1978 63.5728 31.1978C63.5728 31.1978 63.4769 31.677 63.4769 31.9645C63.4769 32.923 63.9562 33.3064 64.8188 33.3064C65.5856 33.3064 66.3523 33.0188 67.1191 32.4438L67.6942 33.6898ZM64.5312 29.8559C65.4897 29.8559 66.544 29.5684 66.544 28.7057C66.544 28.2265 66.3523 27.8431 65.6814 27.8431C64.9146 27.8431 64.2437 28.3224 63.9562 29.7601C63.9562 29.7601 64.2437 29.8559 64.5312 29.8559Z" fill="black"/>
<path d="M71.9114 26.3096L72.2948 31.1019C72.2948 31.5811 72.3907 32.8271 72.3907 32.8271C72.3907 32.8271 72.9657 31.3894 73.445 30.431L75.4577 26.5971H77.7581L73.0616 34.8399C72.199 36.3735 71.6239 37.1402 70.953 37.5236C70.3779 37.907 69.6111 38.1946 68.8443 38.2904L68.4609 36.8527C68.9402 36.7569 69.5153 36.5652 69.8986 36.3735C70.5696 35.9901 70.7613 35.6067 71.3363 34.7441H70.7613C70.7613 34.169 70.6654 33.1147 70.5696 32.4438L69.8028 26.693L71.9114 26.3096Z" fill="black"/>
<path d="M83.7004 23.5298C85.3298 23.5298 86.5758 24.2966 86.5758 25.926C86.5758 26.9803 85.9048 28.2263 84.2754 28.7055C85.3298 28.8972 85.9048 29.8557 85.9048 30.8141C85.9048 31.4851 85.6173 32.6352 84.8505 33.402C84.0838 34.2646 83.1253 34.5521 81.4001 34.5521H77.3745L79.7707 23.5298H83.7004ZM79.9624 32.8269H81.4001C81.8793 32.8269 82.2627 32.7311 82.5502 32.5394C83.0294 32.2518 83.4128 31.4851 83.4128 30.91C83.4128 30.1432 83.0294 29.8557 81.9751 29.8557H80.6333L79.9624 32.8269ZM81.0167 27.9387H82.3585C82.9336 27.9387 83.2211 27.8429 83.5087 27.6512C83.8921 27.3637 84.1796 26.9803 84.1796 26.4052C84.1796 25.7343 83.8921 25.4467 82.9336 25.4467H81.5918L81.0167 27.9387Z" fill="black"/>
<path d="M90.9845 25.2552L89.6427 31.2935C89.451 32.252 89.3551 32.6354 89.3551 32.8271C89.3551 33.1146 89.451 33.3063 89.7385 33.3063C89.8344 33.3063 89.9302 33.3063 89.9302 33.3063L90.0261 34.5523C89.6427 34.6482 89.1634 34.744 88.6842 34.744C87.5341 34.744 86.959 34.1689 86.959 33.3063C86.959 33.0188 87.0548 32.4437 87.1507 31.8686L88.3967 25.8303C88.5884 24.776 88.7801 24.0092 88.5884 23.4341L90.8887 22.7632C91.1762 23.1466 91.1762 24.2967 90.9845 25.2552Z" fill="black"/>
<path d="M98.7484 28.8968L98.0775 31.9639C97.9816 32.6348 97.9816 33.114 98.365 33.5933L96.6398 34.9351C96.2564 34.6476 96.0647 34.2642 96.0647 33.9767C95.4896 34.6476 94.8187 34.9351 93.8602 34.9351C92.4225 34.9351 91.6558 34.0725 91.6558 32.3473C91.6558 30.4303 92.4225 28.7051 93.381 27.6508C94.2436 26.7882 95.2979 26.4048 96.6398 26.4048C97.5982 26.4048 98.6526 26.5965 99.3235 26.9799C99.1318 27.3633 98.9401 28.2259 98.7484 28.8968ZM96.3522 27.9383C95.873 27.9383 95.3938 27.9383 94.8187 28.6093C94.1478 29.376 93.8602 31.0054 93.8602 32.0597C93.8602 32.8265 94.0519 33.114 94.5312 33.114C95.2021 33.114 95.873 32.4431 96.0647 31.868L96.9273 28.0342C96.8315 28.0342 96.5439 27.9383 96.3522 27.9383Z" fill="black"/>
<path d="M105.553 28.5134C105.17 28.13 104.787 27.9383 104.307 27.9383C103.924 27.9383 103.636 28.13 103.349 28.4176C102.774 29.0885 102.199 30.8137 102.199 32.0597C102.199 32.9224 102.582 33.3057 103.157 33.3057C103.732 33.3057 104.307 33.0182 104.978 32.539L105.649 33.8808C104.787 34.5518 103.828 34.9351 102.678 34.9351C100.857 34.9351 99.8984 33.8808 99.8984 32.1556C99.8984 30.1428 100.857 28.3217 102.007 27.3633C102.774 26.7882 103.541 26.4048 104.691 26.4048C105.458 26.4048 106.224 26.6923 106.895 27.3633L105.553 28.5134Z" fill="black"/>
<path d="M111.017 22.7632C111.113 23.1466 111.113 24.105 110.729 25.8303L108.812 34.6482H106.704L108.621 25.7344C108.812 24.5843 108.908 23.9133 108.812 23.53L111.017 22.7632ZM115.33 26.5012L111.975 30.0475L114.18 34.6482H111.688L109.962 30.0475L112.742 26.5012H115.33Z" fill="black"/>
<path d="M124.531 29.1849C124.34 30.2392 123.86 31.4852 123.285 32.3478L125.106 34.6481H122.327L121.752 33.9772C120.985 34.5523 120.027 34.9356 118.493 34.9356C116.288 34.9356 115.042 33.8813 115.042 32.3478C115.042 31.0059 116.001 29.8558 117.726 29.089C117.055 28.5139 116.864 27.9388 116.864 27.2679C116.864 25.5427 118.493 24.105 120.602 24.105C122.231 24.105 123.285 24.8718 123.285 26.1178C123.285 27.3638 122.806 28.2264 120.793 29.1849L120.602 29.2807L122.039 31.0059C122.327 30.5267 122.519 29.5682 122.614 29.2807H124.531V29.1849ZM117.439 32.1561C117.439 32.9229 118.014 33.3063 118.972 33.3063C119.739 33.3063 120.314 33.1146 120.793 32.7312L118.685 30.2392C117.918 30.6226 117.439 31.2935 117.439 32.1561ZM121.273 26.3095C121.273 25.8302 120.985 25.5427 120.506 25.5427C119.835 25.5427 119.26 26.1178 119.26 26.8845C119.26 27.1721 119.356 27.5555 119.931 28.1305C120.697 27.7472 121.273 26.9804 121.273 26.3095Z" fill="black"/>
<path d="M131.145 23.5298C132.966 23.5298 134.116 23.7215 134.787 24.5841C135.266 25.255 135.649 25.926 135.649 27.2678C135.649 29.0889 134.978 31.4851 133.637 32.9228C132.486 34.1688 131.336 34.5521 128.94 34.5521H126.256L128.653 23.5298H131.145ZM128.844 32.8269H129.899C130.857 32.8269 131.528 32.3477 132.007 31.6767C132.966 30.1432 133.157 27.9387 133.157 27.3637C133.157 26.3093 132.87 25.3509 131.432 25.3509H130.474L128.844 32.8269Z" fill="black"/>
<path d="M142.55 33.6898C141.496 34.4565 140.346 34.8399 139.292 34.8399C137.375 34.8399 136.225 33.7856 136.225 31.8687C136.225 30.1434 136.991 28.4182 138.046 27.3639C138.812 26.5971 139.771 26.3096 140.825 26.3096C142.455 26.3096 143.605 26.9805 143.605 28.514C143.605 30.0476 142.167 31.2936 139.483 31.2936C138.908 31.2936 138.525 31.1978 138.525 31.1978C138.525 31.1978 138.429 31.677 138.429 31.9645C138.429 32.923 138.908 33.3064 139.771 33.3064C140.538 33.3064 141.304 33.0188 142.071 32.4438L142.55 33.6898ZM139.483 29.8559C140.442 29.8559 141.496 29.5684 141.496 28.7057C141.496 28.2265 141.304 27.8431 140.634 27.8431C139.867 27.8431 139.196 28.3224 138.908 29.7601C138.812 29.7601 139.196 29.8559 139.483 29.8559Z" fill="black"/>
<path d="M149.93 28.5134C149.547 28.13 149.164 27.9383 148.684 27.9383C148.301 27.9383 148.013 28.13 147.726 28.4176C147.151 29.0885 146.576 30.8137 146.576 32.0597C146.576 32.9224 146.959 33.3057 147.534 33.3057C148.109 33.3057 148.684 33.0182 149.355 32.539L150.026 33.8808C149.164 34.5518 148.205 34.9351 147.055 34.9351C145.234 34.9351 144.275 33.8808 144.275 32.1556C144.275 30.1428 145.234 28.3217 146.384 27.3633C147.151 26.7882 147.918 26.4048 149.068 26.4048C149.835 26.4048 150.601 26.6923 151.272 27.3633L149.93 28.5134Z" fill="black"/>
<path d="M155.394 22.7632C155.49 23.1466 155.49 24.105 155.106 25.8303L153.189 34.6482H151.081L152.998 25.7344C153.189 24.5843 153.285 23.9133 153.189 23.53L155.394 22.7632ZM159.707 26.5012L156.352 30.0475L158.557 34.6482H156.065L154.339 30.0475L157.023 26.5012H159.707Z" fill="black"/>
<path d="M165.841 33.6898C164.787 34.4565 163.637 34.8399 162.487 34.8399C160.57 34.8399 159.419 33.7856 159.419 31.8687C159.419 30.1434 160.186 28.4182 161.241 27.3639C162.007 26.5971 162.966 26.3096 164.02 26.3096C165.65 26.3096 166.8 26.9805 166.8 28.514C166.8 30.0476 165.362 31.2936 162.678 31.2936C162.103 31.2936 161.72 31.1978 161.72 31.1978C161.72 31.1978 161.624 31.677 161.624 31.9645C161.624 32.923 162.103 33.3064 162.966 33.3064C163.733 33.3064 164.499 33.0188 165.266 32.4438L165.841 33.6898ZM162.678 29.8559C163.637 29.8559 164.691 29.5684 164.691 28.7057C164.691 28.2265 164.499 27.8431 163.828 27.8431C163.062 27.8431 162.391 28.3224 162.103 29.7601C162.103 29.7601 162.391 29.8559 162.678 29.8559Z" fill="black"/>
<path d="M170.442 26.2134C170.537 26.5009 170.729 27.076 170.633 27.5552C171.304 26.7885 172.071 26.3092 172.934 26.3092C173.221 26.3092 173.413 26.3092 173.7 26.5009L172.742 28.4179C172.55 28.322 172.359 28.2262 172.167 28.2262C171.783 28.2262 171.304 28.4179 170.633 29.3763L169.483 34.7437H167.375L168.525 29.3763C168.716 28.322 168.716 27.6511 168.525 27.076L170.442 26.2134Z" fill="black"/>
</g>
<defs>
<clipPath id="clip0_178_12294">
<rect width="190.16" height="30" fill="white" transform="translate(0.792969 15)"/>
</clipPath>
</defs>
</svg>
