<svg width="112" height="60" viewBox="0 0 112 60" fill="none" xmlns="http://www.w3.org/2000/svg">
<path d="M69.4136 53.376H71.0213L73.5293 58.2634V53.376H74.7512V59.8712H73.1435L70.6354 54.9837V59.8712H69.4136V53.376Z" fill="#005EB8"/>
<path d="M76.166 53.376H77.4522V56.0126H80.0889V53.376H81.375V59.8712H80.0889V57.0416H77.4522V59.8712H76.166V53.376Z" fill="#005EB8"/>
<path d="M86.391 54.5337C86.0052 54.3408 85.555 54.2765 85.0406 54.2765C84.5904 54.2765 84.0116 54.4694 84.0116 55.1768C84.0116 56.3344 86.8412 55.8199 86.8412 58.0064C86.8412 59.4212 85.6836 60 84.3975 60C83.6901 60 83.3685 59.9357 82.7254 59.7427L82.8541 58.5852C83.3042 58.8424 83.8187 58.971 84.3332 58.971C84.8476 58.971 85.4907 58.7138 85.4907 58.135C85.4907 56.9132 82.6611 57.4276 82.6611 55.2411C82.6611 53.762 83.8187 53.2476 84.9119 53.2476C85.4907 53.2476 86.0052 53.3119 86.4553 53.5048L86.391 54.5337Z" fill="#005EB8"/>
<path d="M91.8571 54.4049H89.9922V53.376H95.0083V54.4049H93.2076V59.8712H91.9215V54.4049H91.8571Z" fill="#005EB8"/>
<path d="M94.9442 55.0485H96.0374V56.1418C96.1018 55.6916 96.6162 54.9199 97.3236 54.9199C97.4522 54.9199 97.5809 54.9199 97.7095 54.9842V56.2704C97.5809 56.2061 97.3879 56.1418 97.1307 56.1418C96.1018 56.1418 96.1018 57.428 96.1018 58.0711V59.8074H94.8799V55.0485H94.9442Z" fill="#005EB8"/>
<path d="M102.919 59.8715H101.761V59.2284C101.375 59.6786 100.861 60.0001 100.218 60.0001C99.06 60.0001 98.6099 59.2284 98.6099 58.1352V55.1126H99.8317V57.685C99.8317 58.2638 99.8317 59.0355 100.668 59.0355C101.568 59.0355 101.761 58.0709 101.761 57.4278V55.0483H102.983V59.8715H102.919Z" fill="#005EB8"/>
<path d="M107.099 56.0775C106.713 55.9489 106.455 55.8846 106.005 55.8846C105.684 55.8846 105.298 56.0132 105.298 56.399C105.298 57.1707 107.484 56.6563 107.484 58.3926C107.484 59.4858 106.455 59.936 105.491 59.936C105.041 59.936 104.526 59.8717 104.076 59.7431L104.14 58.7141C104.526 58.9071 104.912 59.0357 105.362 59.0357C105.684 59.0357 106.198 58.9071 106.198 58.4569C106.198 57.4923 104.012 58.1354 104.012 56.399C104.012 55.3701 104.912 54.9199 105.877 54.9199C106.455 54.9199 106.841 54.9842 107.227 55.1129L107.099 56.0775Z" fill="#005EB8"/>
<path d="M108.77 56.013H107.87V55.1127H108.77V54.1481L109.992 53.7622V55.1127H111.086V56.013H109.992V58.2638C109.992 58.6497 110.121 59.0355 110.571 59.0355C110.764 59.0355 111.021 58.9712 111.15 58.9069L111.214 59.8715C110.957 59.9359 110.635 60.0002 110.314 60.0002C109.349 60.0002 108.77 59.4214 108.77 58.4568V56.013Z" fill="#005EB8"/>
<path d="M21.5034 24.7588H24.0115L27.87 32.2829V24.7588H29.7993V34.8553H27.3555L23.497 27.3311V34.8553H21.5677V24.7588H21.5034Z" fill="black"/>
<path d="M35.33 27.2026C37.5165 27.2026 39.2529 28.6817 39.2529 31.1255C39.2529 33.2477 37.8381 34.984 35.33 34.984C32.8863 34.984 31.4715 33.2477 31.4715 31.1255C31.4072 28.6817 33.0792 27.2026 35.33 27.2026ZM35.33 33.5049C36.8091 33.5049 37.195 32.1544 37.195 30.9325C37.195 29.775 36.6162 28.746 35.33 28.746C34.0439 28.746 33.4651 29.8393 33.4651 30.9325C33.4651 32.1544 33.8509 33.5049 35.33 33.5049Z" fill="black"/>
<path d="M40.7319 27.3956H42.4683V29.0676C42.5326 28.3602 43.3686 27.2026 44.5262 27.2026C44.7191 27.2026 44.912 27.2026 45.1049 27.2669V29.1962C44.9763 29.1319 44.5905 29.0676 44.2689 29.0676C42.6612 29.0676 42.6612 31.0612 42.6612 32.0901V34.8554H40.7319V27.3956Z" fill="black"/>
<path d="M46.97 28.8104H45.5552V27.3956H46.97V25.9165L48.8992 25.2734V27.3956H50.6356V28.8104H48.8992V32.2831C48.8992 32.9262 49.0922 33.505 49.7996 33.505C50.1211 33.505 50.507 33.4407 50.6999 33.312L50.7642 34.8554C50.3783 34.9841 49.9282 35.0484 49.3494 35.0484C47.806 35.0484 46.97 34.0837 46.97 32.6046V28.8104Z" fill="black"/>
<path d="M51.986 23.9873H53.9153V28.4246C54.4298 27.7172 55.2658 27.2671 56.2304 27.2671C57.9668 27.2671 58.7385 28.4889 58.7385 30.161V34.8555H56.8092V30.8683C56.8092 29.968 56.8092 28.7462 55.523 28.7462C54.1082 28.7462 53.7867 30.2896 53.7867 31.1899V34.8555H51.8574V23.9873H51.986Z" fill="black"/>
<path d="M61.1178 27.7814C61.8895 27.4599 62.8541 27.2026 63.6901 27.2026C65.9409 27.2026 66.9055 28.1673 66.9055 30.3538V31.3184C66.9055 32.0901 66.9055 32.6046 66.9055 33.1834C66.9055 33.7621 66.9699 34.2766 66.9699 34.8554H65.2335C65.1692 34.4695 65.1692 33.9551 65.1692 33.7621C64.719 34.5982 63.7544 35.0483 62.8541 35.0483C61.5679 35.0483 60.2817 34.2766 60.2817 32.8618C60.2817 31.7686 60.7962 31.1255 61.5679 30.7396C62.3396 30.3538 63.2399 30.2895 64.076 30.2895H65.1692C65.1692 29.0676 64.6547 28.6817 63.4972 28.6817C62.6612 28.6817 61.8251 29.0033 61.1821 29.5178L61.1178 27.7814ZM63.3686 33.5692C63.9473 33.5692 64.3975 33.312 64.719 32.9261C65.0406 32.476 65.1049 31.9615 65.1049 31.3827H64.2689C63.4329 31.3827 62.1467 31.5113 62.1467 32.6689C62.1467 33.312 62.7255 33.5692 63.3686 33.5692Z" fill="black"/>
<path d="M68.7705 27.3956H70.5712V28.4245C71.1499 27.5242 72.0503 27.2026 72.7577 27.2026C73.7866 27.2026 74.5583 27.5885 74.9442 28.4888C75.3943 27.5885 76.3589 27.2026 77.2593 27.2026C79.1242 27.2026 79.6387 28.4888 79.6387 30.0965V34.8554H77.7094V30.4181C77.7094 29.7107 77.7094 28.746 76.6162 28.746C75.33 28.746 75.2014 30.2895 75.2014 31.2541V34.8554H73.2721V30.4181C73.2721 29.7107 73.2721 28.746 72.1789 28.746C70.8927 28.746 70.7641 30.2895 70.7641 31.2541V34.8554H68.8348V27.3956H68.7705Z" fill="black"/>
<path d="M81.6968 27.3956H83.5617V28.4245C84.0119 27.7171 84.7193 27.2026 85.8768 27.2026C88.192 27.2026 89.028 29.0033 89.028 31.0612C89.028 33.119 88.192 34.984 85.8768 34.984C85.0408 34.984 84.3977 34.7911 83.6903 33.9551V37.8136H81.7611V27.3956H81.6968ZM83.626 31.0612C83.626 32.0901 84.0762 33.5049 85.3624 33.5049C86.6486 33.5049 86.9701 32.0901 86.9701 31.0612C86.9701 30.0322 86.6486 28.6817 85.3624 28.6817C84.1405 28.7461 83.626 30.0322 83.626 31.0612Z" fill="black"/>
<path d="M91.1501 28.8104H89.7354V27.3956H91.1501V25.9165L93.0794 25.2734V27.3956H94.8158V28.8104H93.0794V32.2831C93.0794 32.9262 93.2723 33.505 93.9797 33.505C94.3013 33.505 94.6871 33.4407 94.8801 33.312L94.9444 34.8554C94.5585 34.9841 94.1084 35.0484 93.5296 35.0484C91.9862 35.0484 91.1501 34.0837 91.1501 32.6046V28.8104Z" fill="black"/>
<path d="M99.5099 27.2026C101.696 27.2026 103.433 28.6817 103.433 31.1255C103.433 33.2477 102.018 34.984 99.5099 34.984C97.0662 34.984 95.6514 33.2477 95.6514 31.1255C95.6514 28.6817 97.3234 27.2026 99.5099 27.2026ZM99.5099 33.5049C100.989 33.5049 101.375 32.1544 101.375 30.9325C101.375 29.775 100.796 28.746 99.5099 28.746C98.2237 28.746 97.6449 29.8393 97.6449 30.9325C97.6449 32.1544 98.0308 33.5049 99.5099 33.5049Z" fill="black"/>
<path d="M104.976 27.3957H106.841V28.4246C107.42 27.5886 108.256 27.2671 109.285 27.2671C111.021 27.2671 111.793 28.489 111.793 30.161V34.8555H109.864V30.8684C109.864 29.9681 109.864 28.7462 108.578 28.7462C107.163 28.7462 106.841 30.2896 106.841 31.1899V34.8555H104.912V27.3957H104.976Z" fill="black"/>
<path d="M8.57743 40.1931C7.80573 39.8073 6.77678 39.6787 6.00508 39.6787C3.62565 39.6787 2.33948 41.2864 2.33948 43.3443C2.33948 45.4022 3.62565 46.9456 5.74784 46.9456C6.32662 46.9456 6.71248 46.8813 7.09833 46.8169V44.1803H4.97614V42.5726H9.02759V48.0388C7.93434 48.2961 6.84109 48.5533 5.74784 48.5533C2.46809 48.5533 0.217285 46.9456 0.217285 43.5372C0.217285 40.0645 2.33948 38.1353 5.74784 38.1353C6.9054 38.1353 7.87003 38.2639 8.70605 38.5854L8.57743 40.1931Z" fill="black"/>
<path d="M16.9377 47.9101C16.2303 48.296 15.3943 48.4889 14.3654 48.4889C11.9216 48.4889 10.5068 47.0741 10.5068 44.6304C10.5068 42.5082 11.6644 40.7075 13.9795 40.7075C16.7448 40.7075 17.5165 42.5725 17.5165 45.2091H12.3718C12.4361 46.431 13.2721 47.0741 14.494 47.0741C15.4586 47.0741 16.2303 46.7526 16.9377 46.3024V47.9101ZM15.6515 43.923C15.5872 42.9583 15.1371 42.1866 14.1081 42.1866C13.0149 42.1866 12.5004 42.9583 12.3718 43.923H15.6515Z" fill="black"/>
<path d="M18.9955 40.9006H20.8604V41.9295C21.4392 41.0935 22.2752 40.772 23.3042 40.772C25.0405 40.772 25.8122 41.9938 25.8122 43.6659V48.3604H23.8829V44.3733C23.8829 43.4729 23.8829 42.2511 22.5968 42.2511C21.182 42.2511 20.8604 43.7945 20.8604 44.6948V48.3604H18.9312V40.9006H18.9955Z" fill="black"/>
<path d="M33.8508 47.9101C33.1434 48.296 32.3074 48.4889 31.2785 48.4889C28.8347 48.4889 27.4199 47.0741 27.4199 44.6304C27.4199 42.5082 28.5775 40.7075 30.8926 40.7075C33.6579 40.7075 34.4296 42.5725 34.4296 45.2091H29.2849C29.3492 46.431 30.1852 47.0741 31.4071 47.0741C32.3717 47.0741 33.1434 46.7526 33.8508 46.3024V47.9101ZM32.5003 43.923C32.436 42.9583 31.9858 42.1866 30.9569 42.1866C29.928 42.1866 29.3492 42.9583 29.2206 43.923H32.5003Z" fill="black"/>
<path d="M35.9087 40.9004H37.645V42.5725C37.7093 41.8651 38.5454 40.7075 39.7029 40.7075C39.8958 40.7075 40.0888 40.7075 40.2817 40.7718V42.7011C40.0888 42.5725 39.7672 42.5725 39.4457 42.5725C37.838 42.5725 37.838 44.566 37.838 45.595V48.3603H35.9087V40.9004Z" fill="black"/>
<path d="M41.8253 41.2863C42.597 40.9648 43.5616 40.7075 44.3976 40.7075C46.6484 40.7075 47.6131 41.6722 47.6131 43.8587V44.8233C47.6131 45.595 47.6131 46.1095 47.6131 46.6882C47.6131 47.267 47.6774 47.7815 47.6774 48.3603H45.941C45.8767 47.9744 45.8767 47.4599 45.8767 47.267C45.4266 48.103 44.4619 48.5532 43.5616 48.5532C42.2754 48.5532 40.9893 47.7815 40.9893 46.3667C40.9893 45.2734 41.5037 44.6304 42.2754 44.2445C42.9828 43.8587 43.9475 43.7943 44.7835 43.7943H45.8767C45.8767 42.5725 45.3623 42.1866 44.2047 42.1866C43.3687 42.1866 42.5327 42.5082 41.8896 43.0226L41.8253 41.2863ZM44.1404 47.1384C44.7192 47.1384 45.1693 46.8812 45.4909 46.4953C45.8124 46.0451 45.8767 45.5307 45.8767 44.9519H45.0407C44.2047 44.9519 42.9185 45.0805 42.9185 46.2381C42.8542 46.8169 43.433 47.1384 44.1404 47.1384Z" fill="black"/>
<path d="M49.6064 37.4922H51.5357V48.3604H49.6064V37.4922Z" fill="black"/>
<path d="M57.7734 38.2637H59.767V42.3151H63.8185V38.2637H65.8121V48.3601H63.8185V43.9228H59.767V48.3601H57.7734V38.2637Z" fill="black"/>
<path d="M71.4074 40.7075C73.5939 40.7075 75.3302 42.1866 75.3302 44.6304C75.3302 46.7525 73.9154 48.4889 71.4074 48.4889C68.9636 48.4889 67.5488 46.7525 67.5488 44.6304C67.5488 42.2509 69.2209 40.7075 71.4074 40.7075ZM71.4074 47.0098C72.8865 47.0098 73.2723 45.6593 73.2723 44.4374C73.2723 43.2799 72.6935 42.2509 71.4074 42.2509C70.1212 42.2509 69.5424 43.3442 69.5424 44.4374C69.5424 45.6593 69.9283 47.0098 71.4074 47.0098Z" fill="black"/>
<path d="M81.2463 42.444C80.6676 42.2511 80.2174 42.1225 79.51 42.1225C78.9955 42.1225 78.3525 42.3154 78.3525 42.9585C78.3525 44.116 81.6965 43.4086 81.6965 46.1096C81.6965 47.8459 80.1531 48.5533 78.5454 48.5533C77.838 48.5533 77.0663 48.4247 76.3589 48.2318L76.4875 46.6241C77.0663 46.9456 77.7094 47.1385 78.4168 47.1385C78.9312 47.1385 79.7029 46.9456 79.7029 46.2382C79.7029 44.7591 76.3589 45.7881 76.3589 43.0871C76.3589 41.4794 77.7737 40.772 79.2528 40.772C80.1531 40.772 80.7319 40.9006 81.375 41.0292L81.2463 42.444Z" fill="black"/>
<path d="M83.2397 40.9004H85.1047V41.9294C85.5549 41.222 86.2623 40.7075 87.4198 40.7075C89.7349 40.7075 90.5709 42.5082 90.5709 44.566C90.5709 46.6239 89.7349 48.4889 87.4198 48.4889C86.5838 48.4889 85.9407 48.296 85.2333 47.4599V51.3185H83.3041V40.9004H83.2397ZM85.2333 44.6304C85.2333 45.6593 85.6835 47.0741 86.9697 47.0741C88.2558 47.0741 88.5774 45.6593 88.5774 44.6304C88.5774 43.6014 88.2558 42.2509 86.9697 42.2509C85.6835 42.2509 85.2333 43.6014 85.2333 44.6304Z" fill="black"/>
<path d="M92.1147 37.6851H94.044V39.55H92.1147V37.6851ZM92.1147 40.9005H94.044V48.3603H92.1147V40.9005Z" fill="black"/>
<path d="M96.7449 42.3153H95.3301V40.9005H96.7449V39.4214L98.6741 38.7783V40.9005H100.41V42.3153H98.6741V45.788C98.6741 46.4311 98.8671 47.0099 99.5745 47.0099C99.896 47.0099 100.282 46.9455 100.475 46.8169L100.539 48.3603C100.153 48.489 99.7031 48.5533 99.1243 48.5533C97.5809 48.5533 96.7449 47.5886 96.7449 46.1095V42.3153Z" fill="black"/>
<path d="M102.083 41.2863C102.854 40.9648 103.819 40.7075 104.655 40.7075C106.906 40.7075 107.87 41.6722 107.87 43.8587V44.8233C107.87 45.595 107.87 46.1095 107.87 46.6882C107.87 47.267 107.935 47.7815 107.935 48.3603H106.198C106.134 47.9744 106.134 47.4599 106.134 47.267C105.684 48.103 104.719 48.5532 103.819 48.5532C102.533 48.5532 101.247 47.7815 101.247 46.3667C101.247 45.2734 101.761 44.6304 102.533 44.2445C103.24 43.8587 104.205 43.7943 105.041 43.7943H106.134C106.134 42.5725 105.62 42.1866 104.462 42.1866C103.626 42.1866 102.79 42.5082 102.147 43.0226L102.083 41.2863ZM104.333 47.1384C104.912 47.1384 105.362 46.8812 105.684 46.4953C106.005 46.0451 106.07 45.5307 106.07 44.9519H105.234C104.398 44.9519 103.112 45.0805 103.112 46.2381C103.112 46.8169 103.626 47.1384 104.333 47.1384Z" fill="black"/>
<path d="M109.799 37.4922H111.729V48.3604H109.799V37.4922Z" fill="black"/>
<path d="M110.185 18.9068V0H63.2397V18.9068H110.185ZM82.0822 1.80065L78.8668 17.0418H73.7864L70.571 6.49519H70.5066L68.3845 17.0418H64.5259L67.8057 1.80065H72.8861L76.0372 12.3473H76.1015L78.2237 1.80065H82.0822ZM96.6803 1.80065L93.5292 17.0418H89.4134L90.7639 10.5466H85.9408L84.5903 17.0418H80.4745L83.6256 1.80065H87.7414L86.5195 7.58844H91.3427L92.5646 1.80065H96.6803ZM108.449 2.25081L107.484 5.27332C106.712 4.88747 105.619 4.56593 104.14 4.56593C102.532 4.56593 101.182 4.82316 101.182 6.04503C101.182 8.23153 107.098 7.39551 107.098 12.0257C107.098 16.2058 103.176 17.2991 99.6385 17.2991C98.0308 17.2991 96.2302 16.9132 94.8797 16.5274L95.8443 13.4405C96.6803 13.955 98.288 14.3409 99.6385 14.3409C100.925 14.3409 102.918 14.0836 102.918 12.5402C102.918 10.0965 97.0019 10.9968 97.0019 6.75243C97.0019 2.82959 100.475 1.67203 103.819 1.67203C105.619 1.54341 107.42 1.73634 108.449 2.25081Z" fill="#005EB8"/>
</svg>
