<svg width="147" height="60" viewBox="0 0 147 60" fill="none" xmlns="http://www.w3.org/2000/svg">
<path d="M61.5122 40.2084V21.8052H53.9492V19.2842H72.3524V21.8052H64.5374V40.2084H61.5122Z" fill="black"/>
<path d="M68.3188 32.3933C68.3188 29.6202 69.0751 27.6035 70.5877 26.343C72.1003 25.0825 73.865 24.3262 76.1339 24.3262C78.4028 24.3262 80.1675 25.0825 81.6801 26.343C83.1927 27.6035 83.949 29.6202 83.949 32.1412C83.949 34.9143 83.1927 36.9311 81.6801 38.4437C80.1675 39.7042 78.4028 40.4605 76.1339 40.4605C73.865 40.4605 72.1003 39.7042 70.5877 38.4437C69.0751 37.1832 68.3188 35.1664 68.3188 32.3933ZM71.0919 32.3933C71.0919 34.4101 71.5961 35.9227 72.6045 36.9311C73.6129 37.9395 74.8734 38.4437 76.1339 38.4437C77.3944 38.4437 78.6549 37.9395 79.6633 36.9311C80.6717 35.9227 81.1759 34.4101 81.1759 32.3933C81.1759 30.3765 80.6717 28.8639 79.6633 27.8556C78.6549 26.8472 77.3944 26.343 76.1339 26.343C74.8734 26.343 73.6129 26.8472 72.6045 27.8556C71.5961 28.8639 71.0919 30.3765 71.0919 32.3933Z" fill="black"/>
<path d="M84.9573 35.6717L87.7304 35.1675C87.9825 36.1759 88.2346 37.1843 88.9909 37.6885C89.7471 38.1927 90.7555 38.4448 92.016 38.4448C93.2765 38.4448 94.2849 38.1927 94.7891 37.6885C95.5454 37.1843 95.7975 36.6801 95.7975 35.9238C95.7975 35.4196 95.5454 34.9154 95.0412 34.4112C94.537 34.1591 93.7807 33.907 92.016 33.4028C89.7472 32.8986 88.2346 32.3945 87.4783 32.1424C86.722 31.8903 86.2178 31.3861 85.7136 30.6298C85.2094 30.1256 85.2094 29.3693 85.2094 28.613C85.2094 27.3525 85.7136 26.092 86.9741 25.3357C87.9825 24.5794 89.7472 24.0752 91.7639 24.0752C93.0244 24.0752 94.0328 24.3273 95.0412 24.5794C96.0496 24.8315 96.8059 25.3357 97.3101 26.092C97.8143 26.8483 98.0664 27.6046 98.3185 28.613L95.5454 28.8651C95.2933 27.1004 94.0328 26.3441 91.7639 26.3441C90.5035 26.3441 89.4951 26.5962 88.9909 26.8483C88.4867 27.1004 87.9825 27.6046 87.9825 28.3609C87.9825 28.8651 88.2346 29.3693 88.7388 29.6214C88.9909 29.8735 89.9993 30.1256 91.7639 30.6298C94.0328 31.134 95.5454 31.6382 96.3017 31.8903C97.058 32.1424 97.5622 32.6466 97.8143 33.4028C98.3185 33.907 98.3185 34.6633 98.3185 35.4196C98.3185 36.9322 97.8143 38.1927 96.5538 39.2011C95.2933 40.2095 93.5286 40.7137 91.5118 40.7137C87.9825 40.9658 85.7136 39.2011 84.9573 35.6717Z" fill="black"/>
<path d="M101.596 40.4605V19.2842H104.369V31.3849L111.176 25.0824H114.957L108.403 30.8807L115.461 40.4605H111.932L106.386 32.6454L104.369 34.4101V40.4605H101.596Z" fill="black"/>
<path d="M131.344 19.0327V31.1334C131.344 33.1502 131.092 34.9149 130.839 36.1754C130.335 37.4359 129.579 38.4443 128.571 39.2006C127.562 39.9569 126.05 40.4611 124.285 40.4611C121.764 40.4611 119.999 39.7048 118.991 38.4443C117.73 37.1838 117.226 34.6628 117.226 31.1334V19.0327H119.747V31.1334C119.747 33.1502 119.999 34.4107 120.251 35.4191C120.503 36.1754 121.008 36.9317 121.764 37.4359C122.52 37.9401 123.276 38.1922 124.285 38.1922C126.05 38.1922 127.31 37.688 128.066 36.9317C128.823 35.9233 129.327 34.1586 129.327 31.3855V19.2848H131.344V19.0327Z" fill="black" stroke="white" stroke-width="0.15" stroke-miterlimit="10"/>
<path d="M132.856 35.4196L135.629 34.9154C135.881 35.9238 136.133 36.9322 136.89 37.4364C137.646 37.9406 138.654 38.1927 139.915 38.1927C141.175 38.1927 142.184 37.9406 142.688 37.4364C143.444 36.9322 143.696 36.428 143.696 35.6717C143.696 35.1675 143.444 34.6633 142.94 34.1591C142.436 33.907 141.679 33.6549 139.915 33.4028C137.646 32.8986 136.133 32.3945 135.377 32.1424C134.621 31.8903 134.116 31.3861 133.612 30.6298C133.108 30.1256 133.108 29.3693 133.108 28.613C133.108 27.3525 133.612 26.3441 134.873 25.3357C135.881 24.5794 137.646 24.0752 139.663 24.0752C140.923 24.0752 141.931 24.3273 142.94 24.5794C143.948 24.8315 144.705 25.3357 145.209 25.8399C145.713 26.3441 145.965 27.3525 146.217 28.3609L143.444 28.613C143.192 26.8483 141.931 26.092 139.663 26.092C138.402 26.092 137.394 26.3441 136.89 26.5962C136.385 26.8483 135.881 27.3525 135.881 28.1088C135.881 28.613 136.133 29.1172 136.637 29.3693C136.89 29.6214 137.898 29.8735 139.663 30.3777C141.931 30.8819 143.444 31.3861 144.2 31.6382C144.957 31.8903 145.461 32.3945 145.713 32.8987C146.217 33.4028 146.217 34.1591 146.217 34.9154C146.217 36.428 145.713 37.6885 144.452 38.4448C143.192 39.4532 141.427 39.7053 139.411 39.7053C135.881 40.4616 133.612 38.949 132.856 35.4196Z" fill="black"/>
<path d="M83.9489 40.4608H81.1758V33.9062L83.9489 33.1499V40.4608Z" fill="black"/>
<path d="M26.9745 29.8738H44.1173V15H27.4787C27.4787 15 22.4368 16.0084 22.4368 22.563C22.4368 28.8654 26.9745 29.8738 26.9745 29.8738Z" fill="#065AF7"/>
<path d="M39.8316 30.1261L22.6889 29.874L22.4368 44.7479L39.0753 45C39.0753 45 44.1173 43.9916 44.1173 37.6891C44.3694 31.1345 39.8316 30.1261 39.8316 30.1261Z" fill="#FFCF0F"/>
<path d="M22.4368 35.9242V15H0V36.4284C0 36.4284 1.51259 44.9997 11.0923 44.9997C20.9242 44.9997 22.4368 35.9242 22.4368 35.9242Z" fill="#FF0074"/>
</svg>
