<svg width="60" height="60" viewBox="0 0 60 60" fill="none" xmlns="http://www.w3.org/2000/svg">
<g clip-path="url(#clip0_178_12232)">
<path d="M30.0028 3.42092C22.6657 3.42092 16.021 6.39698 11.2102 11.2114C6.39762 16.0149 3.42339 22.6632 3.42339 30.004C3.42339 37.3392 6.39762 43.9829 11.2102 48.7882C16.021 53.5963 22.6657 56.5778 30.0028 56.5778C37.3417 56.5778 43.99 53.5963 48.7934 48.7882C53.6042 43.9829 56.572 37.3392 56.572 30.004C56.572 22.6632 53.6042 16.0149 48.7934 11.2114C43.99 6.39698 37.3417 3.42092 30.0028 3.42092ZM30.0028 0.200283C46.4586 0.200283 59.8009 13.5445 59.8009 30.004C59.8009 46.4579 46.4586 59.8003 30.0028 59.8003C13.5488 59.8003 0.200928 46.4579 0.200928 30.004C0.200928 13.5445 13.5488 0.200283 30.0028 0.200283Z" fill="#007DB8"/>
<path d="M15.909 29.7611C15.909 28.0244 14.7567 27.0379 13.1253 27.0379H12.1269V32.4862H13.0969C14.6138 32.4862 15.909 31.6618 15.909 29.7611ZM33.6692 31.7214L26.3138 37.5132L19.5913 32.2206C18.6213 34.5509 16.2772 36.1694 13.5778 36.1694H7.82446V23.3528H13.5778C16.5942 23.3528 18.7678 25.2709 19.5895 27.3145L26.3138 22.0274L28.8044 23.9876L22.6416 28.8314L23.8259 29.7584L29.9869 24.9174L32.4812 26.8721L26.3193 31.7214L27.5018 32.6502L33.6692 27.8V23.3528H38.1402V32.4285H42.6001V36.185H33.6692V31.7214ZM48.2637 32.4303H52.7219V36.185H43.7882V23.3528H48.2637V32.4303Z" fill="#007DB8"/>
</g>
<defs>
<clipPath id="clip0_178_12232">
<rect width="60" height="60" fill="white"/>
</clipPath>
</defs>
</svg>
