<svg width="43" height="43" viewBox="0 0 43 43" fill="none" xmlns="http://www.w3.org/2000/svg">
<g clip-path="url(#clip0_393_43475)">
<path opacity="0.9" d="M21.5042 43.0083C33.3806 43.0083 43.0083 33.3806 43.0083 21.5042C43.0083 9.62774 33.3806 0 21.5042 0C9.62774 0 0 9.62774 0 21.5042C0 33.3806 9.62774 43.0083 21.5042 43.0083Z" fill="#FDFFFE"/>
<path fill-rule="evenodd" clip-rule="evenodd" d="M39.7462 23.6845L3.254 19.3154C2.04731 29.3934 9.23755 38.5393 19.3155 39.746C29.3935 40.9527 38.5395 33.7625 39.7462 23.6845Z" fill="#009DD2"/>
<path fill-rule="evenodd" clip-rule="evenodd" d="M23.6845 3.25376C13.6065 2.04706 4.4606 9.23731 3.25391 19.3153L39.7377 23.6844C40.9444 13.6147 33.7542 4.46878 23.6762 3.26208L23.6845 3.25376Z" fill="#0069B2"/>
<path fill-rule="evenodd" clip-rule="evenodd" d="M10.0782 26.9218C9.53727 26.8552 9.14613 26.3642 9.21271 25.8232L9.35418 24.6082C9.42076 24.0673 9.91176 23.6762 10.4527 23.7427C10.9936 23.8093 11.3848 24.3003 11.3182 24.8412L11.1767 26.0563C11.1101 26.5972 10.6191 26.9883 10.0782 26.9218Z" fill="#0069B2"/>
<path fill-rule="evenodd" clip-rule="evenodd" d="M17.1103 27.5542C16.7441 27.5126 16.4778 27.1714 16.5194 26.8052L16.611 26.0479C16.6526 25.6734 16.9938 25.4154 17.3599 25.457C17.7261 25.4986 17.9924 25.8315 17.9508 26.206L17.8593 26.9633C17.8177 27.3295 17.4765 27.5958 17.1103 27.5542Z" fill="#0069B2"/>
<path fill-rule="evenodd" clip-rule="evenodd" d="M7.29014 16.1528C6.88236 16.1028 6.59941 15.7367 6.64102 15.3289L6.83243 13.6978C6.88236 13.29 7.24853 13.007 7.65631 13.057C8.06409 13.1069 8.34704 13.4731 8.2971 13.8725L8.1057 15.5037C8.05577 15.9031 7.6896 16.1944 7.28182 16.1445L7.29014 16.1528Z" fill="#009DD2"/>
<path fill-rule="evenodd" clip-rule="evenodd" d="M17.3682 33.23C17.6678 30.7334 15.8869 28.4698 13.3902 28.1702L13.0574 28.1286C10.5607 27.829 8.29715 29.6099 7.99756 32.1065L7.80615 33.7293C10.1114 36.3175 13.1572 38.2648 16.6525 39.2135L17.3682 33.2217V33.23Z" fill="#AFCEE1"/>
<path fill-rule="evenodd" clip-rule="evenodd" d="M30.5419 13.7063C29.9261 13.6314 29.4933 13.0821 29.5682 12.4663L29.9511 9.28728C30.026 8.67145 30.5835 8.2387 31.191 8.3136C31.8069 8.3885 32.2396 8.94607 32.1647 9.55358L31.7819 12.7326C31.707 13.3484 31.1494 13.7812 30.5419 13.7063Z" fill="#009DD2"/>
<path fill-rule="evenodd" clip-rule="evenodd" d="M18.8413 22.3279L18.9744 21.1961L13.0325 20.4888L12.8993 21.6206C12.6996 23.26 13.873 24.7497 15.5125 24.9494C17.1519 25.1491 18.6416 23.9757 18.8413 22.3363V22.3279Z" fill="#173C68"/>
<path fill-rule="evenodd" clip-rule="evenodd" d="M21.7371 24.3334L19.8896 39.7958C28.5196 40.5614 36.359 35.202 38.9638 27.2129C36.5504 27.0381 34.4033 28.7774 34.112 31.2075L34.0787 31.4738L33.9955 32.1395C33.8873 33.0716 33.0135 33.7457 32.0565 33.6292C31.0994 33.5127 30.4087 32.6638 30.5252 31.7234L30.6084 31.0577L31.2742 25.4736C31.399 24.425 31.1577 23.4263 30.6584 22.5941L23.0187 21.6787C22.3363 22.3694 21.862 23.2849 21.7371 24.3334Z" fill="#AFCEE1"/>
<path fill-rule="evenodd" clip-rule="evenodd" d="M19.9481 13.0656L19.9648 12.9324C20.0147 12.533 20.3892 12.2417 20.8053 12.2916C21.2214 12.3416 21.521 12.7077 21.4711 13.1155L21.4544 13.2487V13.3485C21.2297 15.1045 22.4864 16.7023 24.2423 16.9104C25.9983 17.1184 27.5961 15.8701 27.8041 14.1142L28.9276 4.70193C27.3048 3.97791 25.5405 3.48691 23.6847 3.26221C16.7608 2.43833 10.2862 5.56742 6.51636 10.8769C6.93246 11.8922 7.86453 12.6578 9.03794 12.7993C10.744 13.0073 12.3002 11.784 12.5082 10.0696L12.5249 9.9032C12.5831 9.4122 13.0242 9.071 13.5069 9.12925C13.9896 9.18751 14.3391 9.62858 14.2808 10.1113L14.2642 10.2777L13.0408 20.4805L18.9828 21.1879L19.9565 13.0573L19.9481 13.0656Z" fill="#173C68"/>
<path fill-rule="evenodd" clip-rule="evenodd" d="M27.3046 20.4139L26.8053 20.3557C25.3489 20.1809 23.9841 20.7135 23.0271 21.6789L30.6667 22.5943C29.9677 21.4292 28.761 20.5887 27.3046 20.4139Z" fill="#AFCEE1"/>
</g>
<defs>
<clipPath id="clip0_393_43475">
<rect width="43" height="43" fill="white"/>
</clipPath>
</defs>
</svg>
