<svg width="150" height="150" viewBox="0 0 150 150" fill="none" xmlns="http://www.w3.org/2000/svg">
<path fill-rule="evenodd" clip-rule="evenodd" d="M150 0H0V150H150V0ZM133.117 115.38C136.869 117.692 140.256 120.55 143.168 123.859C145.301 126.598 146.45 129.977 146.428 133.451C146.408 135.425 145.981 137.374 145.173 139.175C144.365 140.977 143.194 142.591 141.733 143.918C138.816 146.667 134.971 148.214 130.966 148.25C129.937 148.252 128.911 148.14 127.907 147.916C123.102 146.84 119.318 143.373 117.252 138.153C115.49 133.703 113.055 127.183 113.03 127.117L113.017 127.081L106.938 110.233C105.15 109.643 103.283 109.086 101.382 108.576L101.383 108.57C84.3542 104.439 66.4501 105.888 50.3048 112.703C34.1596 119.518 20.6256 131.34 11.6939 146.43C11.602 146.583 11.4989 146.729 11.3852 146.867C10.8816 147.554 10.147 148.036 9.31653 148.225C8.48602 148.413 7.61543 148.295 6.86485 147.893C6.11428 147.49 5.53418 146.829 5.23123 146.033C4.92828 145.236 4.92285 144.357 5.21593 143.556L52.7829 12.5294C53.4016 10.6767 54.2992 8.92942 55.4446 7.34786C56.5856 5.60284 58.1428 4.16973 59.9756 3.17788C61.8084 2.18603 63.8591 1.66667 65.9426 1.66667C68.0261 1.66667 70.0768 2.18603 71.9096 3.17788C73.7424 4.16973 75.2996 5.60284 76.4406 7.34786C77.5868 8.92959 78.4851 10.6772 79.1045 12.5302L112.452 104.655C119.743 107.392 126.681 110.993 133.117 115.38ZM19.5224 124.966C24.8863 119.638 30.9048 115.014 37.4332 111.206C57.5342 99.5361 81.3969 96.1976 103.924 101.903L72.3573 14.682C71.9317 13.5094 71.3494 12.3999 70.6263 11.3838C70.1373 10.5812 69.4505 9.91792 68.6317 9.4576C67.813 8.99727 66.8897 8.75538 65.9506 8.75513C65.0115 8.75488 64.0882 8.99628 63.2691 9.45617C62.4501 9.91606 61.7629 10.579 61.2736 11.3813C60.554 12.3983 59.9689 13.5042 59.5329 14.6715L19.5224 124.966ZM133.445 140.782C134.739 140.391 135.92 139.693 136.889 138.748C138.32 137.419 139.192 135.593 139.326 133.643C139.46 131.693 138.847 129.765 137.611 128.251C135.152 125.539 132.319 123.193 129.197 121.283C124.91 118.386 120.398 115.838 115.704 113.662L119.671 124.654C119.815 125.04 122.146 131.273 123.835 135.542C125.029 138.556 126.971 140.443 129.453 140.999C130.782 141.248 132.151 141.174 133.445 140.782Z" fill="white"/>
<path d="M82.0703 99.1811C58.6349 99.157 36.1447 108.429 19.5234 124.967L18.4671 127.851L11.7361 146.362C20.6753 131.292 34.2068 119.49 50.3429 112.687C66.479 105.885 84.369 104.442 101.385 108.571L101.383 108.576C103.284 109.086 105.151 109.643 106.938 110.233L103.925 101.903C96.7806 100.094 89.4396 99.1799 82.0703 99.1811V99.1811Z" fill="url(#paint0_linear)"/>
<path d="M143.17 123.859C140.258 120.55 136.871 117.693 133.12 115.38C126.683 110.993 119.745 107.392 112.454 104.655L115.704 113.662H115.706C120.399 115.838 124.911 118.386 129.199 121.283C132.321 123.193 135.154 125.539 137.613 128.252C138.739 129.72 139.35 131.519 139.35 133.371H146.43C146.434 129.925 145.286 126.577 143.17 123.859Z" fill="url(#paint1_linear)"/>
<defs>
<linearGradient id="paint0_linear" x1="11.7361" y1="122.772" x2="106.938" y2="122.772" gradientUnits="userSpaceOnUse">
<stop offset="0.2768" stop-color="white" stop-opacity="0"/>
<stop offset="0.7917" stop-color="#080506" stop-opacity="0.12"/>
<stop offset="0.905" stop-color="#080506" stop-opacity="0.23"/>
</linearGradient>
<linearGradient id="paint1_linear" x1="112.453" y1="119.013" x2="146.43" y2="119.013" gradientUnits="userSpaceOnUse">
<stop offset="0.1078" stop-color="#080506" stop-opacity="0.23"/>
<stop offset="0.2389" stop-color="#080506" stop-opacity="0.2"/>
<stop offset="0.8771" stop-color="white" stop-opacity="0"/>
</linearGradient>
</defs>
</svg>
