<?xml version="1.0" encoding="utf-8"?>
<!-- Generator: Adobe Illustrator 25.0.1, SVG Export Plug-In . SVG Version: 6.00 Build 0)  -->
<svg version="1.1" id="Layer_1" xmlns="http://www.w3.org/2000/svg" xmlns:xlink="http://www.w3.org/1999/xlink" x="0px" y="0px"
	 viewBox="0 0 961.3 974.8" style="enable-background:new 0 0 961.3 974.8;" xml:space="preserve">
<style type="text/css">
	.st0{fill:url(#SVGID_1_);}
	.st1{fill:url(#SVGID_2_);}
	.st2{fill:url(#SVGID_3_);}
</style>
<linearGradient id="SVGID_1_" gradientUnits="userSpaceOnUse" x1="84.5961" y1="484.9925" x2="872.4956" y2="484.9925">
	<stop  offset="0" style="stop-color:#FDDB00"/>
	<stop  offset="4.567214e-02" style="stop-color:#FBCC04"/>
	<stop  offset="0.1762" style="stop-color:#F7A80D"/>
	<stop  offset="0.3132" style="stop-color:#F48915"/>
	<stop  offset="0.4567" style="stop-color:#F1721B"/>
	<stop  offset="0.6093" style="stop-color:#EF6120"/>
	<stop  offset="0.7774" style="stop-color:#EE5722"/>
	<stop  offset="0.991" style="stop-color:#EE5423"/>
	<stop  offset="1" style="stop-color:#EE5423"/>
</linearGradient>
<path class="st0" d="M854.3,757c-14.7-18.6-37.6-35-56-47.2c-39.6-26.3-75.7-45.1-115.1-59.7L497.4,137.4c-1-3.3-5.5-16-14.8-28.8
	c-15.1-20.7-35.3-31.6-58.5-31.6c-23.2,0-43.4,10.9-58.5,31.6c-9.4,12.9-13.8,25.5-14.8,28.8l-265,729.2
	c-3.7,10.2,1.6,21.5,11.8,25.3c2.2,0.8,4.5,1.2,6.7,1.2c6.2,0,12.1-3,15.8-8c0.6-0.8,1.2-1.6,1.7-2.4
	c39.6-66.9,96.1-122.9,163.2-162c69.2-40.3,148.3-61.6,228.8-61.6c36.6,0,72.7,4.4,107.6,12.8l0,0c10.6,2.8,21,5.9,31,9.2l33.9,93.8
	l0.1,0.2c0.1,0.4,13.7,36.7,23.5,61.4c11.5,29.1,32.6,48.3,59.4,54.3c5.6,1.2,11.3,1.9,17,1.9c21.5,0,43.4-8.6,60-24.1
	c16.8-15.8,25.9-36,26.2-58.3C872.7,791.3,866.1,771.9,854.3,757z M265.3,686.6c-36.4,21.2-70,47-99.8,76.6l222.9-613.8
	c0.1-0.2,3.4-9.6,9.7-18.3c6.8-9.4,14.3-14.6,26-14.6c11.7,0,19.4,5.3,26.1,14.6c6.2,8.7,9.4,17.6,9.6,18.4l175.9,485.4
	c-39.4-10-80.3-15.2-121.8-15.2C426.5,619.6,340.5,642.8,265.3,686.6z M819.3,839.8c-11.6,10.9-27.4,15.6-41.4,12.5
	c-13.8-3.1-24.6-13.6-31.3-30.4c-9.4-23.8-22.4-58.4-23.2-60.6l-22.1-61.2c24.8,11.4,49.2,25.1,75.2,42.4
	c15.9,10.6,35.6,24.6,46.9,38.8C833.3,794,840.5,820,819.3,839.8z"/>
<g>
	<linearGradient id="SVGID_2_" gradientUnits="userSpaceOnUse" x1="122.1055" y1="750.9235" x2="652.4773" y2="750.9235">
		<stop  offset="0.2768" style="stop-color:#FFFFFF;stop-opacity:0"/>
		<stop  offset="0.3213" style="stop-color:#F7F7F7;stop-opacity:1.037020e-02"/>
		<stop  offset="0.3897" style="stop-color:#E2E2E2;stop-opacity:2.630101e-02"/>
		<stop  offset="0.4734" style="stop-color:#C0BFBF;stop-opacity:4.581008e-02"/>
		<stop  offset="0.5692" style="stop-color:#908E8F;stop-opacity:6.814124e-02"/>
		<stop  offset="0.6753" style="stop-color:#534F51;stop-opacity:9.286139e-02"/>
		<stop  offset="0.7884" style="stop-color:#090406;stop-opacity:0.1192"/>
		<stop  offset="0.7917" style="stop-color:#070204;stop-opacity:0.12"/>
		<stop  offset="0.905" style="stop-color:#070204;stop-opacity:0.23"/>
	</linearGradient>
	<path class="st1" d="M513.9,619.6c-87.5,0-173.5,23.1-248.7,66.9c-36.4,21.2-70,47-99.8,76.6l-5.9,16.1l-37.5,103
		c39.6-66.7,96-122.6,163-161.6c69.2-40.3,148.3-61.6,228.8-61.6c36.6,0,72.7,4.4,107.6,12.8l0,0c10.6,2.8,21,5.9,30.9,9.2
		l-16.8-46.4C596.3,624.8,555.4,619.6,513.9,619.6z"/>
</g>
<linearGradient id="SVGID_3_" gradientUnits="userSpaceOnUse" x1="683.2039" y1="730.0043" x2="872.4869" y2="730.0043">
	<stop  offset="0.1078" style="stop-color:#070204;stop-opacity:0.23"/>
	<stop  offset="0.2389" style="stop-color:#070204;stop-opacity:0.2"/>
	<stop  offset="0.3002" style="stop-color:#161113;stop-opacity:0.1808"/>
	<stop  offset="0.4191" style="stop-color:#3E3A3B;stop-opacity:0.1435"/>
	<stop  offset="0.5837" style="stop-color:#7E7B7C;stop-opacity:9.195407e-02"/>
	<stop  offset="0.7855" style="stop-color:#D5D4D5;stop-opacity:2.870855e-02"/>
	<stop  offset="0.8771" style="stop-color:#FFFFFF;stop-opacity:0"/>
</linearGradient>
<path class="st2" d="M854.3,757c-14.7-18.6-37.6-35-56-47.2c-39.6-26.3-75.7-45.1-115.1-59.7l18.1,50.1l0,0
	c24.8,11.4,49.2,25.1,75.2,42.4c15.9,10.6,35.6,24.6,46.9,38.8c5.3,6.7,9.8,17.2,9.7,28.5h39.4C872.6,791,866,771.8,854.3,757z"/>
</svg>
