<svg width="250" height="90" viewBox="0 0 250 90" fill="none" xmlns="http://www.w3.org/2000/svg">
<path fill-rule="evenodd" clip-rule="evenodd" d="M0 0H250V90H0V0ZM83.9008 74.3152C82.1535 72.3299 80.1212 70.6154 77.8705 69.228C74.0086 66.5955 69.846 64.4352 65.4713 62.7929L45.4627 7.51812C45.0911 6.40629 44.5521 5.35775 43.8644 4.40871C43.1798 3.36171 42.2454 2.50184 41.1458 1.90673C40.0461 1.31162 38.8157 1 37.5656 1C36.3155 1 35.0851 1.31162 33.9854 1.90673C32.8857 2.50184 31.9514 3.36171 31.2668 4.40871C30.5795 5.35765 30.041 6.40604 29.6697 7.51765L1.12956 86.1338C0.953708 86.614 0.956968 87.1417 1.13874 87.6197C1.32051 88.0977 1.66857 88.4939 2.11891 88.7356C2.56926 88.9772 3.09161 89.048 3.58992 88.9349C4.08823 88.8217 4.52899 88.5324 4.83115 88.1199C4.89933 88.0373 4.96123 87.9498 5.01631 87.8579C10.3754 78.8041 18.4957 71.7108 28.1829 67.6217C37.8701 63.5326 48.6125 62.6635 58.83 65.1423L58.8291 65.1455C59.9699 65.4517 61.0902 65.7861 62.1626 66.14L65.8103 76.2484L65.8181 76.2703L65.8185 76.2713C65.8492 76.3536 67.3002 80.237 68.351 82.8918C69.5907 86.0239 71.8611 88.1042 74.744 88.7497C75.3466 88.8837 75.9621 88.9509 76.5793 88.9501C78.9828 88.9283 81.2898 88.0001 83.0397 86.3508C83.9163 85.5548 84.6191 84.586 85.1039 83.5053C85.5886 82.4245 85.845 81.2551 85.8568 80.0705C85.8699 77.9864 85.1808 75.9588 83.9008 74.3152ZM20.4599 66.7233C16.5429 69.0086 12.9318 71.7828 9.71344 74.9794L33.7197 8.80288C33.9813 8.1025 34.3324 7.43895 34.7642 6.82878C35.0578 6.34739 35.4701 5.94964 35.9615 5.6737C36.4529 5.39777 37.0069 5.25293 37.5704 5.25308C38.1338 5.25323 38.6878 5.39836 39.179 5.67456C39.6703 5.95075 40.0824 6.34873 40.3758 6.83027C40.8096 7.43997 41.159 8.10567 41.4144 8.80923L60.3543 61.1419C46.8382 57.7185 32.5205 59.7217 20.4599 66.7233ZM80.1331 83.249C79.5522 83.8158 78.8436 84.2343 78.0671 84.4693C77.2906 84.7043 76.469 84.7489 75.6717 84.5993C74.1826 84.2658 73.0172 83.1337 72.3013 81.3252C71.2875 78.7639 69.8888 75.0241 69.8026 74.7924L67.4225 68.1974C70.2386 69.5029 72.9459 71.0319 75.5183 72.7696C77.3913 73.9157 79.0912 75.3236 80.5664 76.9509C81.308 77.8589 81.676 79.0157 81.5955 80.1858C81.515 81.3559 80.9921 82.4513 80.1331 83.249ZM154.88 71.0042C156.16 70.9526 157.413 71.3801 158.395 72.2033L157.543 73.4829C156.83 72.9062 155.943 72.587 155.026 72.5771C154.593 72.5503 154.158 72.616 153.752 72.7699C153.346 72.9239 152.977 73.1625 152.67 73.47C152.363 73.7775 152.124 74.1468 151.97 74.5535C151.817 74.9602 151.751 75.395 151.778 75.829C151.747 76.2635 151.806 76.6997 151.952 77.1101C152.098 77.5206 152.326 77.8965 152.624 78.2144C152.921 78.5322 153.281 78.785 153.681 78.9571C154.081 79.1292 154.512 79.2167 154.947 79.2142C155.832 79.1919 156.677 78.8403 157.317 78.228V77.121H155.865V75.642H158.861V80.6266H157.397V80.1734C157.397 79.9735 157.41 79.7735 157.41 79.7735H157.383C156.629 80.4449 155.649 80.8066 154.64 80.7864C154.009 80.7846 153.385 80.6545 152.806 80.4039C152.227 80.1533 151.705 79.7875 151.272 79.3287C150.839 78.87 150.503 78.3278 150.286 77.7352C150.068 77.1426 149.973 76.5119 150.007 75.8814C149.992 75.2369 150.109 74.5962 150.349 73.998C150.589 73.3998 150.947 72.8564 151.403 72.4006C151.858 71.9448 152.401 71.5861 152.999 71.3461C153.596 71.1061 154.236 70.9898 154.88 71.0042ZM163.722 73.6695C164.418 73.7026 165.089 73.9395 165.652 74.3508C166.215 74.7621 166.644 75.3297 166.888 75.9833C167.131 76.6368 167.178 77.3475 167.022 78.0272C166.865 78.7069 166.513 79.3258 166.009 79.8071C165.505 80.2884 164.87 80.611 164.185 80.7347C163.499 80.8585 162.792 80.7781 162.151 80.5034C161.511 80.2288 160.965 79.772 160.581 79.1897C160.198 78.6074 159.993 77.9252 159.994 77.2277C159.996 76.7462 160.095 76.2701 160.285 75.8279C160.476 75.3857 160.753 74.9866 161.101 74.6543C161.449 74.3221 161.861 74.0636 162.311 73.8944C162.762 73.7252 163.241 73.6487 163.722 73.6695ZM163.735 79.3471C164.158 79.3661 164.576 79.258 164.937 79.0367C165.298 78.8154 165.584 78.491 165.759 78.1054C165.934 77.7197 165.99 77.2904 165.919 76.8728C165.848 76.4552 165.654 76.0684 165.362 75.7622C165.069 75.4561 164.692 75.2445 164.279 75.1549C163.865 75.0652 163.434 75.1015 163.041 75.2592C162.649 75.4168 162.312 75.6886 162.075 76.0394C161.838 76.3902 161.711 76.8041 161.711 77.2277C161.698 77.5017 161.74 77.7756 161.836 78.0326C161.932 78.2897 162.079 78.5245 162.268 78.7228C162.457 78.9211 162.685 79.0788 162.937 79.1861C163.19 79.2934 163.461 79.3482 163.735 79.3471ZM173.749 71.1641H172.057V80.6265H173.655V80.2399C173.656 80.0841 173.647 79.9284 173.628 79.7736H173.655C173.883 80.0962 174.187 80.3575 174.54 80.5342C174.893 80.7109 175.285 80.7976 175.679 80.7865C177.477 80.7865 178.795 79.3869 178.795 77.2276C178.795 75.1219 177.623 73.6694 175.786 73.6694C175.391 73.6527 174.999 73.734 174.643 73.906C174.288 74.0781 173.98 74.3357 173.749 74.6556H173.722C173.74 74.4653 173.749 74.2741 173.749 74.0829V71.1641ZM177.091 77.2544C177.091 78.6005 176.318 79.3601 175.386 79.3601C174.254 79.3601 173.695 78.321 173.695 77.268C173.695 75.7619 174.521 75.1218 175.399 75.1218C176.398 75.1218 177.091 75.9619 177.091 77.2544ZM183.162 73.6695C185.12 73.6695 186.171 75.0953 186.171 76.8946C186.171 77.0945 186.132 77.5478 186.132 77.5478H181.445C181.48 78.0557 181.713 78.5296 182.094 78.8665C182.475 79.2034 182.974 79.3761 183.482 79.3471C184.197 79.3138 184.883 79.0522 185.439 78.6006L186.091 79.8134C185.324 80.4485 184.358 80.7931 183.362 80.7866C182.885 80.8099 182.408 80.7345 181.961 80.5651C181.514 80.3957 181.106 80.136 180.764 79.8021C180.422 79.4682 180.152 79.0673 179.971 78.6243C179.791 78.1814 179.703 77.706 179.714 77.2277C179.686 76.7623 179.756 76.2961 179.918 75.8589C180.08 75.4218 180.331 75.0232 180.655 74.6885C180.98 74.3538 181.37 74.0904 181.802 73.9149C182.233 73.7395 182.697 73.6559 183.162 73.6695ZM184.467 76.3885C184.481 76.205 184.457 76.0206 184.395 75.8473C184.334 75.6739 184.236 75.5154 184.109 75.3822C183.983 75.249 183.829 75.1439 183.659 75.0739C183.489 75.0039 183.306 74.9705 183.123 74.9758C182.724 74.9625 182.334 75.1008 182.033 75.3628C181.732 75.6249 181.54 75.9913 181.498 76.3885H184.467ZM195.292 80.3333C195.292 81.5462 194.414 81.9857 193.375 81.9857C192.726 81.9745 192.086 81.8246 191.498 81.546L190.992 82.8384C191.739 83.2182 192.564 83.419 193.402 83.425C195.173 83.425 196.984 82.546 196.984 80.2129V73.8293H195.399V74.3492C195.399 74.4114 195.404 74.4736 195.412 74.5352H195.373C195.135 74.2356 194.827 73.9996 194.476 73.8484C194.125 73.6973 193.742 73.6357 193.362 73.6692C191.405 73.6692 190.353 75.1884 190.353 77.0544C190.353 78.9204 191.458 80.4931 193.402 80.4931C193.771 80.5224 194.14 80.4526 194.472 80.2909C194.805 80.1293 195.088 79.8816 195.292 79.5735H195.319C195.304 79.6929 195.295 79.8131 195.292 79.9334V80.3333ZM193.655 75.1089C194.573 75.1089 195.333 75.5217 195.333 77.0684C195.333 78.6006 194.573 79.0669 193.762 79.0669C192.669 79.0669 192.057 78.1878 192.057 77.001C192.057 75.8555 192.63 75.1089 193.655 75.1089ZM198.848 73.8294H200.472V75.0025C200.472 75.1626 200.463 75.3226 200.446 75.4818H200.472C200.598 74.9983 200.876 74.568 201.264 74.2539C201.652 73.9397 202.131 73.7582 202.629 73.736C202.732 73.7368 202.834 73.7457 202.935 73.7628V75.4289C202.803 75.4108 202.67 75.4019 202.536 75.4022C202.114 75.4034 201.704 75.5437 201.369 75.8013C201.035 76.059 200.794 76.4197 200.685 76.8279C200.58 77.187 200.53 77.5602 200.539 77.9343V80.6265H198.847L198.848 73.8294ZM210.059 76.8947C210.059 75.0953 209.007 73.6695 207.05 73.6695C206.584 73.6559 206.121 73.7394 205.689 73.9148C205.258 74.0902 204.867 74.3536 204.543 74.6883C204.218 75.023 203.967 75.4217 203.805 75.8589C203.643 76.2961 203.574 76.7622 203.601 77.2277C203.59 77.706 203.678 78.1814 203.858 78.6244C204.039 79.0673 204.309 79.4682 204.651 79.8021C204.994 80.136 205.401 80.3958 205.848 80.5652C206.295 80.7346 206.772 80.81 207.249 80.7866C208.245 80.7931 209.211 80.4486 209.979 79.8135L209.327 78.6007C208.771 79.0522 208.085 79.3137 207.369 79.3472C206.861 79.3761 206.363 79.2034 205.981 78.8665C205.6 78.5296 205.367 78.0558 205.332 77.5478H210.019C210.019 77.5478 210.059 77.0945 210.059 76.8947ZM208.283 75.8473C208.345 76.0206 208.369 76.2051 208.355 76.3885H205.385C205.428 75.9913 205.619 75.6249 205.921 75.3629C206.222 75.1008 206.611 74.9626 207.01 74.9758C207.194 74.9705 207.377 75.0039 207.547 75.0739C207.717 75.1439 207.87 75.249 207.997 75.3822C208.124 75.5154 208.221 75.6739 208.283 75.8473ZM214.906 76.3616H215.133V76.2681C215.133 75.3754 214.573 75.0691 213.828 75.0691C213.158 75.1103 212.513 75.3364 211.964 75.7222L211.324 74.5093C212.103 73.9587 213.034 73.665 213.987 73.6694C215.771 73.6694 216.81 74.6556 216.81 76.3744V80.6263H215.252V80.0666C215.252 79.9062 215.261 79.7459 215.278 79.5865H215.252C215.06 79.9643 214.763 80.2785 214.397 80.4913C214.031 80.7042 213.611 80.8066 213.188 80.7862C212.895 80.8095 212.601 80.7721 212.323 80.6762C212.046 80.5804 211.791 80.4283 211.575 80.2293C211.358 80.0304 211.186 79.7889 211.067 79.5201C210.948 79.2512 210.886 78.9607 210.885 78.6667C210.885 76.5078 213.801 76.3616 214.906 76.3616ZM213.614 79.4672C214.046 79.414 214.442 79.2013 214.726 78.8709C215.009 78.5405 215.159 78.1161 215.146 77.6808V77.5207H214.853C213.988 77.5207 212.589 77.6409 212.589 78.5871C212.592 78.7147 212.621 78.8403 212.676 78.9557C212.73 79.0712 212.808 79.1738 212.905 79.2569C213.002 79.34 213.115 79.4016 213.237 79.4379C213.359 79.4741 213.488 79.4841 213.614 79.4672ZM217.943 75.2821H218.821L218.821 78.1343C218.821 80.413 220.699 80.6933 221.643 80.6933C221.817 80.6955 221.991 80.6821 222.163 80.6534V79.1741C222.062 79.1933 221.959 79.2022 221.857 79.2009C221.681 79.2217 221.503 79.2034 221.334 79.1474C221.166 79.0914 221.013 78.9991 220.884 78.8769C220.756 78.7548 220.656 78.6059 220.592 78.4407C220.527 78.2756 220.5 78.0983 220.512 77.9214V75.2821H222.056V73.936H220.512V71.9766H218.861V73.936H217.943V75.2821ZM223.482 78.9335H225.173V80.6264H223.482V78.9335Z" fill="white"/>
<path d="M47.2422 59.5087C33.1809 59.4942 19.6868 65.0573 9.71401 74.9799L9.08026 76.7108L5.04163 87.8172C10.4051 78.7754 18.5241 71.6937 28.2057 67.6125C37.8874 63.5312 48.6214 62.6654 58.8309 65.1425L58.8301 65.1456C59.9706 65.4518 61.0907 65.786 62.163 66.1399L60.355 61.1418C56.0683 60.0565 51.6638 59.508 47.2422 59.5087V59.5087Z" fill="url(#paint0_linear)"/>
<path d="M83.9022 74.3155C82.1549 72.3301 80.1225 70.6156 77.8718 69.2282C74.0098 66.5957 69.8471 64.4353 65.4723 62.793L67.4227 68.1973H67.4234C70.2396 69.5028 72.9469 71.0318 75.5194 72.7696C77.3924 73.9157 79.0923 75.3237 80.5676 76.9509C81.2437 77.8318 81.6102 78.9115 81.6101 80.0224H85.8581C85.8603 77.9549 85.1718 75.9462 83.9022 74.3155Z" fill="url(#paint1_linear)"/>
<path d="M86.6966 34.618H84.4324L82.2493 29.6862H72.1024L69.8918 34.618H67.7347L76.2301 15.8237H78.2014L86.6966 34.618ZM77.1893 18.3033L72.9282 27.8201H81.4235L77.1893 18.3033Z" fill="#333333"/>
<path d="M103.11 26.647C103.133 27.87 102.944 29.0878 102.55 30.2459C102.216 31.2132 101.676 32.096 100.966 32.8324C100.276 33.5291 99.4387 34.0619 98.5157 34.3913C97.4934 34.7501 96.416 34.9261 95.3328 34.9112C94.2586 34.9248 93.1905 34.7488 92.1774 34.3913C91.2564 34.0636 90.4194 33.5356 89.7265 32.8454C89.019 32.1227 88.4783 31.2537 88.1424 30.2994C87.7517 29.1774 87.5624 27.9951 87.5832 26.8071V15.9572H89.6868V26.6739C89.5736 28.3644 90.1121 30.034 91.1914 31.3392C92.3224 32.3716 93.7939 32.9505 95.3245 32.9652C96.855 32.9799 98.3373 32.4293 99.4879 31.4188C100.5 30.3882 101.006 28.8509 101.006 26.807V15.9572H103.11V26.647Z" fill="#333333"/>
<path d="M113.521 34.618H111.418V17.9037H105.159V15.9572H119.78V17.9037H113.522L113.521 34.618Z" fill="#333333"/>
<path d="M138.472 28.9534C138.025 30.094 137.365 31.1389 136.528 32.0323C135.676 32.9333 134.653 33.6541 133.518 34.1518C132.29 34.6686 130.971 34.9359 129.638 34.9381C128.305 34.9403 126.986 34.6775 125.755 34.1648C124.632 33.6777 123.617 32.9703 122.771 32.0843C121.924 31.1984 121.264 30.1518 120.828 29.0063C120.373 27.829 120.142 26.5765 120.149 25.3141C120.143 24.0504 120.378 22.7971 120.842 21.6219C121.289 20.4814 121.949 19.4366 122.786 18.5431C123.638 17.6427 124.661 16.9221 125.795 16.4236C127.024 15.9068 128.343 15.6395 129.675 15.6372C131.008 15.635 132.328 15.8979 133.558 16.4106C134.682 16.8977 135.697 17.6051 136.543 18.4911C137.389 19.377 138.049 20.4236 138.485 21.5691C138.941 22.7464 139.171 23.9988 139.164 25.2612C139.171 26.5249 138.936 27.7781 138.472 28.9534ZM136.434 22.3018C136.095 21.3957 135.578 20.5661 134.915 19.8615C134.252 19.1568 133.456 18.591 132.573 18.197C131.648 17.782 130.644 17.5728 129.63 17.5837C128.618 17.5727 127.615 17.7771 126.687 18.1832C125.815 18.5655 125.031 19.1235 124.383 19.8225C123.734 20.534 123.223 21.3616 122.879 22.262C122.511 23.2186 122.326 24.2361 122.333 25.2612C122.326 26.2906 122.512 27.3121 122.879 28.2735C123.22 29.1795 123.736 30.0089 124.399 30.7137C125.062 31.4185 125.858 31.9846 126.741 32.3792C127.666 32.7939 128.67 33.0029 129.684 32.9917C130.697 33.0025 131.7 32.7982 132.627 32.3922C133.499 32.0099 134.283 31.4518 134.93 30.7529C135.58 30.0418 136.091 29.2141 136.435 28.3133C136.803 27.3568 136.988 26.3393 136.981 25.3141C136.987 24.2847 136.802 23.2632 136.434 22.3018V22.3018Z" fill="#333333"/>
<path d="M151.112 29.5H151.005L144.214 19.5291V34.6179H142.163V15.957H144.294L151.085 26.1407L157.876 15.957H160.007V34.6179H157.902V19.5031L151.112 29.5Z" fill="#333333"/>
<path d="M181.045 34.618H178.781L176.598 29.6862H166.451L164.24 34.618H162.083L170.578 15.8237H172.55L181.045 34.618ZM171.538 18.3033L167.277 27.8201H175.772L171.538 18.3033Z" fill="#333333"/>
<path d="M187.598 34.618H185.494V17.9037H179.236V15.9572H193.856V17.9037H187.598L187.598 34.618Z" fill="#333333"/>
<path d="M198.267 15.9572V34.6182H196.162V15.9572H198.267Z" fill="#333333"/>
<path d="M219.764 28.9534C219.317 30.094 218.657 31.1389 217.819 32.0323C216.968 32.9333 215.945 33.6541 214.81 34.1518C213.581 34.6686 212.262 34.9359 210.93 34.9381C209.597 34.9403 208.277 34.6775 207.047 34.1648C205.923 33.6777 204.908 32.9703 204.062 32.0843C203.216 31.1984 202.555 30.1518 202.12 29.0063C201.664 27.829 201.434 26.5765 201.44 25.3141C201.434 24.0504 201.669 22.7971 202.134 21.6219C202.58 20.4814 203.24 19.4365 204.077 18.5431C204.929 17.6427 205.952 16.9221 207.086 16.4236C208.315 15.9068 209.634 15.6395 210.967 15.6372C212.3 15.635 213.619 15.8979 214.85 16.4106C215.973 16.8977 216.988 17.6051 217.834 18.4911C218.681 19.377 219.341 20.4236 219.777 21.5691C220.232 22.7464 220.462 23.9988 220.456 25.2612C220.462 26.5249 220.227 27.7781 219.764 28.9534V28.9534ZM217.726 22.3018C217.386 21.3957 216.87 20.5661 216.207 19.8615C215.544 19.1568 214.748 18.591 213.864 18.197C212.939 17.782 211.935 17.5728 210.922 17.5837C209.909 17.5727 208.906 17.7771 207.979 18.1832C207.107 18.5655 206.322 19.1235 205.675 19.8225C205.025 20.5339 204.515 21.3615 204.17 22.262C203.802 23.2186 203.617 24.236 203.624 25.2612C203.618 26.2906 203.803 27.3122 204.17 28.2735C204.511 29.1795 205.027 30.0089 205.69 30.7137C206.353 31.4185 207.149 31.9846 208.032 32.3792C208.957 32.7939 209.962 33.0029 210.976 32.9917C211.988 33.0025 212.991 32.7982 213.918 32.3922C214.79 32.0098 215.574 31.4518 216.221 30.7529C216.872 30.0418 217.382 29.2141 217.726 28.3133C218.094 27.3567 218.279 26.3393 218.272 25.3141C218.279 24.2848 218.093 23.2632 217.726 22.3018V22.3018Z" fill="#333333"/>
<path d="M237.169 15.9571H239.22V34.6181H237.542L225.505 19.3163V34.6179H223.454V15.957H225.424L237.169 30.9126V15.9571Z" fill="#333333"/>
<path d="M92.6337 44.05H96.4155L104.405 62.8448H100.118L98.4124 58.6595H90.5301L88.8258 62.8448H84.6447L92.6337 44.05ZM96.9486 55.0339L94.4717 48.9819L91.9948 55.0339H96.9486Z" fill="#333333"/>
<path d="M105.713 44.1839H109.494L118.229 55.6732V44.1839H122.277V62.8448H118.789L109.761 50.9818V62.8448H105.713V44.1839Z" fill="#333333"/>
<path d="M130.58 55.4871L123.417 44.1839H128.21L132.658 51.6747L137.185 44.1839H141.845L134.681 55.4067V62.8447H130.58L130.58 55.4871Z" fill="#333333"/>
<path d="M142.306 44.1841H146.7L150.561 56.8196L154.743 44.1306H158.258L162.439 56.8196L166.301 44.1841H170.589L164.224 62.9783H160.655L156.448 50.7686L152.24 62.9783H148.671L142.306 44.1841Z" fill="#333333"/>
<path d="M171.96 44.1839H176.06V51.5683H183.624V44.1839H187.726V62.8448H183.624V55.3531H176.06V62.8447H171.96V44.1839Z" fill="#333333"/>
<path d="M190.964 44.1839H204.999V47.8355H195.012V51.6211H203.8V55.2735H195.012V59.1923H205.132V62.8447H190.964V44.1839Z" fill="#333333"/>
<path d="M207.675 44.1839H216.197C218.558 44.1839 220.369 44.8146 221.63 46.0759C222.172 46.641 222.593 47.3106 222.868 48.0439C223.142 48.7773 223.265 49.559 223.228 50.3413V50.3949C223.286 51.7153 222.897 53.0166 222.122 54.0871C221.377 55.0445 220.375 55.7701 219.233 56.1797L223.787 62.8444H218.993L214.998 56.8727H211.776V62.8444H207.675V44.1839ZM215.931 53.2478C216.77 53.3041 217.6 53.0477 218.261 52.528C218.53 52.2881 218.742 51.9915 218.883 51.6596C219.023 51.3276 219.088 50.9686 219.073 50.6084V50.5556C219.1 50.1785 219.037 49.8004 218.888 49.4527C218.74 49.1049 218.512 48.7974 218.221 48.5556C217.528 48.0738 216.693 47.8391 215.851 47.8891H211.776V53.2475L215.931 53.2478Z" fill="#333333"/>
<path d="M225.64 44.1839H239.675V47.8355H229.688V51.6211H238.477V55.2735H229.688V59.1923H239.808V62.8447H225.64V44.1839Z" fill="#333333"/>
<path d="M243.309 14.8394H242.098V14.4088H245.014V14.8394H243.804V17.9437H243.309V14.8394Z" fill="#BABCBE"/>
<path d="M245.694 14.4088H246.214L247.024 16.3212C247.105 16.5165 247.2 16.7969 247.2 16.7969H247.21C247.21 16.7969 247.305 16.5165 247.385 16.3212L248.195 14.4088H248.715L249 17.9433H248.51L248.335 15.7156C248.32 15.5003 248.33 15.1948 248.33 15.1948H248.32C248.32 15.1948 248.215 15.5204 248.13 15.7156L247.425 17.3073H246.985L246.285 15.7156C246.204 15.5253 246.095 15.1849 246.095 15.1849H246.084C246.084 15.1849 246.09 15.5003 246.074 15.7156L245.904 17.9433H245.409L245.694 14.4088Z" fill="#BABCBE"/>
<defs>
<linearGradient id="paint0_linear" x1="5.04163" y1="73.663" x2="62.1627" y2="73.663" gradientUnits="userSpaceOnUse">
<stop offset="0.2768" stop-color="white" stop-opacity="0"/>
<stop offset="0.7917" stop-color="#080506" stop-opacity="0.12"/>
<stop offset="0.905" stop-color="#080506" stop-opacity="0.23"/>
</linearGradient>
<linearGradient id="paint1_linear" x1="65.4721" y1="71.4078" x2="85.8583" y2="71.4078" gradientUnits="userSpaceOnUse">
<stop offset="0.1078" stop-color="#080506" stop-opacity="0.23"/>
<stop offset="0.2389" stop-color="#080506" stop-opacity="0.2"/>
<stop offset="0.8771" stop-color="white" stop-opacity="0"/>
</linearGradient>
</defs>
</svg>
