<svg width="1280" height="720" viewBox="0 0 1280 720" fill="none" xmlns="http://www.w3.org/2000/svg">
<g clip-path="url(#clip0)">
<path d="M-8.63277 767.584C-5.29723 777.523 -0.935445 787.359 6.07452 794.967C13.0845 802.575 23.1307 807.705 33.0458 806.485C45.5451 804.949 55.1769 793.775 59.5833 781.476C63.9931 769.184 64.2697 755.704 65.2905 742.56C67.198 718.244 71.8559 694.223 79.1476 671.144C82.0958 661.81 85.498 652.515 86.3982 642.694C88.7853 616.735 85.0799 591.867 63.738 577.931C56.3042 573.077 35.5196 568.769 26.8346 568.782C7.24943 568.82 -7.45894 588.311 -12.0244 608.167C-17.4159 631.606 -14.5634 656.769 -15.9265 680.763C-17.6202 710.66 -18.3488 738.638 -8.63277 767.584Z" stroke="#EEEEEE" stroke-width="1.3206" stroke-miterlimit="10"/>
<path d="M-17.752 790.015C-13.7136 802.085 -8.83799 808.396 -0.28018 817.611C8.27763 826.827 27.8331 829.234 40.0159 827.692C55.3741 825.748 70.4669 808.093 75.9422 793.112C81.4175 778.131 81.8361 761.745 83.1706 745.758C85.6448 716.178 90.1446 693.19 99.2174 665.092C102.89 653.729 105.637 640.34 106.795 628.392C109.868 596.808 90.2081 576.839 64.0939 560.011C55.0009 554.156 37.5642 547.992 26.9005 548.064C2.86283 548.226 -15.2979 572.016 -21.0199 596.19C-27.7682 624.721 -24.4106 655.315 -26.2233 684.498C-28.4704 720.847 -29.518 754.875 -17.752 790.015Z" stroke="#EEEEEE" stroke-width="1.3206" stroke-miterlimit="10"/>
<path d="M-21.7465 799.502C-17.7044 814.153 -18.285 820.661 -8.08256 831.636C2.11987 842.612 25.419 845.487 39.9393 843.652C58.2402 841.337 76.2303 820.292 82.7537 802.445C89.2772 784.599 89.777 765.062 91.3669 746.013C94.3183 710.761 97.275 705.895 108.092 672.401C112.466 658.86 115.743 642.905 117.124 628.67C120.789 591.032 97.3585 567.234 66.2368 547.184C55.4043 540.207 34.6212 532.862 21.9168 532.945C-6.73313 533.136 -28.368 561.485 -35.1852 590.294C-43.2247 624.293 -37.2085 656.916 -36.8125 691.491C-36.3284 734.425 -34.0982 754.734 -21.7465 799.502Z" stroke="#EEEEEE" stroke-width="1.3206" stroke-miterlimit="10"/>
<path d="M-33.8002 795.269C-31.0783 812.903 -23.7 827.643 -12.0122 840.605C2.72853 856.951 34.0727 854.12 50.711 848.634C71.4156 841.811 86.2711 827.378 93.8787 806.575C101.486 785.772 98.5894 778.401 100.446 756.187C103.882 715.099 107.333 709.421 119.946 670.383C125.042 654.596 132.99 635.49 130.476 619.404C124.522 581.252 111.761 563.652 75.4828 540.286C62.8553 532.151 30.6492 523.066 15.836 523.171C-17.5617 523.395 -35.398 546.009 -43.3412 579.587C-52.7146 619.223 -48.0323 653.317 -45.197 693.303C-41.523 745.249 -41.523 745.249 -33.8002 795.269Z" stroke="#EEEEEE" stroke-width="1.3206" stroke-miterlimit="10"/>
<path d="M-44.7793 793.817C-41.6525 814.059 -29.5883 838.8 -16.1664 853.678C0.760572 872.441 47.1798 863.291 66.2879 857C90.0586 849.169 101.557 843.047 110.286 819.163C119.023 795.275 107.485 792.811 109.621 767.313C113.569 720.14 117.526 713.619 132.003 668.793C137.854 650.663 149.02 628.162 144.095 610.26C132.911 569.597 122.644 559.946 80.9951 533.117C66.4927 523.777 27.4485 505.147 10.4412 505.269C-27.8999 505.523 -38.1584 517.448 -47.279 556.001C-58.0424 601.505 -60.8559 649.199 -57.604 695.106C-53.3795 754.753 -53.6457 736.394 -44.7793 793.817Z" stroke="#EEEEEE" stroke-width="1.3206" stroke-miterlimit="10"/>
<path d="M53.3422 757.197C55.6551 751.314 55.2228 734.51 55.6422 728.441C56.1249 721.475 58.0844 714.531 60.0304 707.65C62.3829 699.341 64.732 691.025 67.0845 682.716C72.1631 664.767 79.8652 641.501 74.9548 624.504C70.0443 607.506 47.381 580.746 28.2724 586.714C15.7065 590.641 5.67337 608.295 1.5185 619.956C-5.94672 640.928 -0.0783029 675.426 0.0196216 696.39C0.0958141 714.112 7.63523 734.582 7.46972 752.211C7.12079 789.721 39.8727 791.444 53.3422 757.197Z" stroke="#EEEEEE" stroke-width="1.3206" stroke-miterlimit="10"/>
<path d="M53.4978 666.196C55.4715 661.836 56.6601 651.18 57.0631 646.58C57.8057 638.116 57.5974 629.488 53.7577 622.184C50.5172 616.023 49.0711 612.7 41.5941 612.106C35.5792 611.631 29.0119 612.999 25.7221 618.077C14.8683 634.854 14.3345 673.025 21.4531 690.427C32.4191 717.203 47.9777 678.39 53.4978 666.196Z" stroke="#EEEEEE" stroke-width="1.3206" stroke-miterlimit="10"/>
<path d="M39.0011 872.206C58.9507 867.887 78.7719 862.658 98.374 856.556C106.807 853.928 115.361 851.068 122.705 846.111C125.488 844.232 128.11 842.024 129.921 839.315C135.915 830.347 131.298 819.818 128.304 810.471C122.769 793.174 123.531 774.181 124.344 755.556C124.875 743.285 125.586 730.575 127.144 718.276C129.106 702.845 133.485 687.436 140.097 672.693C144.827 662.149 151.203 650.917 154.488 640.037C157.765 629.159 159.443 617.735 156.801 607.302C152.969 592.162 142.552 578.537 132.597 566.521C110.117 539.384 80.2206 517.902 46.1924 503.71C41.3576 501.698 36.472 499.623 31.6404 497.617C21.7046 493.488 11.6492 489.323 0.671503 487.66C-10.3061 485.997 -22.4863 487.062 -32.6574 492.774C-38.8667 496.266 -44.1101 501.399 -47.5072 507.324C-54.279 519.147 -55.7775 531.973 -57.832 544.811C-59.6782 556.355 -61.4675 567.902 -63.1927 579.448C-68.5869 615.539 -69.8059 653.078 -66.3369 688.483C-61.5048 737.741 -56.3277 788.008 -39.5994 833.846C-34.675 847.349 -23.2881 859.602 -9.81351 866.162C3.66435 872.728 23.159 875.643 39.0011 872.206Z" stroke="#EEEEEE" stroke-width="1.3206" stroke-miterlimit="10"/>
<path d="M32.8588 483.264C22.0955 477.333 11.2624 471.535 0.588155 465.687C-13.9549 457.717 -29.2541 453.446 -43.3619 468.131C-55.212 480.473 -58.9374 498.419 -62.08 513.473C-70.0412 551.558 -73.2422 589.901 -74.7463 628.031C-75.6211 650.094 -75.1108 672.573 -73.2869 694.31C-69.6265 737.989 -61.7498 780.405 -55.842 823.651C-51.548 855.079 -22.8077 879.949 11.5485 881.96C20.4171 882.482 29.4692 881.625 38.4643 880.605C51.4203 879.132 63.8477 878.28 76.6189 874.965C97.4447 869.557 120.084 864.214 138.713 871.547C148.556 875.426 156.195 882.483 164.104 888.957C179.833 901.838 198.508 913.12 217.851 921.248C225.277 924.371 234.541 923.55 242.644 920.317C250.755 917.08 257.835 911.63 264.038 905.622C274.2 895.781 282.539 883.853 285.39 870.968C288.24 858.083 284.907 844.252 274.823 836.348C267.019 830.24 255.488 826.949 245.095 825.275C231.501 823.08 217.121 824.972 202.997 826.037C188.872 827.103 174.225 827.243 162.034 821.887C151.584 817.296 144.775 808.737 140.93 798.544C137.086 788.352 136.322 777.145 135.583 766.094C133.81 739.519 134.233 714.936 144.959 688.65C163.141 644.092 181.399 604.454 146.107 567.411C114.155 533.863 74.4855 506.206 32.8588 483.264Z" stroke="#EEEEEE" stroke-width="1.3206" stroke-miterlimit="10"/>
<path d="M190.966 806.511C209.977 807.398 228.992 808.292 248.004 809.179C263.106 809.886 279.219 810.944 290.207 819.633C299.603 827.06 303.657 839.179 303.413 851.237C303.157 863.293 299.016 875.391 294.005 887C288.6 899.507 281.985 911.919 272.092 922.121C262.199 932.324 248.598 940.143 234.542 941.037C223.324 941.75 216.187 938.599 207.1 933.435C176.78 916.209 151.379 890.287 115.579 883.725C94.314 879.825 71.5566 883.275 49.3373 886.463C27.118 889.651 4.22715 892.556 -16.6662 887.625C-37.5595 882.695 -56.2473 868.061 -58.0679 847.832C-60.9167 816.079 -69.5004 786.129 -74.1231 754.726C-91.1618 639.134 -84.2066 518.236 -53.7363 400.239C-50.1319 386.295 -38.6372 366.685 -20.6714 366.545C10.5938 366.315 15.2853 410.527 20.2132 431.116C28.9963 467.818 55.9607 480.162 87.268 498.785C122.475 519.732 156.499 552.778 179.226 585.205C183.733 591.641 187.39 598.967 187.274 607.019C186.984 626.23 168.017 647.238 160.545 665.533C151.37 688.017 145.991 711.659 145.526 734.891C144.897 765.87 157.815 804.961 190.966 806.511Z" stroke="#EEEEEE" stroke-width="1.3206" stroke-miterlimit="10"/>
<path d="M274.451 803.214C285.685 804.873 295.985 809.727 303.69 816.985C307.78 820.842 311.18 825.435 312.823 830.748C315.025 837.88 313.95 845.789 312.853 853.458C311.261 864.654 309.634 875.979 305.244 886.792C295.765 910.167 277.671 939.646 250.732 948.537C228.055 956.022 209.717 949.129 193.744 936.866C174.61 922.171 153.73 909.007 130.997 899.059C109.155 889.499 82.7362 890.711 57.9794 893.286C25.2508 896.685 -20.5769 907.072 -45.7904 885.412C-69.2693 865.24 -71.9 818.214 -76.9557 789.779C-95.9152 683.226 -97.7791 604.577 -89.6251 507.047C-86.0686 464.549 -80.8487 423.203 -73.4912 380.747C-71.7616 370.765 -69.8458 360.59 -64.7778 351.308C-59.7065 342.033 -50.8807 333.64 -40.1902 331.189C-25.6341 327.85 -12.4572 335.959 -1.65475 344.058C12.6258 354.756 27.5163 367.512 26.1958 386.923C24.8302 406.889 27.1785 430.27 37.6565 447.214C42.982 455.828 51.993 461.685 60.7713 467.324C68.3472 472.186 75.9337 477.05 83.5096 481.912C109.609 498.658 134.053 517.59 155.865 538.855C174.156 556.688 202.367 580.694 202.898 608.022C203.507 639.614 169.516 667.238 157.455 696.351C149.205 716.267 151.458 735.207 156.349 754.33C157.978 760.708 159.983 767.045 163.441 772.609C172.745 787.543 191.403 795.039 210.142 798.384C228.885 801.719 255.549 800.429 274.451 803.214Z" stroke="#EEEEEE" stroke-width="1.3206" stroke-miterlimit="10"/>
<path d="M-88.0691 359.764C-76.5233 315.617 -16.2703 308.289 13.9418 331.044C29.2685 342.591 38.6606 359.95 42.5013 378.484C45.8805 394.818 45.1488 412.117 49.3384 428.234C53.5129 444.287 64.1066 456.772 77.3243 466.928C95.2167 480.68 115.915 491.257 133.144 505.707C151.748 521.304 167.657 539.38 183.448 557.404C192.825 568.102 206.705 578.934 210.554 592.942C214.557 607.501 209.239 624.145 201.547 638.098C190.79 657.602 174.895 675.024 167.123 695.687C155.225 727.316 159.339 768.798 191.411 784.507C207.776 792.524 228.159 791.8 247.572 790.551C263.096 789.555 282.954 790.975 296.055 797.348C315.059 806.587 324.056 827.702 323.449 848.497C322.842 869.291 314.048 889.939 304.025 909.509C298.443 920.404 292.357 931.267 283.865 940.611C275.372 949.954 264.191 957.729 251.758 960.449C221.459 967.077 193.606 948.683 170.69 935.753C143.231 920.249 113.788 903.903 79.8529 901.457C56.6127 899.787 33.0533 903.505 9.57975 904.547C-40.5097 906.756 -72.1319 885.753 -79.0736 839.786C-91.3532 758.491 -105.267 677.351 -101.361 593.66C-99.7142 558.363 -102.29 523.296 -98.8417 488.007C-96.6396 465.461 -94.6761 442.918 -92.9373 420.385C-91.4611 401.08 -93.7139 378.797 -88.0691 359.764Z" stroke="#EEEEEE" stroke-width="1.3206" stroke-miterlimit="10"/>
<path d="M120.72 924.516C125.91 926.377 131.012 928.389 136.027 930.519C164.252 942.536 186.719 964.303 216.409 973.426C242.856 981.548 282.451 976.539 301.245 951.76C308.316 942.431 312.47 931.716 316.52 921.175C326.238 895.902 339.655 870.044 341.758 843.57C344.073 814.451 330.499 790.803 302.298 780.477C281.505 772.862 257.949 773.422 235.537 770.873C200.085 766.844 169.395 741.194 184.793 704.038C199.295 669.057 241.525 630.597 231.53 592.76C227.494 577.476 216.254 565.364 204.323 554.755C169.953 524.221 117.955 489.099 87.3615 455.181C57.2341 421.774 64.6081 387.932 50.1156 347.021C37.733 312.061 14.7003 282.779 -30.0427 286.277C-55.4688 288.269 -79.4193 299.309 -99.8391 314.801C-129.646 337.418 -124.02 370.088 -123.576 399.52C-122.803 450.129 -120.764 500.585 -118.864 551.056C-117.012 600.292 -119.178 651.083 -112.532 699.479C-109.677 720.249 -111.047 741.655 -109.654 762.646C-108.245 783.846 -100.703 802.837 -95.6918 823.052C-88.6391 851.499 -92.5269 884.416 -66.613 904.18C-37.9849 926.009 7.83764 912.823 43.5044 911.494C70.5515 910.483 96.5464 915.851 120.72 924.516Z" stroke="#EEEEEE" stroke-width="1.3206" stroke-miterlimit="10"/>
<path d="M124.094 935.799C129.508 937.738 134.831 939.838 140.062 942.066C169.511 954.599 192.953 977.309 223.937 986.83C251.526 995.308 292.85 990.077 312.452 964.22C319.832 954.49 324.159 943.306 328.389 932.309C338.527 905.938 352.526 878.958 354.721 851.338C357.133 820.958 345.328 787.316 315.908 776.536C294.214 768.587 276.684 766.266 253.305 763.61C216.315 759.405 184.884 744.083 200.954 705.314C207.686 689.071 215.351 669.934 225.363 654.939C232.424 644.356 233.645 638.196 240.97 627.751C248.295 617.306 253.909 605.168 252.536 593.548C250.909 579.718 239.949 569.472 229.43 560.315C209.282 542.777 188.758 525.603 167.866 508.803C143.983 489.599 120.651 467.978 101.113 444.903C74.3665 413.296 73.7503 366.119 60.3088 328.194C47.3856 291.722 23.3607 261.158 -23.3295 264.813C-55.3114 267.318 -89.0787 284.364 -110.672 308.147C-121.507 320.079 -129.461 334.311 -131.318 349.284C-133.551 367.228 -128.403 385.152 -129.86 403.35C-131.428 422.977 -128.033 432.335 -129.473 451.961C-132.008 486.481 -128.775 516.728 -125.436 550.52C-123.095 574.227 -121.776 598.042 -123.114 622.103C-124.409 645.425 -122.41 678.14 -119.27 700.999C-115.014 731.994 -119.804 766.433 -111.86 796.431C-107.984 811.064 -101.468 826.152 -99.4388 841.244C-97.7704 853.616 -97.5279 866.028 -94.0449 878.183C-90.0347 892.165 -83.1243 905.605 -71.3551 914.578C-41.4895 937.358 6.33036 923.595 43.5342 922.208C71.7476 921.153 98.8682 926.756 124.094 935.799Z" stroke="#EEEEEE" stroke-width="1.3206" stroke-miterlimit="10"/>
<path d="M1260.12 -44.6059C1253.92 -53.0566 1246.77 -61.0984 1237.77 -66.2106C1228.78 -71.3228 1217.65 -73.1506 1208.58 -68.9692C1197.14 -63.7008 1191.37 -50.1247 1190.91 -37.0683C1190.46 -24.0169 1194.3 -11.093 1197.33 1.73841C1202.91 25.4797 1205.79 49.779 1205.87 73.9819C1205.9 83.7711 1205.49 93.6602 1207.63 103.289C1213.26 128.742 1224.36 151.302 1248.93 158.077C1257.49 160.438 1278.6 158.214 1286.87 155.557C1305.51 149.558 1313.59 126.514 1311.89 106.21C1309.89 82.2421 1299.51 59.1424 1293.5 35.8725C1286.01 6.87984 1278.19 -19.9917 1260.12 -44.6059Z" stroke="#EEEEEE" stroke-width="1.3206" stroke-miterlimit="10"/>
<path d="M1261.98 -68.7478C1254.46 -79.0154 1247.89 -83.5417 1236.93 -89.7142C1225.97 -95.8866 1206.61 -92.2255 1195.48 -87.0475C1181.44 -80.5199 1172.44 -59.108 1171.79 -43.1711C1171.13 -27.2342 1175.72 -11.4982 1179.32 4.13581C1185.97 33.065 1188.68 56.331 1188.6 85.8574C1188.56 97.799 1190.02 111.389 1192.55 123.123C1199.24 154.143 1224.05 167.178 1254.05 175.255C1264.49 178.064 1282.98 178.627 1293.11 175.311C1315.96 167.838 1326.01 139.648 1324.1 114.879C1321.84 85.6488 1309.33 57.5295 1302.17 29.1804C1293.25 -6.12762 1283.88 -38.8588 1261.98 -68.7478Z" stroke="#EEEEEE" stroke-width="1.3206" stroke-miterlimit="10"/>
<path d="M1262.89 -79.0004C1254.58 -91.7259 1253.15 -98.1014 1240.09 -105.449C1227.03 -112.797 1203.97 -108.442 1190.69 -102.273C1173.97 -94.4963 1163.24 -68.9724 1162.46 -49.987C1161.68 -31.0015 1167.15 -12.2403 1171.44 6.38836C1179.36 40.8649 1178.02 46.4007 1177.92 81.5976C1177.87 95.8279 1179.61 112.023 1182.63 126.002C1190.6 162.969 1220.16 178.503 1255.91 188.126C1268.35 191.474 1290.39 192.142 1302.46 188.195C1329.69 179.29 1341.67 145.699 1339.39 116.183C1336.7 81.3499 1321.03 52.1082 1310.13 19.2951C1296.6 -21.4533 1288.29 -40.1188 1262.89 -79.0004Z" stroke="#EEEEEE" stroke-width="1.3206" stroke-miterlimit="10"/>
<path d="M1275.66 -78.639C1267.7 -94.6064 1256.19 -106.4 1241.11 -115.189C1222.09 -126.27 1193.09 -114.03 1178.92 -103.739C1161.27 -90.9356 1151.52 -72.6654 1150.6 -50.5336C1149.69 -28.4018 1154.7 -22.2628 1159.69 -0.538042C1168.93 39.6452 1167.37 46.1046 1167.24 87.1292C1167.19 103.718 1165.44 124.337 1172.73 138.894C1190.02 173.421 1207.53 186.301 1249.2 197.512C1263.71 201.415 1297.15 200.263 1311.23 195.653C1342.97 185.271 1353.08 158.301 1350.42 123.898C1347.28 83.2896 1332.44 52.2407 1317.56 15.0163C1298.25 -33.345 1298.25 -33.345 1275.66 -78.639Z" stroke="#EEEEEE" stroke-width="1.3206" stroke-miterlimit="10"/>
<path d="M1286.56 -80.5986C1277.42 -98.9277 1258.4 -118.821 1241.08 -128.906C1219.25 -141.624 1177.82 -118.775 1161.53 -106.965C1141.27 -92.2684 1132.19 -82.9358 1131.14 -57.528C1130.09 -32.1143 1141.83 -33.2805 1147.56 -8.34229C1158.17 37.7932 1156.38 45.2089 1156.24 92.3148C1156.19 111.366 1152.4 136.198 1162.54 151.75C1185.58 187.077 1198.3 193.144 1246.14 206.019C1262.79 210.499 1305.66 216.357 1321.82 211.063C1358.26 199.147 1364.4 184.665 1361.35 145.165C1357.75 98.5449 1345.91 52.2588 1328.83 9.52142C1306.65 -46.0072 1312.49 -28.6014 1286.56 -80.5986Z" stroke="#EEEEEE" stroke-width="1.3206" stroke-miterlimit="10"/>
<path d="M1204.25 -15.8415C1203.84 -9.53366 1209.37 6.34043 1210.81 12.2493C1212.48 19.0314 1212.72 26.2423 1212.97 33.3887C1213.25 42.0197 1213.55 50.6557 1213.84 59.2866C1214.47 77.9301 1214.21 102.436 1224.06 117.132C1233.92 131.827 1263.65 150.417 1280.04 138.914C1290.81 131.347 1294.99 111.477 1295.4 99.1047C1296.12 76.8554 1280.03 45.7813 1273.55 25.8424C1268.09 8.98516 1254.67 -8.21736 1249.46 -25.0592C1238.37 -60.895 1206.65 -52.5644 1204.25 -15.8415Z" stroke="#EEEEEE" stroke-width="1.3206" stroke-miterlimit="10"/>
<path d="M1231.81 70.886C1231.26 75.6398 1233.37 86.1517 1234.39 90.6556C1236.26 98.944 1239.08 107.099 1244.96 112.888C1249.92 117.769 1252.31 120.494 1259.62 118.783C1265.49 117.404 1271.33 114.102 1272.92 108.263C1278.15 88.9777 1267.03 52.4565 1254.95 38.049C1236.36 15.8826 1233.35 57.5896 1231.81 70.886Z" stroke="#EEEEEE" stroke-width="1.3206" stroke-miterlimit="10"/>
<path d="M1182.89 -129.757C1165.21 -119.569 1147.92 -108.553 1131.1 -96.7727C1123.87 -91.7014 1116.59 -86.3729 1111.11 -79.4156C1109.03 -76.7788 1107.2 -73.8775 1106.31 -70.7452C1103.33 -60.3779 1110.93 -51.7549 1116.63 -43.7631C1127.17 -28.9724 1132.22 -10.649 1137.12 7.33883C1140.35 19.1887 1143.54 31.5117 1145.8 43.7016C1148.63 58.9969 1149.15 75.0075 1147.34 91.0641C1146.05 102.548 1143.39 115.187 1143.58 126.552C1143.77 137.91 1145.65 149.303 1151.34 158.437C1159.6 171.69 1173.67 181.498 1186.81 189.911C1216.49 208.916 1251.51 220.275 1288.24 223.433C1293.46 223.878 1298.74 224.366 1303.96 224.806C1314.68 225.714 1325.52 226.619 1336.49 224.861C1347.45 223.102 1358.73 218.38 1366.68 209.843C1371.53 204.626 1374.96 198.14 1376.39 191.462C1379.24 178.138 1376.76 165.465 1374.81 152.611C1373.06 141.053 1371.24 129.51 1369.37 117.987C1363.52 81.9666 1353.25 45.8385 1339.17 13.1708C1319.57 -32.2775 1299.33 -78.5817 1269.44 -117.15C1260.64 -128.512 1246.06 -136.717 1231.23 -138.863C1216.39 -141.013 1196.94 -137.854 1182.89 -129.757Z" stroke="#EEEEEE" stroke-width="1.3206" stroke-miterlimit="10"/>
<path d="M1307.17 238.848C1319.22 241.22 1331.31 243.445 1343.26 245.765C1359.53 248.929 1375.41 248.339 1384.38 230.056C1391.9 214.692 1389.99 196.464 1388.4 181.168C1384.39 142.467 1375.76 104.97 1365.58 68.1922C1359.7 46.9104 1352.37 25.6539 1344.01 5.5039C1327.23 -34.986 1306.81 -72.9906 1288.02 -112.385C1274.36 -141.012 1239.41 -155.952 1206.07 -147.406C1197.47 -145.203 1189.1 -141.631 1180.85 -137.92C1168.96 -132.573 1157.38 -127.977 1146.22 -120.932C1128.03 -109.439 1108.09 -97.4575 1088.12 -98.7704C1077.56 -99.4677 1068.13 -103.864 1058.63 -107.623C1039.73 -115.103 1018.5 -120.164 997.603 -122.016C989.579 -122.73 981.005 -119.127 974.27 -113.581C967.531 -108.028 962.446 -100.681 958.367 -93.07C951.683 -80.6021 947.372 -66.7007 948.58 -53.5594C949.788 -40.4181 957.174 -28.2589 969.186 -23.8008C978.479 -20.3584 990.465 -20.7347 1000.87 -22.3052C1014.49 -24.3528 1027.61 -30.5332 1040.74 -35.8485C1053.87 -41.1639 1067.78 -45.7572 1081.02 -44.3667C1092.37 -43.1756 1101.47 -37.0961 1108.23 -28.5582C1115 -20.0204 1119.14 -9.57768 1123.2 0.723674C1132.99 25.4966 1140.07 49.0416 1137.85 77.3454C1134.1 125.323 1128.78 168.639 1173.67 193.177C1214.32 215.405 1260.53 229.67 1307.17 238.848Z" stroke="#EEEEEE" stroke-width="1.3206" stroke-miterlimit="10"/>
<path d="M1058.15 -20.9118C1039.77 -15.9686 1021.38 -11.0306 1003 -6.08739C988.403 -2.16237 972.733 1.73603 959.622 -3.19573C948.41 -7.40928 940.859 -17.7182 937.42 -29.2784C933.992 -40.8393 934.254 -53.6234 935.492 -66.2071C936.833 -79.7659 939.355 -93.603 945.672 -106.333C951.988 -119.064 962.563 -130.653 975.68 -135.783C986.148 -139.879 993.905 -139.05 1004.13 -136.898C1038.26 -129.721 1070.35 -112.764 1106.44 -117.413C1127.89 -120.173 1148.51 -130.388 1168.71 -140.19C1188.9 -149.992 1209.82 -159.729 1231.22 -161.393C1252.63 -163.058 1274.88 -154.809 1282.78 -136.095C1295.16 -106.717 1312.45 -80.8022 1326.42 -52.2974C1377.84 52.6183 1408.02 169.894 1414.93 291.566C1415.74 305.945 1410.76 328.124 1393.69 333.727C1363.98 343.466 1346.05 302.782 1335.09 284.671C1315.55 252.385 1286.1 248.837 1250.61 240.631C1210.7 231.397 1168.23 210.28 1136.71 186.312C1130.46 181.554 1124.74 175.689 1122.4 167.984C1116.83 149.597 1128.5 123.811 1130.05 104.109C1131.94 79.9003 1129.87 55.7428 1123.23 33.4716C1114.4 3.77267 1090.19 -29.5291 1058.15 -20.9118Z" stroke="#EEEEEE" stroke-width="1.3206" stroke-miterlimit="10"/>
<path d="M979.629 7.64711C968.423 9.48664 957.134 7.99931 947.585 3.43235C942.514 1.00345 937.877 -2.33592 934.695 -6.89673C930.426 -13.0194 929.042 -20.88 927.751 -28.5196C925.86 -39.6683 923.961 -50.9516 924.85 -62.5871C926.763 -87.7388 935.022 -121.328 957.975 -137.998C977.296 -152.033 996.863 -151.05 1015.81 -144.232C1038.51 -136.061 1062.41 -129.879 1087.09 -127.325C1110.81 -124.869 1135.6 -134.067 1158.4 -144.058C1188.54 -157.26 1229.03 -181.107 1259.64 -168.153C1288.14 -156.087 1304.97 -112.094 1318.44 -86.5487C1368.94 9.17217 1394.66 83.5196 1416.59 178.902C1426.14 220.466 1433.76 261.438 1439.68 304.118C1441.07 314.153 1442.34 324.428 1440.34 334.812C1438.34 345.19 1432.49 355.872 1423.05 361.462C1410.2 369.075 1395.18 365.362 1382.42 360.937C1365.56 355.095 1347.5 347.478 1342.85 328.587C1338.07 309.152 1328.71 287.597 1313.57 274.647C1305.88 268.064 1295.51 265.228 1285.43 262.53C1276.74 260.206 1268.03 257.883 1259.33 255.558C1229.37 247.554 1200.32 236.963 1173.07 223.348C1150.22 211.931 1116.04 197.655 1107.21 171.786C1097.02 141.88 1120.98 105.218 1123.61 73.8141C1125.4 52.3326 1117.49 34.9771 1107.01 18.2514C1103.51 12.6725 1099.67 7.24635 1094.69 2.99976C1081.28 -8.39311 1061.22 -9.85235 1042.35 -7.33283C1023.49 -4.80244 998.481 4.54438 979.629 7.64711Z" stroke="#EEEEEE" stroke-width="1.3206" stroke-miterlimit="10"/>
<path d="M1459.95 319.666C1462.4 365.232 1407.24 390.558 1371.53 378.081C1353.42 371.75 1339.18 358.074 1329.88 341.589C1321.69 327.06 1317.12 310.36 1308.22 296.283C1299.36 282.263 1285.47 273.596 1269.79 267.947C1248.56 260.296 1225.62 256.523 1204.81 248.005C1182.34 238.813 1161.68 226.439 1141.15 214.078C1128.96 206.743 1112.44 200.652 1104.51 188.48C1096.27 175.832 1096.27 158.359 1099.34 142.726C1103.65 120.873 1113.49 99.4384 1114.6 77.3908C1116.3 43.6408 1099.75 5.38025 1064.42 0.182103C1046.39 -2.47149 1027.2 4.42446 1009.09 11.5246C994.603 17.2 975.256 21.8935 960.836 19.8126C939.922 16.7982 924.923 -0.575373 919.17 -20.5676C913.417 -40.5598 915.507 -62.9047 919.095 -84.5969C921.095 -96.6737 923.584 -108.875 928.829 -120.36C934.073 -131.846 942.356 -142.656 953.37 -149.032C980.213 -164.57 1012.34 -155.531 1038.11 -150.192C1068.98 -143.784 1102.01 -137.178 1135.08 -145.182C1157.72 -150.667 1179.03 -161.381 1201.07 -169.52C1248.11 -186.876 1284.63 -176.498 1305.23 -134.827C1341.68 -61.1297 1379.64 11.9214 1401.4 92.8278C1410.58 126.951 1423.71 159.568 1431.17 194.232C1435.94 216.377 1440.93 238.449 1446.13 260.441C1450.61 279.279 1459.54 299.818 1459.95 319.666Z" stroke="#EEEEEE" stroke-width="1.3206" stroke-miterlimit="10"/>
<path d="M1089.13 -154.703C1083.62 -154.895 1078.15 -155.258 1072.72 -155.759C1042.18 -158.613 1014.15 -172.506 983.09 -172.156C955.426 -171.84 919.236 -155.013 908.879 -125.689C904.984 -114.65 904.29 -103.179 903.641 -91.9052C902.08 -64.8726 897.173 -36.1579 903.23 -10.3001C909.891 18.1415 930.02 36.5334 960.026 37.7833C982.15 38.7053 1004.42 31.0002 1026.54 26.6045C1061.54 19.6478 1098.58 34.7353 1095.23 74.8157C1092.06 112.552 1063.55 162.043 1084.59 195.041C1093.09 208.371 1107.48 216.485 1122.08 222.958C1164.11 241.577 1224.33 259.199 1263.8 282.192C1302.67 304.841 1305.95 339.321 1332.21 373.878C1354.65 403.407 1385.5 424.286 1427.06 407.331C1450.67 397.693 1470.12 379.885 1484.86 358.91C1506.36 328.292 1491.06 298.886 1481.67 270.987C1465.53 223.016 1448.22 175.577 1431.04 128.08C1414.29 81.7458 1400.89 32.7065 1379.82 -11.3682C1370.78 -30.2826 1365.57 -51.0896 1357.85 -70.6597C1350.05 -90.4247 1337.09 -106.218 1326.16 -123.947C1310.78 -148.896 1304.46 -181.434 1273.76 -192.37C1239.84 -204.445 1200.21 -177.934 1166.64 -165.809C1141.19 -156.61 1114.79 -153.809 1089.13 -154.703Z" stroke="#EEEEEE" stroke-width="1.3206" stroke-miterlimit="10"/>
<path d="M1082.48 -164.423C1076.73 -164.621 1071.02 -165.001 1065.36 -165.53C1033.49 -168.501 1004.25 -182.996 971.839 -182.631C942.978 -182.307 905.209 -164.742 894.41 -134.145C890.343 -122.629 889.627 -110.659 888.946 -98.8965C887.318 -70.6909 882.198 -40.7289 888.517 -13.7523C895.47 15.9196 916.957 44.3703 948.263 45.6802C971.347 46.6469 988.751 43.521 1011.83 38.9323C1048.34 31.675 1082.95 36.6997 1079.44 78.5209C1077.98 96.0426 1076.5 116.605 1071.53 133.936C1068.03 146.167 1068.74 152.406 1064.94 164.585C1061.15 176.765 1059.49 190.036 1064.34 200.686C1070.1 213.364 1083.66 219.786 1096.47 225.306C1121 235.876 1145.78 245.987 1170.79 255.627C1199.39 266.648 1228.2 280.139 1253.83 296.17C1288.93 318.132 1303.88 362.882 1328.23 394.913C1351.65 425.72 1383.84 447.517 1427.2 429.821C1456.9 417.696 1483.87 391.179 1497.2 361.95C1503.89 347.286 1507.13 331.308 1504.34 316.48C1501 298.708 1490.64 283.203 1486.49 265.425C1482.01 246.253 1475.92 238.373 1471.32 219.24C1463.23 185.587 1450.94 157.761 1437.47 126.589C1428.02 104.721 1419.51 82.4385 1413.46 59.112C1407.59 36.5037 1395.73 5.95039 1385.78 -14.8677C1372.29 -43.0955 1366.36 -77.3579 1349.66 -103.512C1341.52 -116.27 1330.72 -128.658 1324.19 -142.416C1318.83 -153.692 1314.82 -165.442 1307.8 -175.959C1299.73 -188.056 1289.05 -198.754 1275.11 -203.717C1239.73 -216.323 1198.37 -188.654 1163.35 -176.005C1136.8 -166.41 1109.26 -163.49 1082.48 -164.423Z" stroke="#EEEEEE" stroke-width="1.3206" stroke-miterlimit="10"/>
</g>
<defs>
<clipPath id="clip0">
<rect width="1280" height="720" fill="white"/>
</clipPath>
</defs>
</svg>
