<svg id="edbtfOZGm4N1" xmlns="http://www.w3.org/2000/svg" xmlns:xlink="http://www.w3.org/1999/xlink" viewBox="0 0 64 64" shape-rendering="geometricPrecision" text-rendering="geometricPrecision"><style><![CDATA[#edbtfOZGm4N2_to {animation: edbtfOZGm4N2_to__to 3000ms linear 1 normal forwards}@keyframes edbtfOZGm4N2_to__to { 0% {transform: translate(22.892596px,83.9506px);animation-timing-function: cubic-bezier(0,0,0.58,1)} 10% {transform: translate(22.892595px,44.049401px)} 100% {transform: translate(22.892595px,44.049401px)}} #edbtfOZGm4N4_to {animation: edbtfOZGm4N4_to__to 3000ms linear 1 normal forwards}@keyframes edbtfOZGm4N4_to__to { 0% {transform: translate(18.230896px,39.506201px);animation-timing-function: cubic-bezier(0,0,0.58,1)} 10% {transform: translate(18.230896px,39.506201px)} 100% {transform: translate(18.230896px,39.506201px)}} #edbtfOZGm4N5_tr {animation: edbtfOZGm4N5_tr__tr 3000ms linear 1 normal forwards}@keyframes edbtfOZGm4N5_tr__tr { 0% {transform: translate(37.155529px,23.643698px) rotate(360deg)} 10% {transform: translate(37.155529px,23.643698px) rotate(360deg)} 33.333333% {transform: translate(37.155529px,23.643698px) rotate(0deg)} 100% {transform: translate(37.155529px,23.643698px) rotate(0deg)}}]]></style><g id="edbtfOZGm4N2_to" transform="translate(22.892596,83.9506)"><g transform="translate(-22.892595,-44.049401)"><path d="M39.3271,64c-.8691,0-1.6592-.3161-2.2123-.9482L26.0531,51.9901c-.4741-.4741-.4741-1.1852,0-1.6593s1.1852-.4741,1.6592,0L38.7741,61.3925c.316.3161.7901.3161,1.1061,0l.4741-.474c.158-.1581.237-.3161.237-.5531s-.079-.3951-.237-.5531L29.2926,48.7506c-.4741-.4741-.4741-1.1852,0-1.6593s1.1852-.4741,1.6592,0L42.0136,58.153c.553.5531.9481,1.3432.9481,2.2124c0,.8691-.316,1.6592-.9481,2.2123l-.4741.5531c-.5531.5531-1.3432.8692-2.2124.8692Z" fill="#ff5a10"/><g id="edbtfOZGm4N4_to" transform="translate(18.230896,39.506201)"><path d="M18.2309,54.9136c-8.53334,0-15.40741-6.9531-15.40741-15.4074s6.87407-15.4074,15.40741-15.4074s15.4074,6.953,15.4074,15.4074-6.9531,15.4074-15.4074,15.4074Zm0-28.4445c-7.1901,0-13.03704,5.8469-13.03704,13.0371s5.84694,13.037,13.03704,13.037s13.037-5.8469,13.037-13.037-5.8469-13.0371-13.037-13.0371Z" transform="translate(-18.230896,-39.506201)" fill="#ff5a10"/></g></g></g><g id="edbtfOZGm4N5_tr" transform="translate(37.155529,23.643698) rotate(360)"><g transform="translate(-37.155521,-23.643695)" clip-path="url(#edbtfOZGm4N7)"><path d="M36.8777,47.0913c-.237,0-.4741,0-.7111,0-.6321-.079-1.1062-.6321-1.1062-1.2642.079-.6321.6321-1.1852,1.2642-1.1061c1.1062.079,2.2124-.0791,2.9235-.2371l.7111-4.9778c.079-.474.4741-.8691.9481-1.0271c2.6074-.4741,3.7926-1.6593,3.7926-1.6593.3951-.395,1.0272-.474,1.5013-.158l4.5037,3.1605c1.1061-.7111,2.1333-1.9753,2.7654-2.8445l-3.0815-4.4246c-.316-.4741-.237-1.0272.079-1.4223.7111-.8691,1.4223-3.0024,1.7383-4.1086.158-.4741.5531-.8691,1.0272-.8691l5.0568-.4741c.316-1.4222.158-3.0815-.0791-4.1087l-5.1358-.553c-.553-.0791-1.0271-.5531-1.0271-1.1062-.158-2.2914-1.6593-4.5037-1.6593-4.5037-.316-.3951-.237-1.0272.079-1.4222l3.0815-3.7136c-.7901-1.50126-2.0543-2.44941-2.8444-2.92348L46.5172,10.4296c-.4741.3951-1.1852.3161-1.5802-.158-.3161-.39509-2.3704-1.26422-4.2667-1.81731-.3951-.15802-.7111-.47407-.7901-.86913L38.853,2.52837c-1.5012-.39506-2.9234-.07902-3.7926.07901l-.6321,4.97778c-.079.55308-.5531,1.02716-1.1061,1.02716-1.5013.07901-3.4766,1.42218-4.1087,1.97528-.4741.3951-1.1062.3951-1.5012,0L23.8407,7.42713c-1.1062.6321-2.2124,1.8963-2.9235,2.76547l2.9235,4.0296c.316.4741.316,1.1062-.079,1.5012-.5531.6321-1.5803,3.0025-2.1334,4.5037-.158.3951-.5531.7111-1.0271.7902l-4.8198.474c-.079.2371-.079.5531-.079.7902-.079.6321-.6321,1.1061-1.2642,1.1061-.6321-.079-1.1062-.6321-1.1062-1.2642.079-.7111.1581-1.4222.3951-2.0543.158-.4741.5531-.7901,1.0272-.7901l4.9777-.4741c.3951-.9481,1.0272-2.6074,1.7383-3.7926l-2.9235-4.0296c-.316-.3951-.316-.9482,0-1.34322.2371-.39506,2.5284-3.71358,5.2149-4.58272.395-.15802.7901-.07901,1.1061.23704l3.7136,3.00247c.8691-.6321,2.2124-1.42222,3.7136-1.81729l.5531-4.74074c.079-.47407.316-.79012.7111-.948144.158-.079013,3.4765-1.34321,6.716-.079013.3951.158025.6321.474077.7112.869137l1.0271,5.05679c1.0272.31605,2.6864.94815,3.7926,1.58025l4.1086-3.00247c.3161-.23704.7902-.31605,1.1852-.15803.1581.07901,3.6346,1.58025,4.9778,5.13584.158.395.079.8691-.158,1.1851l-3.0025,3.6346c.4741.8692,1.1852,2.2914,1.5013,3.8716l5.0567.5531c.4741.079.8692.3951,1.0272.8691.079.1581,1.1062,3.7926,0,6.9531-.158.4741-.5531.7111-1.0272.7902l-5.0567.474c-.2371.9482-.7902,2.3704-1.4223,3.4766l3.0815,4.4247c.237.395.3161.8691,0,1.3432-.237.395-2.2914,3.5555-4.8197,4.6617-.3951.158-.7902.158-1.1852-.158l-4.3457-3.0815c-.7111.4741-1.8173,1.0272-3.3975,1.4222l-.6321,4.8988c-.079.4741-.3951.7901-.7902.9481-.316.079-1.9753.6321-4.0296.6321Z" fill="#ff5a10"/><clipPath id="edbtfOZGm4N7"><ellipse rx="24.484284" ry="24.484284" transform="translate(36.816284 23.0988)" opacity="0.5" fill="#d2dbed" stroke-width="0"/></clipPath></g></g></svg>