<?xml version="1.0" encoding="utf-8"?>
<!-- Generator: Adobe Illustrator 26.3.1, SVG Export Plug-In . SVG Version: 6.00 Build 0)  -->
<svg version="1.1" id="layer" xmlns="http://www.w3.org/2000/svg" xmlns:xlink="http://www.w3.org/1999/xlink" x="0px" y="0px"
	 viewBox="0 0 652 180" style="enable-background:new 0 0 652 180;" xml:space="preserve">
<style type="text/css">
	.st0{fill:#007CBA;}
	.st1{clip-path:url(#SVGID_00000020376834811237216960000016129820230802369726_);}
	
		.st2{clip-path:url(#SVGID_00000088096142519825585450000016357615845415902849_);fill:url(#SVGID_00000139980794870307231590000009013681363160722341_);}
	.st3{clip-path:url(#SVGID_00000057136116721118509420000015560786817488444857_);}
	
		.st4{clip-path:url(#SVGID_00000128450572846329808710000012244811867066084006_);fill:url(#SVGID_00000096746849942810537290000014209521558146209675_);}
	
		.st5{clip-path:url(#SVGID_00000098210010705802209500000014162165163221531054_);fill:url(#SVGID_00000023998542193789228370000002264300288061466266_);}
	
		.st6{clip-path:url(#SVGID_00000000944389809345726930000002607893977233255078_);fill:url(#SVGID_00000108278236855818503110000010744089880053855119_);}
</style>
<g>
	<path class="st0" d="M132.1,54.5l26.4-2.2c-13-22.7-37.2-36.8-63.2-36.8c-25.6,0-48.8,13.1-62.2,35.1c-0.6,1.1-1.2,2.2-1.7,3.3
		l-0.2,0.5l2.9,8.3l14.3,8.6l0.6-1.5c7.6-19.1,25.8-31.4,46.3-31.4c13.8,0,26.6,5.5,36.1,15.6l0.4,0.4h0.3V54.5z"/>
	<g>
		<g>
			<g>
				<defs>
					<rect id="SVGID_1_" x="31.1" y="20.8" width="46.3" height="50.6"/>
				</defs>
				<clipPath id="SVGID_00000023277671615909414220000011436623188530078391_">
					<use xlink:href="#SVGID_1_"  style="overflow:visible;"/>
				</clipPath>
				<g style="clip-path:url(#SVGID_00000023277671615909414220000011436623188530078391_);">
					<g>
						<defs>
							<path id="SVGID_00000027593154960627876140000014013250989434215103_" d="M67.9,20.8C53.6,26.6,41.4,36.9,33,50.6
								c-0.6,1.1-1.2,2.2-1.7,3.3l-0.2,0.5l2.9,8.3l14.3,8.6l0.6-1.5c5.3-13.3,15.7-23.3,28.5-28.2L67.9,20.8z"/>
						</defs>
						<clipPath id="SVGID_00000091710856448823711570000008494692107175915967_">
							<use xlink:href="#SVGID_00000027593154960627876140000014013250989434215103_"  style="overflow:visible;"/>
						</clipPath>
						
							<linearGradient id="SVGID_00000179615261287488292870000007956707190941397941_" gradientUnits="userSpaceOnUse" x1="-630.5122" y1="-84.3381" x2="-625.8489" y2="-84.3381" gradientTransform="matrix(-8.6902 7.2919 -7.2919 -8.6902 -6019.5859 3893.6782)">
							<stop  offset="0" style="stop-color:#FFFFFF"/>
							<stop  offset="0.2198" style="stop-color:#FDFCFC"/>
							<stop  offset="0.3591" style="stop-color:#F4F4F4"/>
							<stop  offset="0.4762" style="stop-color:#E7E5E5"/>
							<stop  offset="0.5808" style="stop-color:#D3D1D0"/>
							<stop  offset="0.6773" style="stop-color:#BAB6B5"/>
							<stop  offset="0.7677" style="stop-color:#9A9594"/>
							<stop  offset="0.8535" style="stop-color:#756F6D"/>
							<stop  offset="0.9333" style="stop-color:#4C4340"/>
							<stop  offset="1" style="stop-color:#231815"/>
						</linearGradient>
						
							<polygon style="clip-path:url(#SVGID_00000091710856448823711570000008494692107175915967_);fill:url(#SVGID_00000179615261287488292870000007956707190941397941_);" points="
							102.3,50.5 50.2,94.2 6.2,41.7 58.3,-2 						"/>
					</g>
				</g>
			</g>
		</g>
	</g>
	<path class="st0" d="M358.5,122.3h-20.7c-8.1,0-13.9-3-15.7-11.3h44.7c0.1-1.7,0.2-3.3,0.2-4.8c0-18.2-9.8-34.9-31.3-34.9
		c-18.7,0-31.8,15.1-31.8,33.4v0.2c0,19.6,14.3,33.2,33.5,33.2h10.7L358.5,122.3z M335.8,86c7.7,0,12.5,5.5,13.5,13.7h-27.4
		C323.3,91.4,328.2,86,335.8,86"/>
	<path class="st0" d="M378.8,72.6H397v13c3.7-8.9,9.7-14.6,20.5-14.1v19.1h-0.9c-12.1,0-19.5,7.3-19.5,22.6v23.7h-18.2V72.6H378.8z"
		/>
	<path class="st0" d="M554.5,122.3h-20.7c-8.2,0-13.9-3-15.7-11.3h44.7c0.1-1.7,0.2-3.3,0.2-4.8c0-18.2-9.8-34.9-31.3-34.9
		c-18.7,0-31.7,15.1-31.7,33.4v0.2c0,19.6,14.3,33.2,33.5,33.2h10.7L554.5,122.3z M531.7,86c7.7,0,12.5,5.5,13.5,13.7h-27.4
		C519.2,91.4,524.2,86,531.7,86"/>
	<path class="st0" d="M574.8,72.6H593v13c3.7-8.9,9.7-14.6,20.5-14.1v19.1h-1c-12.1,0-19.5,7.3-19.5,22.6v23.7h-18.2V72.6z"/>
	<path class="st0" d="M447.5,101c0-8.6,4.4-13,11.4-13s11,4.4,11,13v35.8h18.2V95.2c0-14.7-8-23.9-21.8-23.9
		c-9.2,0-14.6,4.9-18.8,10.3v-9.1h-18.2v64.2h18.2L447.5,101L447.5,101z"/>
	<path class="st0" d="M276.8,121.3h1.6h18.4l-11.1,17h-10.8l-4.6-0.1c-24.1-0.7-41.9-19.5-41.9-43.2v-0.2c0-23.9,18-43.5,43.9-43.5
		c15.9,0,25.4,5.3,33.2,13l-11.8,13.6c-6.5-5.9-13.1-9.5-21.5-9.5c-14.2,0-24.4,11.8-24.4,26.2v0.2c0,14.4,10,26.4,24.4,26.4"/>
	<path class="st0" d="M122.6,130.2c-8,5.3-17.4,8.2-27.3,8.2c-20.5,0-38.7-12.3-46.3-31.4l-0.6-1.5l-14.3,8.6l-2.9,8.3l0.2,0.5
		c0.5,1.1,1,2.2,1.7,3.3c13.3,22,36.6,35.1,62.2,35.1c25.4,0,49.1-13.5,62.3-35.3C146.9,128.4,129.5,129.7,122.6,130.2"/>
	<g>
		<g>
			<g>
				<defs>
					<rect id="SVGID_00000155836545338517992770000011678320615666313906_" x="31.3" y="105.8" width="46.7" height="51.7"/>
				</defs>
				<clipPath id="SVGID_00000036935473956293428270000013672128603192834483_">
					<use xlink:href="#SVGID_00000155836545338517992770000011678320615666313906_"  style="overflow:visible;"/>
				</clipPath>
				<g style="clip-path:url(#SVGID_00000036935473956293428270000013672128603192834483_);">
					<g>
						<defs>
							<path id="SVGID_00000043425943173751918190000011495383316359118993_" d="M49.2,107.3l-0.6-1.5l-14.4,8.7l-2.9,8.4l0.2,0.5
								c0.5,1.1,1,2.2,1.7,3.4c8.9,14.7,23.5,25.3,39,30.9l5.8-21.8C65.1,130.8,54.5,120.7,49.2,107.3"/>
						</defs>
						<clipPath id="SVGID_00000132059993859448967770000012260445276901761672_">
							<use xlink:href="#SVGID_00000043425943173751918190000011495383316359118993_"  style="overflow:visible;"/>
						</clipPath>
						
							<linearGradient id="SVGID_00000049210233796175044700000015657320753781988508_" gradientUnits="userSpaceOnUse" x1="-614.8451" y1="-64.7236" x2="-610.1817" y2="-64.7236" gradientTransform="matrix(-9.3243 -7.8241 7.8241 -9.3243 -5148.9292 -5263.146)">
							<stop  offset="0" style="stop-color:#FFFFFF"/>
							<stop  offset="0.2198" style="stop-color:#FDFCFC"/>
							<stop  offset="0.3591" style="stop-color:#F4F4F4"/>
							<stop  offset="0.4762" style="stop-color:#E7E5E5"/>
							<stop  offset="0.5808" style="stop-color:#D3D1D0"/>
							<stop  offset="0.6773" style="stop-color:#BAB6B5"/>
							<stop  offset="0.7677" style="stop-color:#9A9594"/>
							<stop  offset="0.8535" style="stop-color:#756F6D"/>
							<stop  offset="0.9333" style="stop-color:#4C4340"/>
							<stop  offset="1" style="stop-color:#231815"/>
						</linearGradient>
						
							<polygon style="clip-path:url(#SVGID_00000132059993859448967770000012260445276901761672_);fill:url(#SVGID_00000049210233796175044700000015657320753781988508_);" points="
							58.7,180.5 5.9,136.2 50.6,82.8 103.5,127.2 						"/>
					</g>
				</g>
			</g>
		</g>
	</g>
</g>
<g>
	<g>
		<defs>
			<path id="SVGID_00000134209933298010725850000006551116971501403301_" d="M29.2,63.7c0,0.1,0,0.3,0,0.4
				c-0.1,4.5,1.4,8.5,4.6,11.7c0,0,10,14.7,62.2,17c31.9,1.4,95.6-8.6,95.6-8.6l14.7-22.7c0,0-79.4,8.6-109.8,8.6
				c-47.4,0-56.3-13.9-56.3-13.9c-4.9-4.9-4.5-9.9-4.5-9.9C33.1,49.7,29.4,55.2,29.2,63.7"/>
		</defs>
		<clipPath id="SVGID_00000034064917672713433140000008479595402926082996_">
			<use xlink:href="#SVGID_00000134209933298010725850000006551116971501403301_"  style="overflow:visible;"/>
		</clipPath>
		
			<linearGradient id="SVGID_00000172424059626057060110000016380610591771467940_" gradientUnits="userSpaceOnUse" x1="-598.5961" y1="-86.786" x2="-593.93" y2="-86.786" gradientTransform="matrix(37.9763 0 0 37.9763 22761.5625 3366.1111)">
			<stop  offset="0" style="stop-color:#79BD2A"/>
			<stop  offset="7.128255e-03" style="stop-color:#7CBE29"/>
			<stop  offset="0.1354" style="stop-color:#A5CD17"/>
			<stop  offset="0.252" style="stop-color:#C2D70B"/>
			<stop  offset="0.3518" style="stop-color:#D5DE03"/>
			<stop  offset="0.4233" style="stop-color:#DBE000"/>
			<stop  offset="0.4742" style="stop-color:#D1DD04"/>
			<stop  offset="0.8312" style="stop-color:#92C61F"/>
			<stop  offset="1" style="stop-color:#79BD2A"/>
		</linearGradient>
		
			<rect x="29.1" y="46.3" style="clip-path:url(#SVGID_00000034064917672713433140000008479595402926082996_);fill:url(#SVGID_00000172424059626057060110000016380610591771467940_);" width="177.2" height="48"/>
	</g>
</g>
<g>
	<g>
		<defs>
			<path id="SVGID_00000114782396706721937050000017054461932975305658_" d="M99.7,101.5c-21.6,0-36.6-3.7-46.4-5.9
				c-10-2.2-17.1,2.7-19.5,5c-3.3,3.1-4.7,7.1-4.6,11.7c0,0.2,0,0.3,0,0.4c0.1,8.4,3.9,14,6.4,17.5c0,0-0.4-5,4.5-9.9
				c0,0,6.2-6.4,12.7-4c10.8,4.2,45.8,6.6,45.8,6.6c35,0,73.3-7.9,73.3-7.9l14.7-22.7C186.7,92.2,141,101.5,99.7,101.5"/>
		</defs>
		<clipPath id="SVGID_00000146466455359718907750000006844123227877317281_">
			<use xlink:href="#SVGID_00000114782396706721937050000017054461932975305658_"  style="overflow:visible;"/>
		</clipPath>
		
			<linearGradient id="SVGID_00000112625811045791654440000011264495958476520375_" gradientUnits="userSpaceOnUse" x1="-597.9218" y1="-86.3255" x2="-593.2569" y2="-86.3255" gradientTransform="matrix(33.7632 0 0 33.7632 20216.8496 3025.8235)">
			<stop  offset="0" style="stop-color:#79BD2A"/>
			<stop  offset="7.128255e-03" style="stop-color:#7CBE29"/>
			<stop  offset="0.1354" style="stop-color:#A5CD17"/>
			<stop  offset="0.252" style="stop-color:#C2D70B"/>
			<stop  offset="0.3518" style="stop-color:#D5DE03"/>
			<stop  offset="0.4233" style="stop-color:#DBE000"/>
			<stop  offset="0.4742" style="stop-color:#D1DD04"/>
			<stop  offset="0.8312" style="stop-color:#92C61F"/>
			<stop  offset="1" style="stop-color:#79BD2A"/>
		</linearGradient>
		
			<rect x="29.1" y="92.2" style="clip-path:url(#SVGID_00000146466455359718907750000006844123227877317281_);fill:url(#SVGID_00000112625811045791654440000011264495958476520375_);" width="157.5" height="38"/>
	</g>
</g>
<g>
	<path class="st0" d="M629.2,77c0,2.9-2.3,5.2-5.2,5.2s-5.3-2.3-5.3-5.2c0-2.8,2.3-5.1,5.3-5.1C626.9,71.9,629.2,74.1,629.2,77
		 M620,77c0,2.3,1.7,4.1,4,4.1c2.2,0,3.9-1.8,3.9-4.1c0-2.3-1.7-4.1-3.9-4.1C621.7,72.9,620,74.7,620,77 M623.2,79.7H622v-5.1
		c0.5-0.1,1.1-0.2,2-0.2c1,0,1.4,0.2,1.8,0.4c0.3,0.2,0.5,0.6,0.5,1.1c0,0.6-0.4,1-1.1,1.2v0.1c0.5,0.2,0.8,0.6,0.9,1.2
		c0.2,0.8,0.3,1.1,0.4,1.3h-1.3c-0.2-0.2-0.2-0.7-0.4-1.2c-0.1-0.6-0.4-0.8-1.1-0.8h-0.6v2H623.2z M623.2,76.8h0.6
		c0.7,0,1.2-0.2,1.2-0.8c0-0.5-0.3-0.8-1.1-0.8c-0.3,0-0.5,0-0.7,0.1V76.8z"/>
</g>
</svg>
