<?xml version="1.0" encoding="utf-8"?>
<!-- Generator: Adobe Illustrator 26.3.1, SVG Export Plug-In . SVG Version: 6.00 Build 0)  -->
<svg version="1.1" id="Layer_1" xmlns="http://www.w3.org/2000/svg" xmlns:xlink="http://www.w3.org/1999/xlink" x="0px" y="0px"
	 viewBox="0 0 492 183" style="enable-background:new 0 0 492 183;" xml:space="preserve">
<style type="text/css">
	.st0{fill:#B3282D;}
	.st1{fill:#231C34;}
	.st2{fill:#221C35;}
</style>
<g>
	<g>
		<g>
			<path class="st0" d="M100.34,48.46v93.67c0,2.74,1.01,4.8,3.04,6.17c1.35,0.9,2.02,1.95,2.02,3.16v3.56
				c0,1.21-0.68,1.82-2.05,1.82H78.74c-1.16,0-1.74-0.55-1.74-1.66v-3.72c0-1.16,0.66-2.21,1.98-3.16c2.06-1.42,3.09-3.48,3.09-6.17
				V96.8H63.79v45.33c0,2.74,1,4.8,3.01,6.17c1.37,0.9,2.06,1.95,2.06,3.16v3.56c0,1.21-0.69,1.82-2.06,1.82H42.12
				c-1.16,0-1.74-0.55-1.74-1.66v-3.72c0-1.16,0.68-2.21,2.06-3.16c2-1.42,3.01-3.48,3.01-6.17V48.46c0-2.69-1-4.72-3.01-6.09
				c-1.37-0.9-2.06-1.98-2.06-3.24v-3.48c0-1.21,0.68-1.82,2.06-1.82h24.68c1.16,0,1.74,0.55,1.74,1.66v3.64
				c0,1.21-0.69,2.29-2.06,3.24c-2,1.42-3.01,3.45-3.01,6.09v37.26h18.28V48.46c0-2.69-1.03-4.72-3.09-6.09
				c-1.37-0.9-2.06-1.98-2.06-3.24v-3.48c0-1.21,0.68-1.82,2.05-1.82h24.62c1.16,0,1.74,0.55,1.74,1.66v3.64
				c0,1.21-0.65,2.29-1.95,3.24C101.36,43.79,100.34,45.82,100.34,48.46z"/>
			<path class="st0" d="M133.97,142.13c0,2.74,1,4.8,3.01,6.17c1.37,0.9,2.06,1.95,2.06,3.16v3.56c0,1.21-0.69,1.82-2.06,1.82
				h-24.68c-1.16,0-1.74-0.55-1.74-1.66v-3.72c0-1.16,0.68-2.21,2.06-3.16c2-1.42,3.01-3.48,3.01-6.17V48.46
				c0-2.69-1-4.72-3.01-6.09c-1.37-0.9-2.06-1.98-2.06-3.24v-3.48c0-1.21,0.68-1.82,2.06-1.82h24.68c1.16,0,1.74,0.55,1.74,1.66
				v3.64c0,1.21-0.69,2.29-2.06,3.24c-2,1.42-3.01,3.45-3.01,6.09V142.13z"/>
			<path class="st1" d="M181.91,43v99.13c0,2.74,1,4.8,3.01,6.17c1.37,0.9,2.06,1.95,2.06,3.16v3.56c0,1.21-0.69,1.82-2.06,1.82
				h-24.68c-1.16,0-1.74-0.55-1.74-1.66v-3.72c0-1.16,0.69-2.21,2.06-3.16c2-1.42,3.01-3.48,3.01-6.17V43h-3.48
				c-2.58,0-4.5,0.98-5.74,2.93c-1.24,1.95-2.36,6.25-3.36,12.9c-0.11,0.9-0.66,1.35-1.66,1.35h-3.09c-1.79,0-2.69-0.76-2.69-2.29
				V34.85c0-1.79,0.84-2.69,2.53-2.69c1.05,0,2.93,0.21,5.62,0.63c4.32,0.69,7.6,1.03,9.81,1.03h28.01c1.42-0.21,3.16-0.5,5.22-0.87
				c3.16-0.48,4.9-0.71,5.22-0.71c1.42,0,2.14,0.66,2.14,1.98v23.66c0,1.53-0.69,2.29-2.06,2.29h-3.01c-1.21,0-1.94-0.34-2.18-1.03
				c-0.24-0.68-0.62-2.4-1.15-5.14c-0.95-4.54-1.93-7.5-2.93-8.9c-1-1.4-2.77-2.1-5.3-2.1H181.91z"/>
			<path class="st1" d="M229.93,99.25v42.88c0,2.74,1,4.8,3.01,6.17c1.37,0.9,2.06,1.95,2.06,3.16v3.56c0,1.21-0.69,1.82-2.06,1.82
				h-24.68c-1.16,0-1.74-0.55-1.74-1.66v-3.72c0-1.16,0.68-2.21,2.06-3.16c2-1.42,3.01-3.48,3.01-6.17V48.46
				c0-2.69-1-4.72-3.01-6.09c-1.37-0.9-2.06-1.98-2.06-3.24v-3.48c0-1.21,0.68-1.82,2.06-1.82h20.73c11.71,0,20.62,2.64,26.74,7.91
				c6.12,5.27,9.18,12.9,9.18,22.86c0,15.88-7.36,26.13-22.07,30.77c4.32,2.11,7.61,4.5,9.85,7.16c2.24,2.66,3.97,6.58,5.18,11.75
				l5.78,25.08c0.74,3.22,1.46,5.39,2.18,6.53c0.71,1.13,1.88,2.2,3.52,3.2c0.47,0.32,0.71,0.82,0.71,1.5v4.51
				c0,1.16-0.58,1.74-1.73,1.74h-15.77c-1.53,0-2.5-0.85-2.92-2.55l-10.83-43.5c-1.16-4.8-2.44-7.91-3.84-9.33
				C233.88,100.04,232.1,99.31,229.93,99.25z M229.93,43.4v46.44c5.7,0,9.89-1.79,12.58-5.38c2.69-3.59,4.04-9.97,4.04-19.15
				c0-8.97-1.36-14.86-4.07-17.68C239.76,44.81,235.58,43.4,229.93,43.4z"/>
			<path class="st1" d="M330.09,128.31c0,9.44-2.4,16.82-7.2,22.14c-4.8,5.32-11.08,7.98-18.83,7.98c-7.75,0-14.11-2.64-19.07-7.91
				c-4.96-5.27-7.44-12.17-7.44-20.71V48.45c0-2.69-1-4.72-3.01-6.09c-1.37-0.95-2.06-2.03-2.06-3.24v-3.48
				c0-1.21,0.68-1.82,2.06-1.82h24.68c1.16,0,1.74,0.55,1.74,1.66v3.64c0,1.21-0.69,2.29-2.06,3.24c-2.01,1.37-3.01,3.4-3.01,6.09
				v82.22c0,10.96,3.64,16.45,10.92,16.45c7.96,0,11.95-6.43,11.95-19.29V48.45c0-2.69-1-4.72-3.01-6.09
				c-1.37-0.95-2.06-2.03-2.06-3.24v-3.48c0-1.21,0.69-1.82,2.06-1.82h17.64c1.16,0,1.74,0.55,1.74,1.66v3.64
				c0,1.21-0.69,2.29-2.06,3.24c-2,1.37-3.01,3.4-3.01,6.09V128.31z"/>
			<path class="st1" d="M348.29,156.85h-3.96c-1.32,0-1.98-0.71-1.98-2.14v-29.83c0-2,0.71-3.01,2.14-3.01h3.4
				c0.89,0,1.49,0.3,1.78,0.91c0.29,0.61,0.7,2.7,1.23,6.29c2.16,13.82,7.09,20.73,14.8,20.73c4.01,0,7.16-1.74,9.45-5.22
				c2.3-3.48,3.44-7.7,3.44-12.66c0-5.12-1.23-9.86-3.68-14.24c-2.45-4.38-7.19-10.29-14.2-17.72c-5.43-5.7-9.29-10.11-11.59-13.25
				c-2.29-3.14-4.14-6.68-5.54-10.64c-1.4-3.96-2.1-8.31-2.1-13.05c0-8.76,2.2-15.95,6.61-21.6c4.4-5.64,9.77-8.46,16.1-8.46
				c2.9,0,6.01,0.82,9.34,2.47c1.48,0.74,2.48,1.12,3.01,1.12c0.53,0,1.11-0.22,1.74-0.65c0.63-0.38,1.42-0.57,2.37-0.57h2.93
				c1.53,0,2.29,0.71,2.29,2.14v26.19c0,1.32-0.58,1.98-1.74,1.98h-3.64c-0.95,0-1.57-0.25-1.86-0.75c-0.29-0.5-0.8-2.41-1.54-5.74
				c-2.48-11.44-6.52-17.17-12.1-17.17c-3.01,0-5.42,1.27-7.24,3.8c-1.82,2.53-2.73,5.46-2.73,8.78c0,3.85,1.07,7.79,3.2,11.83
				c2.14,4.04,6.4,9.32,12.78,15.86c8.17,8.39,13.83,15.76,16.97,22.11c3.14,6.36,4.71,13.25,4.71,20.69
				c0,10.02-2.62,18.17-7.87,24.45c-5.25,6.28-11.49,9.42-18.71,9.42c-3.22,0-6.99-0.85-11.31-2.55c-1.37-0.58-2.35-0.88-2.93-0.88
				c-0.53,0-1.21,0.27-2.06,0.81C349.16,156.66,348.66,156.85,348.29,156.85z"/>
			<path class="st1" d="M434.84,43v99.13c0,2.74,1,4.8,3.01,6.17c1.37,0.9,2.05,1.95,2.05,3.16v3.56c0,1.21-0.68,1.82-2.05,1.82
				h-24.69c-1.16,0-1.74-0.55-1.74-1.66v-3.72c0-1.16,0.68-2.21,2.05-3.16c2.01-1.42,3.01-3.48,3.01-6.17V43H413
				c-2.58,0-4.5,0.98-5.73,2.93c-1.24,1.95-2.36,6.25-3.36,12.9c-0.11,0.9-0.66,1.35-1.66,1.35h-3.09c-1.79,0-2.69-0.76-2.69-2.29
				V34.85c0-1.79,0.84-2.69,2.53-2.69c1.05,0,2.93,0.21,5.62,0.63c4.32,0.69,7.59,1.03,9.81,1.03h28.01
				c1.42-0.21,3.16-0.5,5.22-0.87c3.16-0.48,4.91-0.71,5.22-0.71c1.42,0,2.14,0.66,2.14,1.98v23.66c0,1.53-0.69,2.29-2.05,2.29
				h-3.01c-1.21,0-1.94-0.34-2.18-1.03c-0.24-0.68-0.62-2.4-1.15-5.14c-0.95-4.54-1.93-7.5-2.93-8.9c-1-1.4-2.77-2.1-5.3-2.1H434.84
				z"/>
		</g>
	</g>
	<g>
		<path class="st2" d="M474.4,38.99c0,3.53-2.77,6.31-6.38,6.31c-3.57,0-6.42-2.77-6.42-6.31c0-3.46,2.85-6.23,6.42-6.23
			C471.63,32.75,474.4,35.53,474.4,38.99z M463.19,38.99c0,2.77,2.05,4.98,4.86,4.98c2.74,0,4.75-2.2,4.75-4.94
			c0-2.77-2.01-5.02-4.79-5.02S463.19,36.25,463.19,38.99z M467.03,42.25h-1.44v-6.23c0.57-0.11,1.37-0.19,2.39-0.19
			c1.18,0,1.71,0.19,2.17,0.46c0.34,0.27,0.61,0.76,0.61,1.37c0,0.68-0.53,1.22-1.29,1.44v0.08c0.61,0.23,0.95,0.68,1.14,1.52
			c0.19,0.95,0.3,1.33,0.46,1.56h-1.56c-0.19-0.23-0.3-0.8-0.49-1.52c-0.11-0.68-0.49-0.99-1.29-0.99h-0.68V42.25z M467.07,38.72
			h0.68c0.8,0,1.44-0.27,1.44-0.91c0-0.57-0.42-0.95-1.33-0.95c-0.38,0-0.65,0.04-0.8,0.08V38.72z"/>
	</g>
</g>
</svg>
