<?xml version="1.0" encoding="utf-8"?>
<!-- Generator: Adobe Illustrator 26.3.1, SVG Export Plug-In . SVG Version: 6.00 Build 0)  -->
<svg version="1.1" id="layer" xmlns="http://www.w3.org/2000/svg" xmlns:xlink="http://www.w3.org/1999/xlink" x="0px" y="0px"
	 viewBox="0 0 652 260" style="enable-background:new 0 0 652 260;" xml:space="preserve">
<style type="text/css">
	.st0{fill:#BA122B;}
</style>
<polygon class="st0" points="461,19.1 409.1,19.1 402.4,50.4 454.4,50.4 "/>
<g>
	<path class="st0" d="M536.9,94.5c19.8,0,29.1,6.7,30.3,18.6h53.9c1.8-38.9-29.8-52.9-77.6-52.9C494,60.2,456.6,78,440.9,114
		l10.3-48.4h-52l-9.6,45c-2.3-31.2-26-48.4-64.3-48.4c-21.1,0-41.1,7.6-55,21.1h-0.5l3.7-17.6H223l-20,95H87.5l5.5-29.8h103
		l7.7-36.3h-103l5.6-29.2h116.9l8-37.7H56L21.2,198.4h173.7l-10.2,48h52l12.8-60h0.5c6.7,9.8,22.8,17.4,45.8,17.4
		c39.4,0,69.8-20.3,84.4-48.4l-9.1,43h52l10.1-47.8c0.3,36.2,29.1,53.2,79.9,53.2c57.3,0,87.5-20.8,103.6-57.5h-54.9
		c-7.3,15.5-21.7,23.2-40.4,23.2c-25,0-36.3-13.5-31.2-37.5C495.1,108,512.7,94.5,536.9,94.5 M334.7,132.3
		c-4.7,22.1-20.2,33.8-43.9,33.8c-24.3,0-34.2-13.2-29.8-33.8c4.4-20.6,19.9-33.8,44.2-33.8C328.9,98.5,339.4,110.2,334.7,132.3"/>
</g>
</svg>
