<?xml version="1.0" encoding="utf-8"?>
<!-- Generator: Adobe Illustrator 25.4.1, SVG Export Plug-In . SVG Version: 6.00 Build 0)  -->
<svg version="1.1" id="TM" xmlns="http://www.w3.org/2000/svg" xmlns:xlink="http://www.w3.org/1999/xlink" x="0px" y="0px"
	 viewBox="0 0 2512.5 974.8" style="enable-background:new 0 0 2512.5 974.8;" xml:space="preserve">
<style type="text/css">
	.st0{fill:url(#SVGID_1_);}
	.st1{fill:url(#SVGID_00000163071656419645478440000017522130668050549640_);}
	.st2{fill:url(#SVGID_00000119092558448164518220000008055545470417425040_);}
	.st3{fill:#333333;}
	.st4{fill:#BABCBE;}
</style>
<g>
	
		<linearGradient id="SVGID_1_" gradientUnits="userSpaceOnUse" x1="89.4829" y1="486.65" x2="888.7227" y2="486.65" gradientTransform="matrix(1 0 0 -1 0 974)">
		<stop  offset="0" style="stop-color:#FBD900"/>
		<stop  offset="3.420000e-02" style="stop-color:#FACE03"/>
		<stop  offset="0.1662" style="stop-color:#F6AA0D"/>
		<stop  offset="0.3049" style="stop-color:#F28B16"/>
		<stop  offset="0.4501" style="stop-color:#EF741D"/>
		<stop  offset="0.6046" style="stop-color:#ED6321"/>
		<stop  offset="0.7748" style="stop-color:#EC5924"/>
		<stop  offset="0.991" style="stop-color:#EC5625"/>
		<stop  offset="1" style="stop-color:#EC5625"/>
	</linearGradient>
	<path class="st0" d="M870.3,763.2c-16.5-18.7-35.6-34.8-56.8-47.9c-36.4-24.8-75.6-45.1-116.8-60.5L508.3,134.7
		c-3.5-10.5-8.6-20.3-15.1-29.3c-21.4-32.8-65.4-41.9-98.2-20.5c-8.2,5.3-15.1,12.3-20.5,20.5c-6.5,8.9-11.5,18.8-15,29.3
		L90.7,874.4c-3.8,10.4,1.5,21.8,11.9,25.6c8.4,3.1,17.7,0.2,23-6.9c0.6-0.8,1.2-1.6,1.7-2.5c103.6-174.9,309.3-261.6,506.8-213.7
		l0,0c10.7,2.9,21.3,6,31.4,9.4l34.4,95.1l0.1,0.2c0.1,0.4,13.9,37.2,23.9,62.3c11.7,29.5,33.1,49,60.2,55.1
		c5.7,1.3,11.5,1.9,17.3,1.9c22.6-0.2,44.4-8.9,60.8-24.5c16.7-15.1,26.3-36.6,26.5-59.1C888.8,797.8,882.4,778.7,870.3,763.2z
		 M272.8,691.8c-36.9,21.5-70.9,47.6-101.2,77.7l226.1-622.7c2.5-6.6,5.8-12.8,9.8-18.6c8.9-14.6,28-19.2,42.6-10.3
		c4.2,2.6,7.7,6.1,10.3,10.3c4.1,5.7,7.4,12,9.8,18.6l178.4,492.4C521.2,607.1,386.4,625.9,272.8,691.8z M834.8,847.3
		c-11.1,10.8-26.8,15.6-42,12.7c-14-3.1-25-13.8-31.7-30.8c-9.5-24.1-22.7-59.3-23.5-61.5l-22.4-62.1c26.5,12.3,52,26.7,76.3,43
		c17.6,10.8,33.7,24,47.5,39.3C853.4,805.8,851.6,831.7,834.8,847.3z"/>
	
		<linearGradient id="SVGID_00000103255076125500002480000008574219942936399488_" gradientUnits="userSpaceOnUse" x1="127.5458" y1="216.8936" x2="665.5491" y2="216.8936" gradientTransform="matrix(1 0 0 -1 0 974)">
		<stop  offset="0.2768" style="stop-color:#FFFFFF;stop-opacity:0"/>
		<stop  offset="0.7917" style="stop-color:#080506;stop-opacity:0.12"/>
		<stop  offset="0.905" style="stop-color:#080506;stop-opacity:0.23"/>
	</linearGradient>
	<path style="fill:url(#SVGID_00000103255076125500002480000008574219942936399488_);" d="M525,623.9
		c-132.4-0.1-259.5,52.2-353.5,145.6l-6,16.3l-38,104.5c103.7-174.6,309.2-261.2,506.6-213.4l0,0c10.7,2.9,21.3,6,31.4,9.4l-17-47
		C608.1,629.1,566.7,623.9,525,623.9z"/>
	
		<linearGradient id="SVGID_00000067947104990142116600000012103950813317802680_" gradientUnits="userSpaceOnUse" x1="696.7176" y1="238.115" x2="888.7194" y2="238.115" gradientTransform="matrix(1 0 0 -1 0 974)">
		<stop  offset="0.1078" style="stop-color:#080506;stop-opacity:0.23"/>
		<stop  offset="0.2389" style="stop-color:#080506;stop-opacity:0.2"/>
		<stop  offset="0.8771" style="stop-color:#FFFFFF;stop-opacity:0"/>
	</linearGradient>
	<path style="fill:url(#SVGID_00000067947104990142116600000012103950813317802680_);" d="M870.3,763.2
		c-16.5-18.7-35.6-34.8-56.8-47.9c-36.4-24.8-75.6-45.1-116.8-60.5l18.4,50.8h0c26.5,12.3,52,26.7,76.3,43
		c17.6,10.8,33.7,24,47.5,39.3c6.4,8.3,9.8,18.4,9.8,28.9h40C888.7,797.5,882.3,778.6,870.3,763.2z"/>
	<path class="st3" d="M896.6,389.7h-21.3l-20.6-46.4h-95.6l-20.8,46.4H718l80-176.8h18.6L896.6,389.7z M807.1,236.2l-40.1,89.5h80
		L807.1,236.2z"/>
	<path class="st3" d="M1051.2,314.7c0.2,11.5-1.6,23-5.3,33.9c-3.1,9.1-8.2,17.4-14.9,24.3c-6.5,6.6-14.4,11.6-23.1,14.7
		c-9.6,3.4-19.8,5-30,4.9c-10.1,0.1-20.2-1.5-29.7-4.9c-8.7-3.1-16.6-8.1-23.1-14.5c-6.7-6.8-11.8-15-14.9-24
		c-3.7-10.6-5.5-21.7-5.3-32.9V214.1h19.8V315c-1.1,15.9,4,31.6,14.2,43.9c22.1,20.1,55.7,20.4,78.1,0.7
		c9.5-9.7,14.3-24.2,14.3-43.4V214.1h19.8V314.7z"/>
	<path class="st3" d="M1149.3,389.7h-19.8V232.5h-58.9v-18.3h137.7v18.3h-58.9L1149.3,389.7z"/>
	<path class="st3" d="M1384.3,336.4c-4.2,10.7-10.4,20.6-18.3,29c-8,8.5-17.7,15.3-28.3,19.9c-23.4,9.8-49.7,9.9-73.1,0.1
		c-21.4-9.3-38.1-26.8-46.4-48.5c-4.3-11.1-6.5-22.9-6.4-34.7c-0.1-11.9,2.2-23.7,6.5-34.7c4.2-10.7,10.4-20.6,18.3-29
		c8-8.5,17.7-15.3,28.3-19.9c23.4-9.8,49.7-9.9,73.1-0.1c21.4,9.3,38.1,26.8,46.4,48.5c4.3,11.1,6.5,22.9,6.4,34.7
		C1390.8,313.6,1388.6,325.4,1384.3,336.4z M1365.1,273.8c-6.5-17.2-19.6-31.1-36.4-38.6c-8.7-3.9-18.2-5.9-27.7-5.8
		c-9.5-0.1-19,1.8-27.7,5.6c-8.2,3.6-15.6,8.8-21.7,15.4c-6.1,6.7-10.9,14.5-14.2,23c-3.5,9-5.2,18.6-5.1,28.2
		c-0.1,9.7,1.7,19.3,5.1,28.3c6.5,17.2,19.6,31.1,36.4,38.6c8.7,3.9,18.2,5.9,27.7,5.8c9.5,0.1,19-1.8,27.7-5.6
		c8.2-3.6,15.6-8.8,21.7-15.4c6.1-6.7,10.9-14.5,14.2-23c3.5-9,5.2-18.6,5.1-28.2C1370.3,292.5,1368.5,282.9,1365.1,273.8z"/>
	<path class="st3" d="M1503.3,341.6h-1l-64-93.8v142H1419V214.1h20.1l64,95.8l64-95.8h20.1v175.6h-19.8V247.5L1503.3,341.6z"/>
	<path class="st3" d="M1785.3,389.7h-21.3l-20.6-46.4h-95.6l-20.8,46.4h-20.3l80-176.8h18.6L1785.3,389.7z M1695.7,236.2l-40.1,89.5
		h80L1695.7,236.2z"/>
	<path class="st3" d="M1847,389.7h-19.8V232.5h-58.9v-18.3h137.7v18.3H1847L1847,389.7z"/>
	<path class="st3" d="M1947.5,214.1v175.6h-19.8V214.1H1947.5z"/>
	<path class="st3" d="M2149.9,336.4c-4.2,10.7-10.4,20.6-18.3,29c-8,8.5-17.7,15.3-28.3,19.9c-23.4,9.8-49.7,9.9-73.1,0.1
		c-21.4-9.3-38.1-26.8-46.4-48.5c-4.3-11.1-6.5-22.9-6.4-34.7c-0.1-11.9,2.2-23.7,6.5-34.7c4.2-10.7,10.4-20.6,18.3-29
		c8-8.5,17.7-15.3,28.3-19.9c23.4-9.8,49.7-9.9,73.1-0.1c21.4,9.3,38.1,26.8,46.4,48.5c4.3,11.1,6.5,22.9,6.4,34.7
		C2156.5,313.6,2154.3,325.4,2149.9,336.4z M2130.7,273.8c-6.5-17.2-19.6-31.1-36.4-38.6c-8.7-3.9-18.2-5.9-27.7-5.8
		c-9.5-0.1-19,1.8-27.7,5.6c-8.2,3.6-15.6,8.8-21.7,15.4c-6.1,6.7-10.9,14.5-14.2,23c-3.5,9-5.2,18.6-5.1,28.2
		c-0.1,9.7,1.7,19.3,5.1,28.3c6.5,17.2,19.6,31.1,36.4,38.6c8.7,3.9,18.2,5.9,27.7,5.8c9.5,0.1,19-1.8,27.7-5.6
		c8.2-3.6,15.6-8.8,21.7-15.4c6.1-6.7,10.9-14.5,14.2-23c3.5-9,5.2-18.6,5.1-28.2C2135.9,292.5,2134.2,282.9,2130.7,273.8z"/>
	<path class="st3" d="M2313.9,214.1h19.3v175.6h-15.8l-113.4-144v144h-19.3V214.1h18.6l110.6,140.7V214.1z"/>
	<path class="st3" d="M952.5,478.5h35.6l75.2,176.8H1023l-16.1-39.4h-74.2l-16.1,39.4h-39.4L952.5,478.5z M993.2,581.8l-23.3-56.9
		l-23.3,56.9H993.2z"/>
	<path class="st3" d="M1075.7,479.7h35.6l82.3,108.1V479.7h38.1v175.6h-32.9l-85-111.6v111.6h-38.1L1075.7,479.7z"/>
	<path class="st3" d="M1309.9,586.1l-67.5-106.4h45.1l41.9,70.5l42.6-70.5h43.9l-67.5,105.6v70h-38.6L1309.9,586.1z"/>
	<path class="st3" d="M1420.4,479.7h41.4l36.4,118.9l39.4-119.4h33.1l39.4,119.4l36.4-118.9h40.4l-59.9,176.8h-33.6l-39.6-114.9
		l-39.6,114.9h-33.6L1420.4,479.7z"/>
	<path class="st3" d="M1699.7,479.7h38.6v69.5h71.2v-69.5h38.6v175.6h-38.6v-70.5h-71.2v70.5h-38.6V479.7z"/>
	<path class="st3" d="M1878.7,479.7h132.2v34.4h-94.1v35.6h82.8v34.4h-82.8v36.9h95.3v34.4h-133.4V479.7z"/>
	<path class="st3" d="M2036.1,479.7h80.3c22.2,0,39.3,5.9,51.2,17.8c10.3,10.7,15.8,25.3,15,40.1v0.5c0.6,12.4-3.1,24.7-10.4,34.7
		c-7,9-16.5,15.8-27.2,19.7l42.9,62.7h-45.1l-37.6-56.2h-30.3v56.2h-38.6L2036.1,479.7z M2113.8,565c7.9,0.5,15.7-1.9,21.9-6.8
		c5.1-4.6,7.9-11.2,7.7-18.1v-0.5c0.5-7.2-2.5-14.2-8-18.8c-6.5-4.5-14.4-6.7-22.3-6.3h-38.4V565L2113.8,565z"/>
	<path class="st3" d="M2205.3,479.7h132.2v34.4h-94.1v35.6h82.8v34.4h-82.8v36.9h95.3v34.4h-133.4V479.7z"/>
	<path class="st4" d="M2371.7,203.6h-11.4v-4.1h27.5v4.1h-11.4v29.2h-4.7V203.6z"/>
	<path class="st4" d="M2394.2,199.6h4.9l7.6,18c0.8,1.8,1.6,4.5,1.6,4.5h0.1c0,0,0.9-2.6,1.6-4.5l7.6-18h4.9l2.7,33.3h-4.6l-1.6-21
		c-0.1-2,0-4.9,0-4.9h-0.1c0,0-1,3.1-1.8,4.9l-6.6,15h-4.1l-6.6-15c-0.8-1.8-1.8-5-1.8-5h-0.1c0,0,0,3-0.1,5l-1.6,21h-4.7
		L2394.2,199.6z"/>
</g>
</svg>
