<svg width="64" height="64" viewBox="0 0 64 64" fill="none" xmlns="http://www.w3.org/2000/svg">
<g clip-path="url(#clip0_393_43460)">
<path opacity="0.9" d="M31.9942 63.9883C49.664 63.9883 63.9883 49.664 63.9883 31.9942C63.9883 14.3243 49.664 2.09318e-06 31.9942 1.34845e-06C14.3243 6.03723e-07 0 14.3243 0 31.9942C0 49.664 14.3243 63.9883 31.9942 63.9883Z" fill="#FDFFFE"/>
<path fill-rule="evenodd" clip-rule="evenodd" d="M60.9703 31.9944C60.9703 32.977 60.9235 33.9479 60.8299 34.9072C59.9876 43.3765 55.4956 50.7697 48.9447 55.4957C48.7692 55.6244 48.582 55.7648 48.3949 55.8818C47.0145 56.841 45.5289 57.6716 43.9847 58.3734C43.47 58.6074 42.9319 58.8297 42.3938 59.0402C42.1949 59.1104 41.996 59.1923 41.7972 59.2625C40.8028 59.6134 39.7851 59.9293 38.7323 60.1749C38.6855 60.1866 38.627 60.1983 38.5685 60.21C37.5625 60.444 36.5448 60.6195 35.5036 60.7481C35.3633 60.7715 35.2346 60.7832 35.1059 60.7949C34.9538 60.8066 34.7901 60.83 34.6263 60.8417C34.4859 60.8534 34.3455 60.8651 34.2052 60.8768C33.901 60.9002 33.5852 60.9236 33.2693 60.9353C33.0237 60.9353 32.778 60.947 32.5323 60.9587C32.3569 60.9587 32.1931 60.9587 32.0176 60.9587C31.7954 60.9587 31.5614 60.9587 31.3391 60.9587C31.2689 60.9587 31.1871 60.9587 31.1169 60.9587C30.9648 60.9587 30.8127 60.9587 30.6723 60.947C30.4618 60.947 30.2629 60.9236 30.064 60.9119C29.8886 60.9119 29.7248 60.8885 29.561 60.8768C29.4207 60.8768 29.2803 60.8534 29.1399 60.8417C29.1165 60.8417 29.1048 60.8417 29.0814 60.8417C28.9059 60.8183 28.7188 60.8066 28.5433 60.7832C28.4731 60.7832 28.3912 60.7715 28.3093 60.7598C28.1105 60.7364 27.9116 60.713 27.701 60.678C27.701 60.678 27.6776 60.678 27.6659 60.678C27.5022 60.6546 27.3267 60.6312 27.1512 60.5961C27.0693 60.5844 26.9758 60.5727 26.8939 60.5493C26.7652 60.5259 26.6482 60.5025 26.5195 60.4791C26.3909 60.4557 26.2622 60.4323 26.1218 60.3972C26.0282 60.3738 25.9229 60.3621 25.8294 60.3387C25.806 60.3387 25.7826 60.3387 25.7475 60.327C25.4901 60.2685 25.2445 60.21 24.9871 60.1515C24.7414 60.093 24.4841 60.0229 24.2384 59.9527C23.1505 59.6485 22.086 59.2859 21.0449 58.8648C21.0449 58.8648 20.9864 58.8414 20.9513 58.8297C20.8577 58.7946 20.7641 58.7478 20.6705 58.7127C20.6354 58.701 20.5886 58.6776 20.5535 58.6659C20.5067 58.6542 20.4716 58.6308 20.4249 58.6191C19.3603 58.1512 18.3309 57.6248 17.3483 57.0516C17.1845 56.958 17.0207 56.8527 16.8687 56.7591C16.7283 56.6772 16.5879 56.5836 16.4592 56.5018C16.2604 56.3731 16.0615 56.2444 15.8626 56.1157C15.7222 56.0221 15.5819 55.9285 15.4532 55.835C15.0087 55.5308 14.5758 55.2033 14.1547 54.8757C13.9909 54.747 13.8272 54.6184 13.6751 54.4897C13.5113 54.361 13.3592 54.2206 13.1955 54.092C6.9955 48.781 3.07666 40.8966 3.07666 32.0879C3.07666 24.3204 6.12985 17.2782 11.1015 12.0726C11.9087 11.2303 12.7626 10.4466 13.6517 9.70958C13.8155 9.5692 13.9792 9.44052 14.1547 9.31184C14.4823 9.04279 14.8332 8.79713 15.1724 8.55147C15.8743 8.04845 16.5996 7.58053 17.3483 7.13601C17.5822 6.99563 17.8162 6.86695 18.0502 6.73827C18.1788 6.66808 18.2958 6.5979 18.4245 6.52771C18.5649 6.44582 18.7169 6.37563 18.8573 6.30544C18.986 6.23526 19.103 6.17677 19.22 6.11828C19.2785 6.08318 19.3369 6.05979 19.4071 6.02469C19.5826 5.93111 19.7698 5.84922 19.9569 5.76734C20.0973 5.69715 20.2494 5.63866 20.3898 5.56847C20.4717 5.53337 20.5535 5.49828 20.6354 5.46319C20.7173 5.42809 20.7992 5.393 20.8811 5.3579C21.2086 5.21753 21.5362 5.08885 21.8637 4.97187C22.0158 4.91338 22.1562 4.86659 22.3082 4.8081C22.7528 4.64432 23.1973 4.50395 23.6418 4.36357C23.7471 4.32848 23.8641 4.29338 23.9811 4.26999C24.0045 4.26999 24.0162 4.25829 24.0279 4.25829C24.0746 4.24659 24.1331 4.22319 24.1799 4.2115C24.2033 4.2115 24.2267 4.2115 24.2501 4.1881C24.3086 4.1647 24.3671 4.15301 24.4256 4.14131C24.449 4.14131 24.4724 4.12961 24.4958 4.11791C24.6479 4.08282 24.8116 4.03602 24.9637 4.00093C25.0924 3.96584 25.2094 3.94244 25.338 3.90735C25.5252 3.86055 25.7241 3.81376 25.9112 3.77867C25.9229 3.77867 25.9346 3.77867 25.958 3.77867C26.4377 3.67339 26.9056 3.5915 27.3852 3.50961C27.3852 3.50961 27.4086 3.50961 27.4203 3.50961C28.2041 3.38093 29.0112 3.28735 29.8184 3.22886C30.0173 3.21716 30.2161 3.20546 30.415 3.19377C30.6139 3.19377 30.8244 3.17037 31.035 3.17037C31.3742 3.15867 31.7135 3.14697 32.0644 3.14697C32.1229 3.14697 32.1814 3.14697 32.2516 3.14697C45.3768 3.22886 56.4314 12.0375 59.9058 24.0631C60.6427 26.6132 61.0405 29.3155 61.0405 32.1113L60.9703 31.9944Z" fill="#00C0E6"/>
<path fill-rule="evenodd" clip-rule="evenodd" d="M59.8355 23.9459C56.3612 11.9203 45.3065 3.11167 32.1813 3.02979C32.1228 3.02979 32.0526 3.02979 31.9941 3.02979V60.9702C32.1696 60.9702 32.3334 60.9702 32.5089 60.9702C32.7545 60.9702 33.0002 60.9702 33.2458 60.9468C33.5617 60.9351 33.8658 60.9117 34.1817 60.8883C34.3221 60.8883 34.4624 60.8649 34.6028 60.8532C34.7549 60.8415 34.9187 60.8181 35.0707 60.8064C35.2111 60.8064 35.3398 60.783 35.4685 60.7596C36.5096 60.6427 37.539 60.4555 38.5333 60.2215C38.5918 60.2215 38.6386 60.1981 38.6971 60.1864C39.9488 59.894 41.1771 59.5079 42.3586 59.0517C42.8967 58.8412 43.4231 58.6189 43.9495 58.3849C45.5054 57.683 46.9793 56.8525 48.3597 55.8932C48.5469 55.7646 48.734 55.6359 48.9095 55.5072C55.4604 50.7812 59.9525 43.388 60.7947 34.9187C60.8883 33.9594 60.9351 32.9885 60.9351 32.0058C60.9351 29.21 60.5491 26.5078 59.8004 23.9576L59.8355 23.9459Z" fill="#0069B2"/>
<path fill-rule="evenodd" clip-rule="evenodd" d="M60.9703 31.9943C60.9703 32.9769 60.9235 33.9479 60.8299 34.9071C59.6016 36.8256 57.9288 38.709 55.8583 40.3701C53.8813 41.9727 46.7572 45.4237 46.2191 49.7168C45.8915 52.3138 46.8391 54.3259 48.3832 55.8934C47.0028 56.8527 45.5172 57.6832 43.973 58.3851C42.3002 59.1455 40.5455 59.7538 38.7206 60.1866C38.6738 60.1983 38.6153 60.21 38.5569 60.2217C37.5508 60.4556 36.5331 60.6311 35.492 60.7598C35.3516 60.7832 35.2229 60.7949 35.0942 60.8066C34.9422 60.8183 34.7784 60.8417 34.6146 60.8534C34.4742 60.8651 34.3339 60.8768 34.1935 60.8885C33.8893 60.9119 33.5735 60.9353 33.2576 60.947C33.012 60.947 32.7663 60.9587 32.5207 60.9704C32.3452 60.9704 32.1814 60.9704 32.0059 60.9704C31.7837 60.9704 31.5497 60.9704 31.3275 60.9704C31.2573 60.9704 31.1754 60.9704 31.1052 60.9704C30.9531 60.9704 30.801 60.9704 30.6607 60.9587C30.4501 60.9587 30.2512 60.9353 30.0524 60.9236C29.8769 60.9236 29.7131 60.9002 29.5494 60.8885C29.409 60.8885 29.2686 60.8651 29.1282 60.8534C29.1048 60.8534 29.0931 60.8534 29.0697 60.8534C28.8943 60.83 28.7071 60.8183 28.5316 60.7949C28.4614 60.7949 28.3796 60.7832 28.2977 60.7715C28.0988 60.7481 27.8999 60.7247 27.6894 60.6896C27.6894 60.6896 27.666 60.6896 27.6543 60.6896C27.4905 60.6662 27.315 60.6428 27.1396 60.6077C27.0577 60.596 26.9641 60.5843 26.8822 60.5609C26.7535 60.5375 26.6365 60.5141 26.5079 60.4907C26.3792 60.4673 26.2505 60.444 26.1101 60.4089C26.0165 60.3855 25.9113 60.3738 25.8177 60.3504C25.7943 60.3504 25.7709 60.3504 25.7358 60.3387C25.4784 60.2802 25.2328 60.2217 24.9754 60.1632C24.7298 60.1047 24.4724 60.0345 24.2267 59.9643C23.1037 59.6485 22.0041 59.2741 20.9396 58.8296C20.7641 58.7594 20.5887 58.6775 20.4132 58.6074C19.3487 58.1394 18.3192 57.613 17.3366 57.0398C17.1728 56.9462 17.0091 56.8409 16.857 56.7474C16.7166 56.6655 16.5762 56.5719 16.4475 56.49C16.2487 56.3613 16.0498 56.2327 15.8509 56.104C15.7106 56.0104 15.5702 55.9168 15.4415 55.8232C14.997 55.5191 14.5642 55.1915 14.143 54.864C13.9793 54.7353 13.8155 54.6066 13.6634 54.4779C13.4996 54.3493 13.3476 54.2089 13.1838 54.0802C15.1491 49.7987 17.7577 45.3184 20.8928 42.8969C26.6833 38.4282 24.5192 33.632 21.969 29.6196C19.1498 25.2094 14.2366 22.5072 15.734 16.2136C16.1317 14.5291 13.9208 13.1839 11.0898 12.0725C16.623 6.28201 24.1566 3.12354 32.0293 3.12354C32.0878 3.12354 32.1463 3.12354 32.2165 3.12354C32.0176 5.52164 31.4327 8.03671 33.9361 8.21219C39.4576 8.58652 42.9085 11.8737 40.6625 17.4653C37.6678 24.917 46.2425 32.0996 51.3194 31.0819C54.6066 30.4268 57.6715 25.5838 59.8707 24.0513C60.6077 26.6015 61.0054 29.3038 61.0054 32.0996L60.9703 31.9943Z" fill="#009DD2"/>
<path fill-rule="evenodd" clip-rule="evenodd" d="M59.8355 23.946C57.6363 25.4902 54.5714 30.3215 51.2842 30.9882C46.219 32.006 37.6326 24.8234 40.6273 17.3717C42.8733 11.7801 39.4224 8.49291 33.9009 8.11857C32.5323 8.02499 32.0877 7.22952 32.0059 6.1416V60.9703C32.1813 60.9703 32.3451 60.9703 32.5206 60.9703C32.7662 60.9703 33.0119 60.9703 33.2575 60.9469C33.5734 60.9352 33.8775 60.9118 34.1934 60.8884C34.3338 60.8884 34.4741 60.8651 34.6145 60.8534C34.7666 60.8417 34.9304 60.8183 35.0824 60.8066C35.2228 60.8066 35.3515 60.7832 35.4802 60.7598C36.5213 60.6428 37.5507 60.4556 38.5451 60.2217C38.6036 60.2217 38.6503 60.1983 38.7088 60.1866C40.5337 59.7537 42.2884 59.1454 43.9613 58.3851C45.5171 57.6832 46.9911 56.8526 48.3714 55.8934C46.8273 54.3258 45.8797 52.3138 46.2073 49.7168C46.7454 45.4236 53.8578 41.9727 55.8465 40.3701C57.9053 38.709 59.5898 36.8256 60.8181 34.9071C60.9117 33.9479 60.9585 32.9769 60.9585 31.9943C60.9585 29.1984 60.5725 26.4962 59.8238 23.946L59.8355 23.946Z" fill="#476C8F"/>
<path fill-rule="evenodd" clip-rule="evenodd" d="M30.0056 30.4385C24.3905 34.8604 19.1732 20.3197 19.0445 16.3891C18.9743 14.1899 16.7166 11.6748 14.1079 9.21824C14.4355 8.94919 14.7864 8.70353 15.1256 8.45787C15.8275 7.95486 16.5528 7.48693 17.3015 7.04241C17.5354 6.90203 17.7694 6.77335 18.0034 6.64468C18.132 6.57449 18.249 6.5043 18.3777 6.43411C18.5181 6.35222 18.6701 6.28204 18.8105 6.21185C18.9392 6.14166 19.0562 6.08317 19.1732 6.02468C19.2317 5.98959 19.2901 5.96619 19.3603 5.9311C19.5358 5.83751 19.723 5.75562 19.9101 5.67374C20.0505 5.60355 20.2026 5.54506 20.343 5.47487C20.4249 5.43978 20.5067 5.40468 20.5886 5.36959C20.6705 5.33449 20.7524 5.2994 20.8343 5.26431C21.1618 5.12393 21.4894 4.99525 21.8169 4.87827C21.969 4.81978 22.1094 4.77299 22.2614 4.7145C22.706 4.55073 23.1505 4.41035 23.595 4.26997C23.7003 4.23488 23.8173 4.19978 23.9343 4.17639C23.9577 4.17639 23.9694 4.16469 23.9811 4.16469C24.0279 4.15299 24.0863 4.1296 24.1331 4.1179C24.1565 4.1179 24.1799 4.1179 24.2033 4.0945C24.2618 4.07111 24.3203 4.05941 24.3788 4.04771C24.4022 4.04771 24.4256 4.03601 24.449 4.02431C24.6011 3.98922 24.7648 3.94243 24.9169 3.90733C25.0456 3.87224 25.1626 3.84884 25.2912 3.81375C25.4784 3.76696 25.6773 3.72017 25.8644 3.68507C25.8761 3.68507 25.8878 3.68507 25.9112 3.68507C26.3909 3.57979 26.8588 3.4979 27.3384 3.41602C25.6305 6.92543 24.2501 10.505 25.7358 11.6397C31.9942 16.3891 32.0878 28.8359 30.0173 30.4619L30.0056 30.4385Z" fill="#173C68"/>
<path fill-rule="evenodd" clip-rule="evenodd" d="M42.4874 50.3482C42.0078 51.8572 41.7972 54.9572 41.7855 59.2738C40.7912 59.6247 39.7735 59.9406 38.7206 60.1863C38.6739 60.198 38.6154 60.2096 38.5569 60.2213C37.5508 60.4553 36.5331 60.6308 35.492 60.7595C35.3516 60.7829 35.2229 60.7946 35.0943 60.8062C34.9422 60.8179 34.7784 60.8413 34.6146 60.853C34.4743 60.8647 34.3339 60.8764 34.1935 60.8881C33.8894 60.9115 33.5735 60.9349 33.2577 60.9466C33.012 60.9466 32.7663 60.9583 32.5207 60.97C32.3452 60.97 32.1814 60.97 32.006 60.97C31.7837 60.97 31.5497 60.97 31.3275 60.97C31.2573 60.97 31.1754 60.97 31.1052 60.97C30.9531 60.97 30.8011 60.97 30.6607 60.9583C30.4501 60.9583 30.2513 60.9349 30.0524 60.9232C29.8769 60.9232 29.7132 60.8998 29.5494 60.8881C29.409 60.8881 29.2686 60.8647 29.1283 60.853C29.1049 60.853 29.0932 60.853 29.0698 60.853C28.8943 60.8296 28.7071 60.8179 28.5316 60.7946C28.4615 60.7946 28.3796 60.7829 28.2977 60.7712C28.0988 60.7478 27.9 60.7244 27.6894 60.6893C27.6894 60.6893 27.666 60.6893 27.6543 60.6893C27.4905 60.6659 27.3151 60.6425 27.1396 60.6074C27.0577 60.5957 26.9641 60.584 26.8822 60.5606C26.7535 60.5372 26.6366 60.5138 26.5079 60.4904C26.3792 60.467 26.2505 60.4436 26.1102 60.4085C26.0166 60.3851 25.9113 60.3734 25.8177 60.35C25.7943 60.35 25.7709 60.35 25.7358 60.3383C25.4785 60.2798 25.2328 60.2213 24.9754 60.1629C24.7298 60.1044 24.4724 60.0342 24.2268 59.964C23.1389 59.6598 22.0743 59.2972 21.0332 58.8761C24.4256 55.2731 28.4966 51.5414 30.5671 50.044C37.4456 45.0373 30.2747 39.8083 33.6203 35.0472C36.8724 30.4381 48.9681 33.9124 50.5006 34.6845C55.0511 36.9773 44.7334 43.2826 42.4757 50.4067L42.4874 50.3482Z" fill="#173C68"/>
<path fill-rule="evenodd" clip-rule="evenodd" d="M50.5004 34.6264C48.9563 33.8543 36.8722 30.38 33.6202 34.989C30.5436 39.3524 36.3224 44.1135 31.9941 48.7342V60.9587C32.1696 60.9587 32.3334 60.9587 32.5089 60.9587C32.7545 60.9587 33.0002 60.9587 33.2458 60.9353C33.5617 60.9236 33.8658 60.9002 34.1817 60.8768C34.3221 60.8768 34.4624 60.8534 34.6028 60.8417C34.7549 60.83 34.9187 60.8066 35.0707 60.7949C35.2111 60.7949 35.3398 60.7715 35.4685 60.7481C36.5096 60.6312 37.539 60.444 38.5333 60.21C38.5918 60.21 38.6386 60.1866 38.6971 60.1749C39.7382 59.9293 40.756 59.6251 41.762 59.2625C41.762 54.9459 41.9843 51.8576 42.4639 50.3369C44.7099 43.2128 55.0393 36.9075 50.4887 34.6147L50.5004 34.6264Z" fill="#173C68"/>
<path fill-rule="evenodd" clip-rule="evenodd" d="M36.2757 53.6121C31.9942 54.3023 31.4795 53.0272 37.1881 47.342C40.8028 43.739 39.3289 37.6326 40.6391 36.9307C46.6168 33.7255 41.5398 52.7582 36.264 53.6121L36.2757 53.6121Z" fill="#476C8F"/>
<path fill-rule="evenodd" clip-rule="evenodd" d="M19.7113 34.6264C19.7113 37.5509 17.3483 39.9139 14.4237 39.9139C11.4992 39.9139 9.13623 37.5509 9.13623 34.6264C9.13623 31.7019 11.4992 29.3389 14.4237 29.3389C17.3483 29.3389 19.7113 31.7019 19.7113 34.6264Z" fill="#009DD2"/>
<path fill-rule="evenodd" clip-rule="evenodd" d="M39.9957 13.5695C39.9957 15.1955 38.6738 16.5174 37.0478 16.5174C35.4217 16.5174 34.0999 15.1955 34.0999 13.5695C34.0999 11.9435 35.4217 10.6216 37.0478 10.6216C38.6738 10.6216 39.9957 11.9435 39.9957 13.5695Z" fill="#009DD2"/>
<path fill-rule="evenodd" clip-rule="evenodd" d="M26.8004 45.8444C26.8004 47.4704 25.4785 48.7923 23.8524 48.7923C22.2264 48.7923 20.9045 47.4704 20.9045 45.8444C20.9045 44.2184 22.2264 42.8965 23.8524 42.8965C25.4785 42.8965 26.8004 44.2184 26.8004 45.8444Z" fill="#173C68"/>
<path fill-rule="evenodd" clip-rule="evenodd" d="M54.5948 22.6007C54.5948 24.2268 53.2729 25.5486 51.6469 25.5486C50.0209 25.5486 48.699 24.2268 48.699 22.6007C48.699 20.9747 50.0209 19.6528 51.6469 19.6528C53.2729 19.6528 54.5948 20.9747 54.5948 22.6007Z" fill="#173C68"/>
</g>
<defs>
<clipPath id="clip0_393_43460">
<rect width="64" height="64" fill="white"/>
</clipPath>
</defs>
</svg>
