<svg width="112" height="60" viewBox="0 0 112 60" fill="none" xmlns="http://www.w3.org/2000/svg">
<g clip-path="url(#clip0_178_12683)">
<path d="M76.9103 35.0252C77.5472 34.5702 78.2379 34.0408 78.881 33.5342C83.8359 29.5699 87.6203 25.2251 88.3709 22.8221C88.3937 22.7435 88.4599 22.5202 88.4599 22.3444C88.4599 22.0962 88.342 21.9225 88.1166 21.9225C85.8418 21.9225 78.544 29.1894 76.7779 35.0727V35.0934L76.9103 35.0252ZM58.617 34.1897C65.5158 28.9784 72.764 21.3911 73.5374 18.2767C73.5602 18.1754 73.5829 18.0761 73.5808 17.981C73.5705 17.7742 73.4588 17.5922 73.1983 17.5922C71.0145 17.5922 60.9042 26.9167 58.617 34.1897ZM16.2588 38.7702C14.437 37.5067 11.6204 36.4024 9.10368 36.4024C6.66348 36.4024 5.1001 37.362 5.1001 38.5717C5.1001 39.9593 6.99435 40.5673 9.11609 40.5673C11.6886 40.5673 14.0234 39.8725 16.2588 38.7702ZM37.3914 22.423C42.338 20.8368 47.0281 17.5219 50.5292 14.0601C53.7614 10.8568 56.3505 7.05384 56.3505 5.16992C56.3505 4.73978 56.0445 4.48129 55.6516 4.48129C54.1564 4.48129 51.315 6.4686 47.4914 10.2964C44.5156 13.2805 41.0476 17.3544 37.3914 22.423ZM111.011 34.38C106.763 38.6069 93.5285 50.2247 90.0253 60L85.6867 58.8812C87.1053 54.8321 91.3757 48.5352 96.1341 43.6775C95.1208 44.058 94.0661 44.2007 93.2182 44.2007C91.932 44.2007 90.9331 43.812 90.3314 43.084C89.9012 42.5588 89.682 41.8743 89.682 41.0595C89.682 40.8816 89.6944 40.7038 89.7192 40.5032C85.5399 43.0489 82.1794 44.1987 78.8872 44.1987C76.325 44.1987 74.1681 43.082 73.1693 41.1236C69.021 43.1812 65.0422 44.1987 61.7169 44.1987C58.6212 44.1987 56.1251 42.9724 54.9795 40.739C50.7856 43.0964 47.2163 44.1987 44.377 44.1987C42.7433 44.1987 41.4467 43.7458 40.6154 42.8876C40.0032 42.2548 39.6806 41.4048 39.6331 40.4226C36.9447 42.1948 33.0156 44.1987 28.9893 44.1987C24.8699 44.1987 22.1071 42.7842 19.9626 41.3821C16.5422 43.2763 12.7785 44.1987 8.79969 44.1987C5.79287 44.1987 0.941414 42.9475 0.941414 38.6358C0.93521 35.1554 4.56656 32.798 9.42628 32.798C13.5581 32.798 17.5389 34.5392 20.037 36.3466C22.4069 34.4585 24.8947 31.8177 27.8291 28.0851C27.1839 28.1223 26.5532 28.1388 25.9328 28.1388C20.3141 28.1388 15.6219 26.4824 13.0597 23.5831C11.6762 22.0156 11.0207 20.1772 11.0207 18.1981C11.0207 10.3812 20.8952 4.31585 29.5331 3.42249C30.1039 4.71703 30.6126 5.71379 31.1399 6.89874C22.6075 7.89136 15.4999 12.9413 15.4999 17.8776C15.4999 21.1222 19.1457 24.3813 26.8861 24.3813C28.2117 24.3813 29.5435 24.2531 30.8546 24.0732C37.6871 14.6433 48.1552 0 57.1653 0C59.8309 0 61.2247 1.62129 61.2247 3.78852C61.2247 8.24705 57.3886 13.0468 54.8905 15.5511C50.9655 19.4947 43.8641 25.3636 33.9482 27.3075C30.0915 32.6739 26.9213 36.2329 23.749 38.8033C25.6702 39.8394 27.4734 40.4763 29.622 40.4763C34.9595 40.4763 40.1377 35.5918 44.1805 31.4496L44.3232 31.3111L47.4748 33.7761L47.3301 33.9498C45.5433 35.9992 43.8952 38.1664 43.8952 39.3803C43.8952 40.3005 44.6748 40.4825 45.3427 40.4825C47.3859 40.4825 50.5375 39.159 54.2453 36.8801V36.8491C54.6548 27.688 67.1577 13.6775 74.7472 13.6775C76.8896 13.6775 78.12 14.7446 78.12 16.614C78.12 21.207 70.1976 31.0526 58.6729 38.5883V38.5945C59.2684 39.8766 60.6416 40.4949 62.9722 40.4949C64.7899 40.4949 68.3468 39.6843 72.5737 37.4757C73.0618 32.7297 75.7522 27.6322 79.1643 23.9988C82.5868 20.3612 86.4229 17.9975 89.7399 17.9975C91.7851 17.9975 92.9928 19.1225 92.9928 20.8906C92.9928 24.8963 88.342 31.7454 77.1377 38.9171C77.634 39.8766 78.5956 40.4825 80.0929 40.4825C83.4306 40.4825 89.3098 36.9215 93.8883 32.5436L97.1763 35.0955C95.7722 36.7995 94.3515 38.671 94.397 39.7484C94.4094 40.0979 94.6451 40.3336 95.1973 40.3336C98.5722 40.3336 103.885 35.8772 107.868 31.9439L111.011 34.38ZM49.9212 25.192C51.4122 25.192 52.6158 26.4017 52.6158 27.8907C52.6158 29.3817 51.4122 30.5894 49.9212 30.5894C48.424 30.5894 47.2163 29.3817 47.2163 27.8907C47.2184 26.4017 48.4261 25.192 49.9212 25.192Z" fill="#ED1D24"/>
</g>
<defs>
<clipPath id="clip0_178_12683">
<rect width="110.076" height="60" fill="white" transform="translate(0.935059)"/>
</clipPath>
</defs>
</svg>
