<svg width="159" height="60" viewBox="0 0 159 60" fill="none" xmlns="http://www.w3.org/2000/svg">
<path d="M42.459 9.6875V10.9375H43.709V9.6875H42.459ZM42.459 12.1875V13.4375H43.709V12.1875H42.459ZM38.709 13.4375V14.6875H39.959V13.4375H38.709Z" fill="#FDB511"/>
<path d="M22.3545 14.375C12.4291 14.375 4.38574 22.4183 4.38574 32.3438C4.38574 42.2692 12.4291 50.3125 22.3545 50.3125C32.2799 50.3125 40.3232 42.2692 40.3232 32.3438C40.3232 22.4183 32.2799 14.375 22.3545 14.375ZM22.3545 20.1042C29.1079 20.1042 34.5941 25.5904 34.5941 32.3438C34.5941 39.0971 29.1079 44.5833 22.3545 44.5833C15.6011 44.5833 10.167 39.0971 10.167 32.3438C10.167 25.5904 15.6011 20.1042 22.3545 20.1042Z" fill="#FDB511"/>
<path d="M50.7505 41.8525C48.1672 41.8525 46.0005 41.2109 44.2505 39.9275L45.9255 37.1775C47.3255 38.1609 48.9088 38.6525 50.6755 38.6525C51.5422 38.6525 52.2255 38.4859 52.7255 38.1525C53.2255 37.8025 53.4755 37.3192 53.4755 36.7025C53.4755 36.5359 53.4588 36.3859 53.4255 36.2525C53.3921 36.1192 53.3338 35.9942 53.2505 35.8775C53.1672 35.7442 53.0838 35.6359 53.0005 35.5525C52.9171 35.4525 52.7838 35.3525 52.6005 35.2525C52.4338 35.1525 52.2838 35.0692 52.1505 35.0025C52.0338 34.9359 51.8421 34.8525 51.5755 34.7525C51.3088 34.6525 51.0838 34.5775 50.9005 34.5275C50.7338 34.4609 50.4755 34.3692 50.1255 34.2525C49.7755 34.1359 49.4838 34.0359 49.2505 33.9525C48.6338 33.7359 48.1088 33.5109 47.6755 33.2775C47.2422 33.0275 46.8005 32.7109 46.3505 32.3275C45.9005 31.9276 45.5588 31.4276 45.3255 30.8275C45.0922 30.2109 44.9755 29.5109 44.9755 28.7275C44.9755 27.1442 45.5255 25.9192 46.6255 25.0525C47.7255 24.1692 49.1755 23.7276 50.9755 23.7275C53.1421 23.7276 54.9005 24.1276 56.2505 24.9275L54.9755 27.8025C53.7088 27.2026 52.4171 26.9026 51.1005 26.9025C49.3672 26.9026 48.5005 27.4692 48.5005 28.6025C48.5005 28.8692 48.5505 29.1026 48.6505 29.3025C48.7505 29.5026 48.8588 29.6692 48.9755 29.8025C49.0922 29.9359 49.3005 30.0692 49.6005 30.2025C49.9172 30.3359 50.1755 30.4359 50.3755 30.5025C50.5922 30.5692 50.9422 30.6776 51.4255 30.8275C51.6421 30.8942 51.8088 30.9442 51.9255 30.9775C52.5088 31.1609 53.0088 31.3359 53.4255 31.5025C53.8421 31.6692 54.3005 31.9109 54.8005 32.2275C55.3005 32.5276 55.7088 32.8692 56.0255 33.2525C56.3421 33.6359 56.6088 34.1192 56.8255 34.7025C57.0421 35.2859 57.1505 35.9359 57.1505 36.6525C57.1505 38.2192 56.5921 39.4775 55.4755 40.4275C54.3755 41.3775 52.8005 41.8525 50.7505 41.8525Z" fill="black"/>
<path d="M63.3202 42.2022L58.5952 28.6772H62.5202L64.9452 38.1272L66.9952 28.6772H70.6702L66.7952 41.7772C65.8952 44.8106 64.0202 46.3272 61.1702 46.3272C60.5035 46.3272 59.7952 46.2522 59.0452 46.1022L59.4452 43.4522C60.1119 43.5189 60.5369 43.5522 60.7202 43.5522C61.4035 43.5522 61.9369 43.4439 62.3202 43.2272C62.7035 43.0272 63.0369 42.6856 63.3202 42.2022Z" fill="black"/>
<path d="M83.0657 30.3779C84.3157 29.0446 85.649 28.3779 87.0657 28.3779C88.3824 28.3779 89.3074 28.8279 89.8407 29.7279C90.3907 30.6279 90.6657 31.7529 90.6657 33.1029V41.6029H86.8657V33.0529C86.8657 32.0196 86.4657 31.5029 85.6657 31.5029C85.0324 31.5029 84.324 31.8529 83.5407 32.5529V41.6029H79.7407V33.0529C79.7407 32.0196 79.3407 31.5029 78.5407 31.5029C77.8074 31.5029 77.099 31.8696 76.4157 32.6029V41.6029H72.6157V28.6779H74.9657L75.7157 30.6529C77.0324 29.1363 78.4407 28.3779 79.9407 28.3779C81.4407 28.3779 82.4824 29.0446 83.0657 30.3779Z" fill="black"/>
<path d="M100.158 33.3279V33.0029C100.158 32.4196 100.025 31.9946 99.7585 31.7279C99.5085 31.4613 99.0668 31.3279 98.4335 31.3279C97.4502 31.3279 96.2418 31.6613 94.8085 32.3279L93.5085 29.8279C95.1752 28.8613 96.9252 28.3779 98.7585 28.3779C100.475 28.3779 101.767 28.8029 102.633 29.6529C103.517 30.4863 103.958 31.6779 103.958 33.2279V41.6029H101.608C101.175 40.6863 100.95 40.2279 100.933 40.2279C99.7502 41.3113 98.4835 41.8529 97.1335 41.8529C95.9835 41.8529 95.0168 41.5196 94.2335 40.8529C93.4668 40.1696 93.0835 39.2446 93.0835 38.0779C93.0835 36.7113 93.5252 35.7113 94.4085 35.0779C95.4418 34.3113 97.3585 33.7279 100.158 33.3279ZM100.158 38.4029V35.6779C98.5085 36.0113 97.5085 36.3779 97.1585 36.7779C96.9252 37.0279 96.8085 37.3696 96.8085 37.8029C96.8085 38.7196 97.2502 39.1779 98.1335 39.1779C98.8668 39.1779 99.5418 38.9196 100.158 38.4029Z" fill="black"/>
<path d="M106.991 41.6029V28.6779H109.341L110.091 30.6529C111.407 29.1363 112.849 28.3779 114.416 28.3779C116.882 28.3779 118.116 29.9529 118.116 33.1029V41.6029H114.316V33.0529C114.316 32.0196 113.882 31.5029 113.016 31.5029C112.216 31.5029 111.474 31.8696 110.791 32.6029V41.6029H106.991Z" fill="black"/>
<path d="M122.05 31.2774H120.15V28.6774H122.1L122.75 25.0024H125.85V28.6774H128.6V31.2774H125.85V37.5024C125.85 38.0691 125.942 38.4608 126.125 38.6774C126.308 38.8941 126.683 39.0024 127.25 39.0024C127.567 39.0024 128.008 38.9191 128.575 38.7524L129.025 41.3774C128.075 41.6941 127.108 41.8524 126.125 41.8524C123.408 41.8524 122.05 40.4691 122.05 37.7024V31.2774Z" fill="black"/>
<path d="M134.509 36.2529C134.592 37.1363 134.833 37.7863 135.233 38.2029C135.65 38.6196 136.267 38.8279 137.083 38.8279C137.533 38.8279 137.983 38.7613 138.433 38.6279C138.9 38.4946 139.242 38.3696 139.459 38.2529C139.692 38.1363 140.033 37.9529 140.483 37.7029L141.984 40.1029C141.467 40.4863 141.025 40.7863 140.659 41.0029C140.292 41.2029 139.767 41.3946 139.084 41.5779C138.4 41.7613 137.642 41.8529 136.808 41.8529C134.908 41.8529 133.392 41.2696 132.259 40.1029C131.142 38.9196 130.583 37.3113 130.583 35.2779C130.583 33.2446 131.117 31.5863 132.183 30.3029C133.25 29.0196 134.717 28.3779 136.584 28.3779C138.5 28.3779 139.933 29.0196 140.883 30.3029C141.833 31.5863 142.308 33.2363 142.309 35.2529V36.2529H134.509ZM134.509 34.0279H138.433C138.433 32.0779 137.808 31.1029 136.558 31.1029C135.958 31.1029 135.492 31.3363 135.159 31.8029C134.825 32.2529 134.608 32.9946 134.509 34.0279Z" fill="black"/>
<path d="M150.432 41.8529C148.365 41.8529 146.807 41.2446 145.757 40.0279C144.723 38.7946 144.207 37.1863 144.207 35.2029C144.207 33.2196 144.748 31.5863 145.832 30.3029C146.915 29.0196 148.448 28.3779 150.432 28.3779C152.182 28.3779 153.607 28.8613 154.707 29.8279L152.932 32.3529C152.482 32.0196 152.09 31.7946 151.757 31.6779C151.423 31.5446 150.99 31.4779 150.457 31.4779C148.907 31.4779 148.132 32.7029 148.132 35.1529C148.132 37.5529 148.923 38.7529 150.507 38.7529C151.357 38.7529 152.215 38.4113 153.082 37.7279L154.907 40.0779C153.723 41.2613 152.232 41.8529 150.432 41.8529Z" fill="black"/>
<path d="M27.4591 23.4375C24.1964 27.5153 23.3741 29.3059 22.0743 32.6029C20.5995 29.62 18.8395 27.5614 15.7924 26.1979C15.2152 26.0506 14.9313 25.9651 14.5424 26.5104C14.1535 27.0557 14.3893 27.5463 14.8549 28.125C16.075 29.6414 17.4461 31.0424 18.3966 32.7604C19.5108 34.7745 20.8981 38.094 21.3653 38.9583C21.7369 39.6458 22.6356 39.9479 22.9799 39.9479C24.8239 39.7297 24.8246 38.7922 25.1761 37.1672C25.7461 34.5023 26.4843 31.7473 29.9591 28.4375V23.4375H27.4591Z" fill="black"/>
<path d="M41.209 10.9375V12.1875H42.459V10.9375H41.209ZM41.209 12.1875H38.709V13.4375H41.209V12.1875ZM38.709 13.4375H37.459V15.9375H38.709V13.4375ZM38.709 15.9375V17.1875H39.959V15.9375H38.709ZM39.959 15.9375H41.209V14.6875H39.959V15.9375ZM38.709 17.1875H37.459V18.4375H36.209V17.1875H33.709V18.4375H32.459V19.6875H33.709V20.9375H32.459V19.6875H31.209V20.9375H29.959V22.1875H28.709V27.1875H31.209V25.9375H32.459V24.6875H33.709V23.4375H32.459V22.1875H33.709V23.4375H34.959V22.1875H36.209V20.9375H37.459V19.6875H38.709V17.1875ZM36.209 17.1875H37.459V15.9375H36.209V17.1875ZM36.209 15.9375V14.6875H34.959V15.9375H36.209Z" fill="black"/>
</svg>
