<svg width="131" height="60" viewBox="0 0 131 60" fill="none" xmlns="http://www.w3.org/2000/svg">
<g clip-path="url(#clip0_178_12347)">
<path d="M128.674 28.5157C129.405 28.3089 130.245 28.4187 130.853 28.8936C131.9 29.6944 131.93 31.4434 130.97 32.3225C130.188 33.0212 128.907 33.2119 128.033 32.571C127.019 31.8978 126.716 30.36 127.422 29.3642C127.72 28.9438 128.181 28.6553 128.674 28.5157Z" fill="#222F7D"/>
<path d="M113.154 29.8494C114.293 29.2571 115.588 29.0886 116.845 28.9277C117.1 31.7371 116.852 34.5575 116.717 37.366C117.04 37.0452 117.21 36.5779 117.618 36.3456C117.978 36.1431 118.27 35.8333 118.662 35.686C119.687 35.2716 120.842 35.092 121.927 35.3694C122.742 35.5745 123.561 35.9175 124.136 36.5516C125.139 37.6316 125.568 39.1141 125.725 40.549C125.868 42.0392 125.767 43.566 125.342 45.0052C124.965 46.2758 124.213 47.4494 123.136 48.2358C122.533 48.6886 121.845 49.012 121.146 49.2826C120.269 49.5839 119.342 49.6971 118.422 49.7592C117.173 49.8299 115.913 49.7873 114.681 49.5635C114.155 49.4614 113.628 49.3337 113.147 49.0903C113.161 42.6767 113.149 36.2631 113.154 29.8494ZM117.193 40.4401C116.959 41.4528 116.863 42.492 116.792 43.5269C116.737 44.5907 116.69 45.6665 116.845 46.7243C117.752 46.9337 118.722 47.0384 119.626 46.7541C120.277 46.5575 120.848 46.1286 121.233 45.5694C121.91 44.5805 122.093 43.3414 122.074 42.166C122.044 41.2307 121.913 40.2775 121.532 39.4162C121.207 38.6928 120.422 38.2077 119.626 38.2869C118.453 38.3754 117.527 39.3626 117.193 40.4401Z" fill="#222F7D"/>
<path d="M69.3745 29.8485C70.4903 29.3575 71.7081 28.9787 72.9396 29.0604C72.9788 35.8724 73.0247 42.6834 73.069 49.4945C71.8366 49.4953 70.6052 49.4953 69.3745 49.4945C69.3737 42.9455 69.3728 36.3975 69.3745 29.8485Z" fill="#222F7D"/>
<path d="M0.812988 30.5071C3.47852 30.4007 6.17044 30.1344 8.82235 30.5573C10.1713 30.7897 11.6189 31.2365 12.4777 32.3769C13.4309 33.6254 13.5824 35.382 12.9977 36.8212C12.5602 37.9395 11.6564 38.8382 10.5747 39.342C11.2717 39.6833 11.9679 40.0492 12.5619 40.5539C13.293 41.3616 13.6624 42.4543 13.7024 43.5343C13.7509 44.9531 13.2675 46.3999 12.3211 47.4663C11.5577 48.2952 10.5151 48.8195 9.44107 49.119C7.90746 49.5361 6.3049 49.5795 4.72618 49.5667C3.4215 49.548 2.11767 49.502 0.812988 49.4935V30.5071H0.812988ZM4.5049 33.5369C4.46065 35.1182 4.41809 36.7003 4.37384 38.2816C5.28278 38.4288 6.2215 38.4586 7.12703 38.2714C7.79341 38.1318 8.4581 37.8543 8.93044 37.3497C9.55256 36.6773 9.67086 35.639 9.34831 34.8016C9.11086 34.1973 8.54405 33.7871 7.9381 33.6016C6.82746 33.2544 5.63682 33.3531 4.5049 33.5369ZM4.36703 41.1965C4.37809 42.9488 4.37044 44.702 4.37129 46.4552C5.43937 46.622 6.54831 46.6663 7.60448 46.4016C8.22831 46.239 8.84703 45.9412 9.25639 45.428C9.75341 44.8075 9.86576 43.9556 9.75256 43.1888C9.6198 42.3812 8.96107 41.7633 8.22065 41.4799C7.00363 40.9982 5.64448 40.9905 4.36703 41.1965Z" fill="#222F7D"/>
<path d="M15.4554 35.3866C17.7175 34.6394 20.1413 34.2436 22.5167 34.5926C23.5422 34.7458 24.5898 35.1109 25.3158 35.8845C26.2341 36.8547 26.4877 38.2462 26.5201 39.5373C26.5762 42.8556 26.612 46.1756 26.6605 49.4947C25.4741 49.4956 24.2869 49.4956 23.1005 49.4947C23.1413 48.7492 23.1881 48.0045 23.229 47.2598C22.9601 47.6547 22.7269 48.0845 22.3669 48.407C21.3073 49.3024 19.9337 49.9202 18.5209 49.7722C17.4222 49.7449 16.2937 49.3739 15.5269 48.5585C14.6452 47.6522 14.3252 46.2845 14.6077 45.0641C14.9132 43.6487 15.9354 42.4751 17.1694 41.7619C18.8673 40.7585 20.8911 40.4981 22.8324 40.5322C22.8196 39.7951 22.8469 38.99 22.4222 38.35C22.092 37.859 21.4988 37.6394 20.9362 37.5568C19.7601 37.3926 18.5558 37.573 17.4435 37.9722C16.8664 38.1594 16.3218 38.4556 15.7192 38.556C15.6324 37.4998 15.5405 36.4436 15.4554 35.3866ZM19.9669 43.3985C19.372 43.6019 18.7541 43.8862 18.3975 44.4309C18.0426 44.927 17.9473 45.6292 18.2707 46.1662C18.5192 46.6573 19.1047 46.8581 19.6247 46.8624C20.3371 46.859 21.0307 46.5909 21.6213 46.2053C22.4732 45.3968 22.8281 44.1875 22.8341 43.0377C21.8698 43.0419 20.8911 43.1075 19.9669 43.3985Z" fill="#222F7D"/>
<path d="M36.1302 34.5986C37.16 34.4131 38.2774 34.4803 39.2017 35.0071C40.0213 35.4633 40.6281 36.276 40.8417 37.1884C40.9745 37.7603 41.0408 38.345 41.0953 38.9288C41.3659 42.4445 41.1898 45.9731 41.1574 49.4939C39.9276 49.4948 38.6987 49.4948 37.4689 49.4939C37.4681 47.1092 37.4681 44.7254 37.4689 42.3407C37.4689 41.3186 37.5762 40.2862 37.4017 39.2718C37.3072 38.756 37.1208 38.2028 36.6698 37.8931C36.2093 37.5773 35.611 37.6088 35.091 37.7296C34.314 37.9092 33.674 38.476 33.2936 39.1628C32.7566 40.1203 32.5617 41.2224 32.4519 42.3016C32.2153 44.6948 32.4502 47.0973 32.4579 49.4939C31.183 49.4948 29.9081 49.4948 28.6332 49.4939C28.6323 44.836 28.6323 40.1773 28.6323 35.5194C29.737 35.1399 30.8851 34.8437 32.0613 34.8599C32.0655 35.6522 32.0553 36.4445 32.0664 37.2369C32.5072 36.7994 32.8272 36.2556 33.2927 35.8411C34.0613 35.1126 35.0962 34.739 36.1302 34.5986Z" fill="#222F7D"/>
<path d="M60.1814 34.5807C61.5516 34.4419 62.9737 34.5994 64.2409 35.1585C65.6273 35.7773 66.7984 36.9347 67.3116 38.3764C67.9473 40.127 67.9626 42.059 67.5754 43.8658C67.2554 45.3951 66.5499 46.8777 65.4001 47.9577C64.3243 48.9832 62.8835 49.5738 61.4146 49.7321C59.8801 49.893 58.2554 49.7475 56.8826 48.9934C55.7431 48.379 54.8631 47.3398 54.3746 46.1475C53.6937 44.5066 53.6622 42.6692 53.9439 40.9373C54.1422 39.4419 54.7405 37.9832 55.7473 36.8487C56.8656 35.5628 58.4912 34.7577 60.1814 34.5807ZM60.3507 37.8079C59.5958 37.973 58.9397 38.4649 58.5048 39.0956C57.7065 40.259 57.5831 41.7466 57.7516 43.1117C57.8358 44.0811 58.1014 45.0904 58.7848 45.8164C59.3524 46.4411 60.2367 46.733 61.0682 46.6079C62.0741 46.51 62.9107 45.7755 63.378 44.9134C63.9984 43.7577 64.1031 42.396 63.9737 41.1117C63.8554 40.0879 63.4588 39.0394 62.6443 38.3696C62.0188 37.8436 61.149 37.6224 60.3507 37.8079Z" fill="#222F7D"/>
<path d="M95.6726 35.1566C96.682 34.5047 97.9407 34.3779 99.1127 34.5021C99.9084 34.5864 100.684 34.9506 101.196 35.5762C101.52 35.9532 101.765 36.3898 101.989 36.8332C102.064 37.0017 102.255 37.0638 102.392 37.1744C102.934 36.3864 103.562 35.6093 104.419 35.1481C105.165 34.7413 106.018 34.6145 106.851 34.5251C107.721 34.4476 108.632 34.5881 109.392 35.0357C110.183 35.4962 110.773 36.2902 110.975 37.1838C111.182 38.091 111.249 39.023 111.305 39.9489C111.468 43.1285 111.329 46.3123 111.3 49.4927C110.031 49.6255 108.747 49.6255 107.478 49.4944C107.594 47.1404 107.633 44.783 107.626 42.4264C107.613 41.3727 107.605 40.3174 107.516 39.2672C107.485 38.7549 107.265 38.2221 106.82 37.9387C106.298 37.6051 105.625 37.6468 105.061 37.84C104.602 38.0068 104.141 38.2519 103.856 38.6621C103.272 39.4408 102.878 40.3583 102.698 41.314C102.57 41.9617 102.604 42.6247 102.6 43.2808C102.599 45.3523 102.601 47.423 102.599 49.4944C101.37 49.4953 100.141 49.4953 98.9109 49.4944C98.9109 47.1378 98.91 44.7804 98.9117 42.4238C98.9126 41.3217 99.0326 40.2051 98.8104 39.1157C98.7041 38.6127 98.4845 38.0757 98.0104 37.817C97.4845 37.5421 96.8419 37.634 96.3117 37.8485C95.2675 38.3115 94.6275 39.3634 94.3117 40.4204C93.9968 41.3991 94.0402 42.4366 93.9806 43.4502C93.9117 45.4638 93.9245 47.4808 94.0309 49.4936C92.7594 49.6119 91.4802 49.5047 90.207 49.4859C90.2138 44.874 90.207 40.2613 90.2104 35.6493C91.3466 35.2196 92.533 34.8587 93.7594 34.857C93.7151 35.6493 93.6717 36.4425 93.6283 37.2357C94.2701 36.5072 94.8403 35.6851 95.6726 35.1566Z" fill="#222F7D"/>
<path d="M80.5167 34.6579C81.4597 34.5021 82.4231 34.5472 83.3661 34.6775C84.6453 34.8664 85.8955 35.4102 86.8138 36.337C87.8138 37.3277 88.3763 38.6868 88.5874 40.0638C88.7568 41.1804 88.7406 42.3243 88.5695 43.44C88.3006 45.0928 87.5772 46.709 86.3431 47.8655C84.4529 49.6655 81.5925 50.2102 79.1048 49.5626C77.8257 49.2272 76.5618 48.5617 75.801 47.4468C74.9908 46.1838 74.6589 44.6698 74.5848 43.1864C74.515 41.2996 74.8137 39.3277 75.8537 37.7149C76.8691 36.0817 78.6163 34.943 80.5167 34.6579ZM81.1099 37.8868C80.2852 38.0383 79.5295 38.5328 79.0929 39.2519C78.4163 40.3387 78.3491 41.6792 78.4869 42.92C78.5806 44.04 78.8938 45.2562 79.7942 46.0043C80.567 46.6511 81.6827 46.6545 82.5959 46.3396C83.4223 46.0375 84.0078 45.303 84.3533 44.5183C84.8963 43.2596 85.0019 41.8247 84.7082 40.4894C84.498 39.577 84.0512 38.6477 83.2299 38.1404C82.6061 37.737 81.8129 37.7055 81.1099 37.8868Z" fill="#222F7D"/>
<path d="M47.023 35.0328C48.9166 34.3706 50.9652 34.6489 52.8945 34.9868C52.7652 36.0855 52.6324 37.1834 52.4996 38.2821C51.44 38.1425 50.429 37.5519 49.3362 37.7672C48.3635 37.9766 47.4715 38.626 47.0409 39.5332C46.3915 40.8651 46.309 42.4319 46.6452 43.8617C46.8681 44.7323 47.292 45.6438 48.1064 46.1034C48.9788 46.523 49.9975 46.5374 50.9345 46.3664C51.5005 46.2711 52.0383 45.9502 52.6247 46.0302C52.7277 47.0515 52.8145 48.0745 52.8945 49.0983C51.229 49.5196 49.5183 49.9757 47.7847 49.7834C46.486 49.6336 45.1711 49.1349 44.275 48.1519C43.189 46.9774 42.6639 45.3877 42.5013 43.8208C42.2996 41.7281 42.6886 39.5434 43.7745 37.7281C44.5081 36.494 45.6588 35.5008 47.023 35.0328Z" fill="#222F7D"/>
<path d="M127.261 34.8576C128.577 34.7376 129.9 34.7189 131.221 34.7266C131.221 39.6491 131.221 44.5717 131.221 49.4942C129.901 49.4951 128.581 49.4951 127.261 49.4942C127.261 44.6151 127.261 39.7368 127.261 34.8576Z" fill="#222F7D"/>
</g>
<defs>
<clipPath id="clip0_178_12347">
<rect width="170.213" height="40" fill="white" transform="translate(0.812988 10)"/>
</clipPath>
</defs>
</svg>
