<svg width="234" height="142" viewBox="0 0 234 142" fill="none" xmlns="http://www.w3.org/2000/svg">
<g clip-path="url(#clip0_393_43489)">
<path opacity="0.9" d="M118.867 142.019C158.363 142.019 190.38 110.227 190.38 71.0096C190.38 31.7921 158.363 0 118.867 0C79.3719 0 47.3545 31.7921 47.3545 71.0096C47.3545 110.227 79.3719 142.019 118.867 142.019Z" fill="#FDFFFE"/>
<path fill-rule="evenodd" clip-rule="evenodd" d="M55.824 47.8815C55.3427 49.1621 54.9192 50.4619 54.5535 51.7617C53.745 54.4185 53.129 57.0754 52.7055 59.7323C52.128 63.1729 51.82 66.6134 51.8008 70.0158C51.8008 71.6023 51.82 73.1888 51.9355 74.7561C52.2243 79.2671 52.975 83.7016 54.1878 88.0023C56.2282 95.3804 59.5584 102.376 64.0051 108.627C71.551 119.292 82.3694 127.856 95.6517 132.653C95.8827 132.73 96.1137 132.806 96.3447 132.883C112.476 138.502 129.358 137.604 144.026 131.545C149.339 129.347 154.363 126.479 158.964 122.981C161.37 121.166 163.661 119.159 165.798 116.999C167.473 115.317 169.051 113.558 170.553 111.685C171.13 110.959 171.688 110.232 172.227 109.487C174.961 105.779 177.328 101.726 179.273 97.3683C179.908 95.973 180.485 94.5394 181.024 93.0867C181.794 91.0033 182.449 88.9007 182.969 86.779C182.988 86.6643 183.026 86.5688 183.046 86.4541C183.431 84.9058 183.777 83.3576 184.047 81.7902C185.587 73.0741 185.298 64.3388 183.431 56.0432C182.603 52.3733 181.448 48.7798 180.023 45.3201C178.021 40.5225 175.5 35.9541 172.42 31.7299C165.009 21.5229 154.594 13.3228 141.89 8.56338C141.659 8.48692 141.428 8.39135 141.216 8.29578C130.07 4.26267 118.559 3.3643 107.644 5.16104C102.062 6.05941 96.6527 7.68412 91.513 9.93961C86.3926 12.176 81.5802 15.0622 77.1527 18.5028C69.3758 24.562 62.8886 32.418 58.4034 41.7267C57.6527 43.2558 56.9597 44.8232 56.3437 46.4288C56.1705 46.8875 55.978 47.3463 55.8047 47.805L55.824 47.8815Z" fill="#00C0E6"/>
<path fill-rule="evenodd" clip-rule="evenodd" d="M56.2286 48.0346C55.4779 50.0798 54.8426 52.1059 54.3036 54.1511C53.8032 56.0626 53.3989 57.974 53.0909 59.8663C52.5134 63.3069 52.2247 66.7474 52.1862 70.1498C52.1284 76.2855 52.9562 82.3447 54.5731 88.1554C54.9581 89.5508 55.4009 90.927 55.8821 92.3032C57.9226 98.1522 60.7908 103.714 64.3905 108.799C65.892 110.901 67.509 112.947 69.2607 114.877C76.3254 122.714 85.392 128.984 96.0371 132.826C96.1141 132.845 96.1911 132.864 96.2681 132.902L141.832 8.58269L141.601 8.50623C130.475 4.47312 118.944 3.57475 108.03 5.37149C102.447 6.26986 97.0381 7.89457 91.8984 10.1501C91.8214 10.1883 91.7444 10.2265 91.6674 10.2647C86.624 12.482 81.9078 15.33 77.5381 18.7324C76.8451 19.2867 76.1521 19.841 75.4784 20.4144C68.6255 26.2252 62.889 33.4886 58.8081 41.9371C58.3653 42.8737 57.9226 43.7912 57.5184 44.7469C57.2489 45.3777 56.9986 45.9893 56.7484 46.6392C56.5751 47.098 56.3826 47.5567 56.2094 48.0155L56.2286 48.0346Z" fill="#009DD2"/>
<path fill-rule="evenodd" clip-rule="evenodd" d="M54.5537 51.7619C53.7453 54.4187 53.1293 57.0756 52.7058 59.7325C52.1283 63.1731 51.8203 66.6137 51.801 70.016C51.801 71.6025 51.8203 73.189 51.9358 74.7563C61.5029 77.1647 71.4935 80.1083 80.0789 84.0841C94.8242 90.927 92.7453 97.1774 112.476 102.816C130.571 108.015 142.256 118.49 162.352 116.999C163.584 116.903 164.739 116.922 165.798 117.037C167.473 115.355 169.051 113.597 170.553 111.723C171.13 110.997 171.688 110.271 172.227 109.525C174.961 105.817 177.329 101.765 179.273 97.4068C179.908 96.0114 180.486 94.5779 181.025 93.1252C181.795 91.0417 182.449 88.9391 182.969 86.8175C177.213 83.9694 170.899 81.1214 164.104 78.3689C152.323 73.5713 147.395 101.019 124.95 64.9125C114.632 48.3022 94.4392 57.0756 80.7334 54.8201C71.2818 53.2528 62.4654 52.2206 54.5345 51.7236L54.5537 51.7619Z" fill="#0069B2"/>
<path fill-rule="evenodd" clip-rule="evenodd" d="M80.7335 54.8582C93.3613 56.9226 111.495 49.6591 122.351 61.51L107.76 101.325C92.9956 96.0686 93.5153 90.3343 80.079 84.084C71.4936 80.1082 61.503 77.1837 51.9359 74.7562C51.8204 73.1888 51.7819 71.6023 51.8011 70.0159C51.8204 66.5944 52.1284 63.1729 52.7059 59.7324C53.1486 57.0755 53.7646 54.4186 54.5538 51.7617C62.4847 52.2587 71.3011 53.2909 80.7527 54.8582H80.7335Z" fill="#173C68"/>
<path fill-rule="evenodd" clip-rule="evenodd" d="M75.0932 20.2615C78.3272 21.5422 81.6574 22.9375 85.0453 24.4475C97.3652 29.9333 107.51 38.7832 120.33 48.5124C122.12 49.8695 123.853 50.9399 125.566 51.7618C139.349 58.4518 150.957 49.4299 172.093 54.7245C176.328 55.7758 180.255 56.9227 183.854 58.0695C183.72 57.4197 183.604 56.7698 183.45 56.1199C182.738 53.0043 181.814 49.946 180.678 46.9641C179.35 46.7921 177.983 46.6392 176.559 46.4672C155.095 44.1544 140.639 39.8345 131.129 36.5278C130.109 36.1837 129.147 35.8205 128.223 35.4956C114.42 30.5068 107.818 21.5039 91.263 10.1118C86.2196 12.3291 81.5034 15.1771 77.1337 18.5794C76.4407 19.1338 75.7477 19.6881 75.074 20.2615H75.0932Z" fill="#AFCEE1"/>
<path fill-rule="evenodd" clip-rule="evenodd" d="M55.4778 92.1694C57.5183 98.0375 60.3865 103.581 63.9862 108.665C65.4877 110.768 67.1046 112.813 68.8564 114.743C70.2231 114.973 71.6476 115.164 73.0913 115.317C85.8346 116.636 88.7606 121.223 98.2892 126.116C101.658 127.837 105.874 129.614 111.649 131.296C123.352 134.68 128.762 128.964 139.618 133.246C141.101 132.749 142.564 132.214 144.007 131.602C147.838 130.016 151.515 128.085 154.999 125.811C153.594 125.543 152.15 125.333 150.649 125.122C130.61 122.542 127.318 113.463 110.667 112.717C108.145 112.603 105.758 112.373 103.467 112.048C93.8618 110.653 86.1041 107.461 78.308 103.294C68.8756 98.2669 61.4067 94.6734 55.497 92.1694H55.4778Z" fill="#AFCEE1"/>
<path fill-rule="evenodd" clip-rule="evenodd" d="M107.645 5.2375C110.166 6.23144 112.515 7.14893 114.594 7.95173C130.224 14.0301 128.011 18.7895 149.744 26.6455C156.154 28.9583 162.757 29.1686 172.439 31.7872C164.893 21.4082 154.248 13.0744 141.216 8.37224C130.07 4.33913 118.559 3.45987 107.645 5.25662V5.2375Z" fill="#0069B2"/>
<path fill-rule="evenodd" clip-rule="evenodd" d="M77.153 18.5794C81.5034 15.1771 86.2388 12.3291 91.2823 10.1118C107.837 21.5039 114.44 30.5068 128.242 35.4956C129.147 35.8205 130.109 36.1646 131.149 36.5278C131.245 36.566 131.36 36.6042 131.476 36.6424L125.874 51.9147C125.759 51.8574 125.662 51.8192 125.547 51.7618C123.853 50.9399 122.101 49.8886 120.311 48.5124C107.491 38.7832 97.3652 29.9333 85.0261 24.4475C81.6381 22.9375 78.3079 21.5613 75.074 20.2615C75.7477 19.6881 76.4407 19.1338 77.1337 18.5794H77.153Z" fill="#6FA9CA"/>
<path fill-rule="evenodd" clip-rule="evenodd" d="M107.645 5.23738C118.559 3.44064 130.07 4.33901 141.216 8.35301C141.389 8.41035 141.582 8.48681 141.774 8.56326L137.154 21.1787C127.992 16.2663 126.259 12.4817 114.613 7.95161C112.534 7.14881 110.186 6.23132 107.664 5.23738H107.645Z" fill="#173C68"/>
<path fill-rule="evenodd" clip-rule="evenodd" d="M78.2887 103.294C86.0849 107.46 93.8618 110.653 103.448 112.048C103.564 112.048 103.679 112.067 103.814 112.086L98.6165 126.25C98.501 126.192 98.4047 126.135 98.2892 126.097C88.7606 121.223 85.8346 116.635 73.0913 115.297C71.6476 115.144 70.2231 114.953 68.8564 114.724C67.1046 112.793 65.4877 110.767 63.9862 108.646C60.3865 103.561 57.5183 98.018 55.4778 92.1499C61.3875 94.6539 68.8564 98.2474 78.2887 103.274V103.294Z" fill="#6FA9CA"/>
<path fill-rule="evenodd" clip-rule="evenodd" d="M61.4838 37.5408C61.1373 38.1142 60.8101 38.6877 60.4828 39.2802C35.8239 34.2914 18.8841 34.234 16.6704 40.255C14.3797 46.4863 28.4705 57.8402 52.0514 70.2644C67.9902 78.6556 88.2602 87.5438 110.763 95.6864C132.592 103.581 153.286 109.583 170.611 113.348C197.58 119.216 216.406 119.656 218.735 113.291C220.987 107.155 207.358 96.0496 184.393 83.8356C184.451 83.5298 184.509 83.2048 184.567 82.8799C184.624 82.5549 184.682 82.2109 184.721 81.8859C216.81 97.8655 236.618 112.908 233.711 120.86C230.67 129.175 203.566 127.569 166.125 118.28C148.82 113.979 129.301 108.053 108.934 100.675C87.9522 93.0869 68.6255 84.9251 52.2824 76.9353C18.4221 60.4015 -2.71411 44.6704 0.288849 36.4895C3.15706 28.6527 27.3733 29.6275 61.4838 37.5408Z" fill="#AFCEE1"/>
<path fill-rule="evenodd" clip-rule="evenodd" d="M60.4635 39.2803C59.8283 40.4081 59.2315 41.5549 58.6733 42.74C58.4808 43.1414 58.2883 43.5428 58.0958 43.9251C46.6614 42.3195 39.308 42.8356 38.1915 45.8748C37.0558 48.9904 42.6575 54.2851 52.9561 60.5736C66.5657 68.8692 88.3564 78.9042 113.554 88.0026C137.925 96.8143 160.408 102.912 176.135 105.416C189.013 107.461 197.368 107.098 198.561 103.829C199.735 100.656 193.884 95.2087 183.2 88.7863C183.296 88.4805 183.373 88.1556 183.45 87.8497C183.469 87.735 183.508 87.6395 183.527 87.5248C183.835 86.3015 184.124 85.059 184.355 83.8166C207.301 96.0306 220.949 107.117 218.696 113.272C216.367 119.637 197.541 119.197 170.572 113.329C153.247 109.564 132.554 103.562 110.725 95.6675C88.2216 87.5439 67.9517 78.6558 52.0129 70.2455C28.4319 57.8212 14.3411 46.4673 16.6318 40.2361C18.8263 34.2342 35.7853 34.2724 60.4442 39.2612L60.4635 39.2803Z" fill="#EDEAF5"/>
</g>
<defs>
<clipPath id="clip0_393_43489">
<rect width="234" height="142" fill="white"/>
</clipPath>
</defs>
</svg>
